<svg width="240" height="48" viewBox="0 0 240 48" fill="none" xmlns="http://www.w3.org/2000/svg">
<path fill-rule="evenodd" clip-rule="evenodd" d="M74.5906 22.7843C75.2917 20.8214 76.3983 20.4374 76.8323 20.4374C77.2711 20.4374 78.8022 21.9636 79.0788 23.6241C79.3555 25.2846 77.6432 28.0922 75.5397 28.5865C73.819 28.9909 73.0367 28.3868 72.4591 27.9408C72.3306 27.8416 72.2123 27.7502 72.096 27.6794C71.4568 27.2907 70.9799 27.0316 70.9799 27.0316C68.6598 28.2007 66.0239 28.5764 63.4724 28.1018C62.7021 27.944 62.0006 27.547 61.4666 26.9666C60.9326 26.3863 60.5931 25.6519 60.4961 24.8671C60.4817 24.3056 61.016 22.7315 61.6789 22.17C62.1869 21.7872 62.7611 21.5024 63.3722 21.3301C62.8083 22.0428 62.3371 22.825 61.9699 23.6577C61.7171 24.5312 62.3467 26.0861 64.3548 26.5372C66.3628 26.9884 69.1817 26.2781 70.0784 25.9757C70.1521 25.9509 70.2211 25.9279 70.2853 25.9065C71.0014 25.668 71.1154 25.63 70.4981 25.4142C70.2396 25.3238 69.6041 25.1916 68.9155 25.0483C67.8127 24.8189 66.5738 24.5611 66.5297 24.4016C66.4582 24.1424 66.5631 23.0866 67.8891 22.8274L68.083 22.7896C69.3999 22.5331 71.205 22.1814 71.4139 21.834C71.6333 21.4693 71.7907 20.1015 71.6667 18.8729C71.6152 18.3622 71.5339 18.0041 71.4779 17.7568C71.399 17.4093 71.3699 17.2808 71.5427 17.2556C71.5764 17.2507 71.6087 17.2469 71.6386 17.2433C71.8708 17.2161 71.9531 17.2064 71.3615 16.8236C71.0752 16.6408 70.8026 16.4371 70.5458 16.2141C70.9636 15.75 71.4217 15.3244 71.9147 14.9424C72.0269 14.8805 72.106 14.8103 72.167 14.7562C72.3188 14.6217 72.3578 14.5871 72.511 15.0287C72.7256 15.6478 72.7781 15.7822 73.6223 16.1278C73.961 16.242 74.2822 16.4036 74.5762 16.6077L73.8942 18.1818C73.8942 18.1818 73.007 17.6203 72.883 17.9659C72.8299 18.1139 72.7951 18.7021 72.7537 19.4043C72.6983 20.3416 72.6309 21.482 72.4919 22.05C72.2486 23.0434 71.8098 23.4082 71.2422 23.5809C70.6746 23.7537 70.956 23.8401 71.6667 24.0129C72.3774 24.1856 73.0165 24.9823 72.7924 25.5438C72.5521 25.9767 72.2138 26.3467 71.805 26.6236C72.4086 27.0201 73.1115 27.2364 73.8322 27.2475C75.0912 27.2916 76.3323 26.9375 77.3808 26.2349C78.1058 25.635 78.1726 25.2318 78.1344 24.7951C78.1233 24.6678 78.1321 24.556 78.139 24.4667C78.156 24.2497 78.1626 24.1656 77.8483 24.3152C77.7618 24.3564 77.6592 24.4159 77.5427 24.4836C77.0616 24.763 76.3432 25.1802 75.5445 25.0063C74.5524 24.7903 74.2281 23.7969 74.5906 22.7843ZM75.7114 22.957C75.7305 23.3026 76.1073 23.4945 76.6415 23.4945C77.171 23.4945 77.3713 23.4082 77.1519 23.0434C76.964 22.6509 76.6375 22.3429 76.2361 22.1796C75.7687 21.9972 75.6924 22.6115 75.7114 22.957Z" fill="#18482B"/>
<path d="M199.08 17.5051C199.19 16.1038 199.347 14.7024 199.347 14.7024C198.793 14.9252 198.32 15.313 197.991 15.8139C197.662 16.3148 197.492 16.9049 197.506 17.5051C197.535 18.3151 197.628 19.2172 197.715 20.0715C197.854 21.4242 197.98 22.6573 197.826 23.2162C197.675 23.7696 197.482 24.3103 197.248 24.8335C198.229 24.2788 198.951 23.3555 199.256 22.2659C199.539 21.1965 199.379 20.2028 199.229 19.2767C199.129 18.6567 199.034 18.067 199.08 17.5051Z" fill="#18482B"/>
<path d="M114.394 16.5261L113.335 17.6491C113.02 17.5597 112.719 17.429 112.438 17.2604C111.853 16.9181 111.288 16.5432 110.745 16.1374L111.847 14.736C112.052 14.9722 112.304 15.1633 112.586 15.2975C113.182 15.643 113.86 16.0078 113.86 16.0078C113.985 15.9355 114.096 15.8412 114.189 15.7294C114.389 15.5135 115.085 14.8656 115.085 14.8656L117.494 16.1806L116.182 17.39L114.394 16.5261Z" fill="#18482B"/>
<path d="M91.3942 17.1788C91.4588 17.1909 91.5252 17.1895 91.5892 17.1747C91.6532 17.1598 91.7135 17.1318 91.7663 17.0924C91.9688 17.4752 92.1196 17.8836 92.2146 18.3066C92.3625 18.7865 92.5294 19.0409 92.6916 19.0649C92.8538 19.0889 93.1113 18.6761 93.3069 17.8123C93.5024 16.9484 93.6503 16.4781 93.8649 16.5069C93.9101 16.519 93.9524 16.5401 93.9892 16.5689C94.0261 16.5978 94.0568 16.6338 94.0796 16.6749C94.1023 16.7159 94.1331 16.7519 94.1699 16.7808C94.2068 16.8097 94.2491 16.8308 94.2942 16.8428C94.4055 16.8428 94.458 16.8188 94.4516 16.7708V16.7229H94.3992C94.4712 16.6376 94.5072 16.5273 94.4993 16.4157C94.4993 16.0126 94.2417 15.7774 93.7409 15.7102C93.2401 15.643 92.9873 15.8974 92.8538 16.4637C92.8538 16.4973 92.8108 16.9436 92.7202 17.7835C92.5793 17.3964 92.412 17.0195 92.2194 16.6557C92.1281 16.467 91.9943 16.3025 91.8287 16.175C91.6631 16.0475 91.4703 15.9607 91.2654 15.9214C90.8362 15.8638 90.6263 16.0174 90.6359 16.4013C90.6339 16.5027 90.6522 16.6035 90.6894 16.6977C90.7267 16.792 90.7822 16.8778 90.8528 16.9502C90.9235 17.0226 91.0077 17.0801 91.1007 17.1193C91.1936 17.1586 91.2934 17.1788 91.3942 17.1788Z" fill="#18482B"/>
<path d="M217.61 17.6923L215.178 16.7421L214.295 18.273L216.737 19.2664L217.61 17.6923Z" fill="#18482B"/>
<path d="M63.3054 17.1164C62.9954 17.246 60 18.129 60 18.129C60.8614 18.2638 61.7359 18.2929 62.6043 18.2154C63.3126 18.0688 63.5744 17.6906 63.8706 17.2627C63.9235 17.1864 63.9774 17.1085 64.0352 17.03C64.3141 16.6357 64.4428 16.1536 64.3977 15.6718C64.3977 15.3695 62.9 15.2831 62.1798 15.3263C61.4595 15.3695 60.663 16.814 60.663 16.814C61.4386 16.6609 62.2298 16.6029 63.0192 16.6413C63.7299 16.7708 63.6202 16.9868 63.3054 17.1164Z" fill="#18482B"/>
<path d="M204.265 17.6923C204.78 17.5915 204.57 18.369 203.616 18.393C202.886 18.393 203.067 17.5147 203.067 17.5147C203.128 17.1411 203.262 16.7835 203.463 16.4637C204.436 15.2063 204.365 15.7822 204.365 15.7822C204.365 15.7822 203.482 16.6413 203.411 17.1404C203.339 17.6395 203.749 17.7931 204.265 17.6923Z" fill="#18482B"/>
<path d="M226.735 17.2892C228.776 16.7277 229.158 15.715 229.158 15.715L229.191 15.1535C229.191 15.1535 227.021 16.7708 225.041 16.9004C223.062 17.03 222.585 17.0732 222.585 17.0732C223.923 17.5263 225.358 17.601 226.735 17.2892Z" fill="#18482B"/>
<path d="M178.68 16.4733L170.772 18.3402C170.152 18.5226 169.942 18.0138 170.614 17.9083C170.614 17.9083 174.211 16.8284 175.265 16.6845C175.659 16.6307 176.113 16.4864 176.604 16.3301C177.429 16.068 178.36 15.7719 179.295 15.811C180.788 15.8734 178.68 16.4733 178.68 16.4733Z" fill="#18482B"/>
<path d="M124.649 16.7325C124.713 16.7446 124.78 16.7432 124.844 16.7284C124.908 16.7135 124.968 16.6855 125.021 16.6461C125.226 17.0275 125.377 17.4363 125.469 17.8603C125.617 18.3402 125.784 18.5945 125.946 18.6185C126.108 18.6425 126.366 18.2298 126.561 17.3659C126.757 16.5021 126.905 16.027 127.119 16.0606C127.165 16.0718 127.207 16.0926 127.244 16.1216C127.281 16.1505 127.312 16.187 127.334 16.2285C127.357 16.2696 127.387 16.3056 127.424 16.3345C127.461 16.3633 127.503 16.3844 127.549 16.3965C127.658 16.3965 127.711 16.3965 127.711 16.3245V16.2765H127.658C127.731 16.1898 127.767 16.0778 127.758 15.9646C127.758 15.5662 127.501 15.3311 127 15.2639C126.499 15.1967 126.246 15.4511 126.113 16.0174C126.113 16.0462 126.07 16.4973 125.979 17.3372C125.845 16.9497 125.685 16.5714 125.502 16.2045C125.411 16.0166 125.277 15.8528 125.111 15.7261C124.946 15.5995 124.753 15.5135 124.548 15.4751C124.119 15.4127 123.914 15.571 123.919 15.955C123.915 16.1549 123.989 16.3485 124.126 16.4939C124.262 16.6393 124.45 16.7249 124.649 16.7325Z" fill="#18482B"/>
<path d="M185.55 17.5501C185.342 17.5172 185.112 17.4808 184.699 17.6347C183.888 17.9371 182.667 17.6779 182.548 17.0732C182.429 16.4685 183.688 15.3695 183.688 15.3695C183.664 15.6561 183.537 15.924 183.33 16.123C182.982 16.4013 183.154 16.7709 184.284 16.7709C184.582 16.794 184.88 16.7362 185.148 16.6037C185.415 16.4711 185.643 16.2686 185.806 16.0174C185.806 16.0174 185.553 16.814 186.14 16.7277C186.316 16.6925 186.481 16.6129 186.619 16.4962C186.756 16.3796 186.862 16.2297 186.927 16.0606L187.342 15.715C187.377 15.8921 187.396 16.072 187.399 16.2525C187.158 16.7762 186.748 17.2025 186.235 17.4619C185.931 17.6104 185.75 17.5818 185.55 17.5501Z" fill="#18482B"/>
<path d="M156.954 18.345C157.256 18.3093 157.541 18.1897 157.779 17.9994C157.779 17.9994 157.865 18.3018 158.552 17.9994C159.239 17.6971 159.596 17.2892 159.663 16.9004C159.717 16.7025 159.717 16.4936 159.663 16.2957C159.663 16.2957 159.363 17.1164 158.89 17.1596C158.418 17.2028 158.237 17.03 158.251 16.8572C158.259 16.7526 158.238 16.6478 158.189 16.5549C158.189 16.5549 157.755 17.4187 157.235 17.4187C156.715 17.4187 156.839 17.1164 156.987 16.7708C157.075 16.5506 157.086 16.3074 157.021 16.0798C156.657 16.4788 156.362 16.9362 156.148 17.4331C156.048 17.9131 156.329 18.4746 156.954 18.345Z" fill="#18482B"/>
<path d="M132.748 15.9406L135.18 16.8908L134.307 18.4602L131.865 17.4715L132.748 15.9406Z" fill="#18482B"/>
<path d="M208.848 20.567C208.943 20.4726 209.01 20.3547 209.045 20.2254C209.079 20.0961 209.079 19.9599 209.044 19.8307C209.009 19.7015 208.941 19.5839 208.846 19.4898C208.751 19.3958 208.634 19.3286 208.505 19.2952C208.269 19.2233 207.994 19.1888 207.77 19.1605C207.455 19.121 207.238 19.0937 207.36 18.9929C207.633 18.7818 207.971 18.6747 208.314 18.6905C208.748 18.6905 208.987 18.3018 209.053 17.9131C209.12 17.5243 207.89 17.9994 207.279 18.345C206.669 18.6905 206.058 19.3816 206.712 19.8759C207.125 20.189 207.509 20.1575 207.768 20.1362C207.918 20.1238 208.027 20.1149 208.076 20.1783C208.209 20.3511 208.152 20.567 207.169 20.735C206.342 20.8397 205.507 20.8686 204.675 20.8214C205.245 21.16 205.888 21.3528 206.549 21.3829C206.97 21.4644 207.405 21.4319 207.809 21.2885C208.213 21.1451 208.572 20.8961 208.848 20.567Z" fill="#18482B"/>
<path d="M83.777 16.6413C83.5393 16.8315 83.2535 16.9512 82.9518 16.9868C82.3318 17.1164 82.0456 16.5549 82.141 16.0942C82.353 15.5959 82.6464 15.1368 83.0091 14.736C83.0747 14.9637 83.0629 15.2069 82.9757 15.4271C82.8278 15.7726 82.7038 16.075 83.2237 16.075C83.7436 16.075 84.1777 15.2111 84.1777 15.2111C84.2262 15.304 84.2477 15.4088 84.2397 15.5135C84.2397 15.6718 84.4114 15.8446 84.8883 15.8014C85.3653 15.7582 85.661 14.9376 85.661 14.9376C85.715 15.1355 85.715 15.3444 85.661 15.5423C85.5943 15.931 85.2365 16.3389 84.5497 16.6413C83.8629 16.9436 83.777 16.6413 83.777 16.6413Z" fill="#18482B"/>
<path d="M196.07 16.5357C195.507 16.23 194.964 15.8885 194.444 15.5135C194.158 15.2783 194.244 14.7408 194.244 14.7408C194.244 14.7408 193.662 15.0863 193.156 15.4703C193.041 15.5343 192.946 15.6295 192.882 15.745C192.817 15.8605 192.786 15.9918 192.792 16.124C192.798 16.2563 192.841 16.3842 192.915 16.4934C192.99 16.6026 193.093 16.6888 193.213 16.7421C193.541 16.9468 193.532 16.9999 193.504 17.1749C193.484 17.2952 193.454 17.4732 193.519 17.7979C193.676 18.5946 193.614 23.6577 193.614 23.6577C193.614 23.6577 193.495 23.7873 192.66 23.7873C191.825 23.7873 190.661 23.5713 190.514 23.3074C190.387 23.0818 190.407 23.07 190.859 22.802C190.936 22.7563 191.025 22.7032 191.129 22.6403C191.432 22.4924 191.666 22.2331 191.784 21.916C191.903 21.5989 191.895 21.2482 191.763 20.9366C191.477 20.4566 189.903 20.4566 188.563 20.6342C187.222 20.8118 186.793 22.074 187.132 22.2084C187.243 22.2525 187.401 22.2909 187.569 22.332C187.913 22.416 188.303 22.511 188.434 22.6883L188.442 22.6984L188.448 22.7073L188.462 22.7255C188.637 22.9524 188.643 22.9602 186.145 23.2066C183.516 23.4657 177.182 23.2066 175.565 22.861C174.657 22.6989 173.843 22.1986 173.285 21.4597C173.285 21.4597 173.138 21.2005 172.808 21.5269C172.479 21.8532 172.012 22.6451 172.331 22.9666C172.433 23.0683 172.568 23.1767 172.708 23.2884C173.011 23.5297 173.332 23.7862 173.362 24.0225C173.405 24.368 171.84 25.3806 169.97 26.0717C168.906 26.488 167.74 26.5635 166.632 26.2877C167.075 25.9569 167.496 25.5961 167.891 25.2079C168.368 24.6895 168.687 23.5905 168.077 23.1826C167.466 22.7747 165.692 22.5779 165.692 22.5779C165.692 22.5779 165.721 22.4915 166.107 22.2323C166.493 21.9732 167.39 21.2725 166.412 19.2616C165.434 17.2508 163.102 16.6509 163.102 16.6509C163.102 16.6509 161.747 17.2556 162.215 18.0522C162.504 18.5441 162.961 18.7579 163.419 18.9715C163.702 19.1039 163.985 19.2361 164.228 19.4344C164.862 19.9527 165.63 21.0469 165.248 21.3061C165.033 21.4523 164.358 21.577 163.669 21.7046C163.136 21.8031 162.594 21.9034 162.248 22.0164C161.457 22.2755 160.932 23.6721 160.932 23.6721L161.638 23.7153C162.301 23.7585 165.387 24.104 165.888 24.1952C165.952 24.2069 166.019 24.2163 166.083 24.2254C166.526 24.2876 166.884 24.3379 165.711 25.0159C164.366 25.7934 162.315 26.6764 160.302 26.3741C158.289 26.0717 156.925 24.6703 156.844 24.0225C156.801 23.6777 157.005 23.1562 157.202 22.6533C157.375 22.2112 157.542 21.7835 157.531 21.5029C157.507 20.903 156.935 21.1765 156.754 21.5845C156.719 21.662 156.657 21.7794 156.581 21.9241C156.256 22.5406 155.671 23.652 155.833 24.2816L155.839 24.3043L155.854 24.3655C156.082 25.2694 156.853 28.3313 160.65 28.1642C164.576 27.9914 165.682 26.7244 165.682 26.7244C165.682 26.7244 167.805 28.2985 170.071 27.9098C172.727 27.4539 174.363 24.2864 174.363 24.2864C174.363 24.2864 176.19 25.0831 181.604 24.9775C187.017 24.8719 188.873 23.9841 188.873 23.9841C189.115 24.2557 189.374 24.5106 189.65 24.7471C190.447 25.4814 192.956 25.1983 192.956 25.1983C193.985 24.4815 194.712 23.4057 194.997 22.1796C195.293 20.7878 194.897 17.6779 194.897 17.6779C195.018 17.7608 195.145 17.8331 195.279 17.8939L195.299 17.9039C195.546 18.0241 195.56 18.0307 195.899 17.5915C196.247 17.1404 196.328 16.6653 196.07 16.5357Z" fill="#18482B"/>
<path d="M167.648 30.5398L165.205 29.5463L166.088 28.0202L168.52 28.9656L167.648 30.5398Z" fill="#18482B"/>
<path d="M239.613 16.9244C239.65 16.1756 239.755 15.4317 239.928 14.7024C239.928 14.7024 238.254 14.7888 238.02 16.3629C237.906 17.1267 238.021 18.4904 238.133 19.8241C238.252 21.2393 238.368 22.6208 238.206 23.2162C238.023 23.9718 237.734 24.6974 237.347 25.371C237.347 25.371 239.513 24.3584 239.885 22.3091C240.14 20.9058 239.916 19.3449 239.751 18.1951C239.675 17.6661 239.611 17.2239 239.613 16.9244Z" fill="#18482B"/>
<path d="M151.803 17.2076C151.922 15.3311 153.83 14.7264 153.83 14.7264C153.83 14.7264 153.658 15.5902 153.443 16.8188C153.319 17.5324 153.369 18.2687 153.433 19.1903C153.479 19.8554 153.531 20.6171 153.529 21.5364C153.524 23.7297 151.183 24.8335 151.183 24.8335C151.553 24.067 151.792 23.2426 151.888 22.3955C151.932 21.8289 151.892 21.0806 151.848 20.2547C151.796 19.2899 151.738 18.2184 151.803 17.2076Z" fill="#18482B"/>
<path d="M235.268 15.4175C235.336 15.1939 235.355 14.9582 235.325 14.7264C235.325 14.7264 234.018 15.2063 233.684 15.5902C233.35 15.9742 233.78 16.5501 234.309 16.9484C234.349 16.9784 234.387 17.007 234.424 17.0344C234.874 17.3708 235.074 17.5199 234.748 17.7019C234.395 17.8987 234.218 18.3018 234.462 19.7895C234.705 21.2773 234.8 23.2786 234.571 23.3649C233.876 23.3203 233.217 23.0394 232.702 22.5683C232.556 22.3849 232.499 22.1911 232.45 22.0236C232.371 21.7528 232.312 21.5511 231.929 21.5748C231.682 21.5901 231.462 21.6891 231.089 21.8573C230.525 22.1114 229.611 22.5235 227.722 23.0434C225.035 23.7226 222.243 23.8757 219.499 23.4945C218.999 23.4402 218.516 23.2794 218.083 23.0229C217.65 22.7663 217.276 22.42 216.985 22.0068C216.91 21.8818 216.707 22.1408 216.51 22.3918C216.434 22.4879 216.36 22.5829 216.294 22.6547C216.273 22.6768 216.25 22.7029 216.224 22.732C215.947 23.0438 215.358 23.7068 214.534 23.6673C213.193 23.6049 212.855 22.8706 212.812 20.567C212.821 18.7183 212.926 16.8713 213.127 15.0335C213.127 15.0335 212.173 15.811 212.006 16.4733C211.839 17.1356 211.868 18.3498 211.915 20.3126C211.961 22.1954 211.66 22.3076 210.621 22.6948L210.53 22.7289L210.484 22.7458C209.335 23.1778 205.576 23.8449 204.012 23.1346C202.646 22.5145 202.763 21.3825 202.822 20.8207C202.83 20.739 202.837 20.6693 202.838 20.615C202.841 20.4961 202.85 20.3864 202.858 20.292C202.878 20.0476 202.889 19.9048 202.762 19.9671C202.586 20.0535 201.908 20.6534 201.97 22.4435C202.032 24.2336 203.263 25.323 206.764 25.203C210.265 25.0831 211.739 23.3697 211.739 23.3697C211.739 23.3697 211.629 23.0482 212.321 24.3632C213.012 25.6782 215.13 25.5054 215.578 24.7087C215.755 24.2985 216.064 23.9603 216.456 23.7489C216.456 23.7489 217.844 25.539 222.494 25.1071C227.439 24.6565 229.374 23.6322 230.232 23.1776C230.462 23.0561 230.614 22.9752 230.727 22.957C231.023 22.9092 231.06 23.0394 231.12 23.2531C231.169 23.4253 231.234 23.6519 231.461 23.8833C231.972 24.4016 233.264 24.7039 233.918 24.7039C234.571 24.7039 235.797 23.5809 236.026 22.5251C236.255 21.4693 235.907 18.177 235.907 18.177C236.136 18.1386 236.358 18.0658 236.565 17.961C237.075 17.7451 237.195 17.0012 237.195 17.0012C237.195 17.0012 236.718 16.6125 236.174 16.2237C236.049 16.1344 235.928 16.0527 235.817 15.9777C235.444 15.7264 235.183 15.5505 235.268 15.4175Z" fill="#18482B"/>
<path d="M225.876 28.1546L223.434 27.1611L224.316 25.6302L226.749 26.5804L225.876 28.1546Z" fill="#18482B"/>
<path d="M102.298 17.4619C102.279 18.0943 102.312 18.8594 102.346 19.6466C102.415 21.2494 102.487 22.944 102.136 23.7969C101.611 25.0687 101.463 25.5438 101.463 25.5438C102.056 25.1084 102.553 24.5539 102.923 23.9154C103.292 23.2768 103.526 22.5681 103.609 21.834C103.777 20.3492 103.745 19.0767 103.721 18.1127C103.705 17.4564 103.692 16.943 103.748 16.6029C103.827 15.9806 103.865 15.3537 103.862 14.7264C103.396 15.016 103.01 15.4177 102.736 15.8952C102.463 16.3728 102.313 16.9112 102.298 17.4619Z" fill="#18482B"/>
<path d="M98.7968 14.7264C98.7968 14.7264 98.3819 15.3311 99.8414 16.2381C100.412 16.5905 100.962 16.9767 101.487 17.3947C101.399 17.8346 101.195 18.2425 100.895 18.5753C100.785 18.6707 100.641 18.7193 100.496 18.7113C100.35 18.7033 100.213 18.6391 100.113 18.5321C100.175 19.5164 100.148 20.5043 100.032 21.4837C99.8366 23.2114 99.5647 24.2864 96.0781 24.9775C93.1273 25.5111 90.1043 25.4965 87.1587 24.9343C85.661 24.5695 85.537 22.8418 85.537 22.8418C85.3929 23.2975 85.1312 23.7066 84.7786 24.0272C84.2206 24.5024 82.1744 24.5887 81.1346 24.416C80.0948 24.2432 80.0614 23.4897 80.1806 23.101C80.2999 22.7123 80.9104 21.762 80.9438 21.9348C80.9507 21.9705 80.9517 22.0082 80.9527 22.0472C80.9566 22.197 80.9611 22.3682 81.3015 22.5395C82.3731 22.8469 83.4999 22.906 84.5974 22.7123C84.9146 22.6696 85.2049 22.5101 85.412 22.2645C85.619 22.0189 85.7282 21.7048 85.7183 21.3829C85.7183 21.179 85.6663 20.8656 85.6127 20.5419C85.5362 20.0808 85.4563 19.5987 85.5179 19.3816C85.6229 19.0121 86.4719 18.3018 86.4719 18.3018C86.579 18.7118 86.6462 19.1313 86.6722 19.5544C86.6983 19.9332 86.6688 20.3349 86.64 20.7279C86.6001 21.2707 86.5615 21.7968 86.6722 22.2227C86.863 22.957 87.8933 23.4081 90.2304 23.6241C92.7386 23.739 95.2519 23.6023 97.7332 23.2162C98.5249 23.0242 98.854 22.8274 98.6871 21.618C98.6009 20.4845 98.6409 19.3448 98.8064 18.2202C98.8515 17.6905 98.7695 17.6667 98.5843 17.613C98.4758 17.5815 98.332 17.5398 98.1577 17.3803C98.0577 17.2889 97.962 17.213 97.8748 17.1437C97.5499 16.8858 97.342 16.7208 97.4661 16.1949C97.6235 15.5278 98.7968 14.7264 98.7968 14.7264Z" fill="#18482B"/>
<path fill-rule="evenodd" clip-rule="evenodd" d="M150.868 17.2028C150.753 17.0112 150.588 16.8551 150.391 16.7517C150.137 16.5834 149.551 16.3242 149.069 16.1106C148.808 15.995 148.577 15.8928 148.445 15.8254C148.068 15.6334 148.368 14.7024 148.368 14.7024C147.9 14.9661 147.468 15.2886 147.081 15.6622C146.771 16.051 146.699 16.4157 147.233 16.934C147.459 17.1535 147.658 17.2956 147.808 17.4028C148.013 17.5487 148.127 17.6302 148.097 17.7547C148.044 17.9707 147.734 19.0457 147.734 19.0457C147.412 18.8432 147.12 18.596 146.866 18.3114C145.769 17.3684 144.527 16.6114 143.189 16.0702C141.471 15.3167 140.56 15.1103 139.974 16.0702C139.387 17.03 140.384 17.4283 141.605 17.7307C141.973 17.8219 142.188 17.8384 142.363 17.8519C142.77 17.8832 142.966 17.8983 144.371 18.7865C145.618 19.5916 146.699 20.6293 147.558 21.8436C147.558 21.8436 146.918 22.2755 146.17 22.7507C145.909 22.9157 145.692 23.1092 145.505 23.2751C145.155 23.5867 144.914 23.801 144.705 23.5473C144.491 23.203 144.365 22.8106 144.338 22.4051C144.186 22.6235 144.054 22.8547 143.942 23.0962C143.897 23.1913 143.844 23.2831 143.791 23.3754C143.603 23.7022 143.412 24.0345 143.546 24.536C143.718 25.1791 144.61 25.4958 145.736 25.4622C146.861 25.4286 148.597 25.2462 148.86 25.0111C149.375 24.2655 149.68 23.393 149.742 22.4867C149.742 21.9596 149.466 21.722 149.24 21.5274C149.054 21.3677 148.902 21.237 148.965 20.999C149.058 19.9973 149.09 18.9907 149.06 17.9851L149.709 18.3306L150.868 17.2028ZM147.806 23.7537C147.381 23.7969 146.246 23.7969 146.246 23.7969C146.246 23.7969 146.246 23.7537 146.723 23.4945C147.151 23.2192 147.548 22.8973 147.906 22.5347C148.116 22.7608 148.269 23.0338 148.354 23.3314C148.424 23.6961 148.266 23.7108 147.909 23.7438C147.876 23.7468 147.842 23.7501 147.806 23.7537Z" fill="#18482B"/>
<path fill-rule="evenodd" clip-rule="evenodd" d="M115.076 24.488C115.753 24.7471 115.839 25.0687 115.386 26.3213C114.933 27.5739 111.832 28.5097 109.009 28.5529C106.185 28.5961 104.544 26.5036 104.716 24.6703C104.888 22.837 106.476 21.2197 106.476 21.2197C106.549 21.4683 106.533 21.7345 106.433 21.9732C106.056 22.6433 105.822 23.3855 105.746 24.152C105.637 25.2942 106.443 25.9853 108.723 26.6332C111.003 27.2811 114.289 26.0717 114.289 26.0717C114.289 26.0717 114.327 25.8461 112.901 25.5054C111.724 25.2912 110.527 25.2187 109.333 25.2894L109.548 23.8017C109.548 23.8017 109.419 23.7153 110.196 23.413C110.974 23.1106 113.359 22.3139 113.359 22.3139C113.346 21.6267 113.553 20.9537 113.95 20.3943C114.642 19.252 116.273 17.9563 116.55 18.129C117.204 18.719 117.634 19.5199 117.766 20.3943C117.79 21.3637 117.79 21.7476 117.79 21.7476C118.31 21.8621 118.835 21.9486 119.364 22.0068C119.525 22.0186 119.673 22.04 119.803 22.0587C120.15 22.1089 120.368 22.1403 120.361 21.9204C120.353 21.6791 120.008 21.285 119.707 20.9405C119.631 20.8533 119.557 20.7693 119.493 20.6918C119.376 20.5523 119.23 20.4521 119.096 20.3604C118.861 20.1995 118.664 20.0646 118.734 19.7896C118.993 19.2994 119.33 18.8552 119.731 18.4746C119.731 18.4746 120.094 18.8201 120.48 19.2088C120.866 19.5976 121.806 20.9222 121.911 21.7044C122.016 22.4867 121.539 23.7969 120.633 23.9265C119.989 24.0185 118.925 23.8057 118.115 23.6436C117.783 23.5774 117.494 23.5196 117.294 23.4945C116.514 23.332 115.708 23.3617 114.942 23.5809C114.346 23.7682 113.729 23.8842 113.106 23.9265C113.106 23.9265 114.399 24.2288 115.076 24.488ZM115.539 20.1608C115.488 20.2553 115.426 20.3708 115.324 20.4806C115.142 20.6961 114.999 20.9412 114.899 21.2053C115.244 21.4018 115.629 21.5136 116.025 21.5317C116.123 21.5317 116.214 21.534 116.296 21.5361C116.705 21.5465 116.915 21.5518 116.812 21.2485C116.595 20.7637 116.268 20.3365 115.858 20.0007C115.682 19.8937 115.628 19.995 115.539 20.1608Z" fill="#18482B"/>
<path d="M118.338 28.5769C118.243 28.6855 118.132 28.7793 118.009 28.8552C118.009 28.8552 117.332 28.4905 116.731 28.145C116.45 28.0082 116.199 27.8174 115.992 27.5834L114.895 28.9848C115.438 29.3885 116.003 29.7618 116.588 30.103C116.868 30.2716 117.17 30.4023 117.485 30.4918L118.543 29.3736L120.332 30.2326L121.644 29.028L119.259 27.713C119.259 27.713 118.539 28.3609 118.338 28.5769Z" fill="#18482B"/>
<path fill-rule="evenodd" clip-rule="evenodd" d="M137.646 17.913C138.238 17.4619 139.416 18.1674 139.94 18.6473C140.002 18.7025 140.074 18.7632 140.153 18.8299C140.755 19.3378 141.768 20.193 141.7 21.5844C141.624 23.1586 141.343 24.2816 139.435 24.6703C136.49 25.1014 133.515 25.2956 130.539 25.251C129.145 25.1527 127.767 24.9 126.428 24.4976C126.424 24.7161 126.366 24.9304 126.261 25.1215C125.876 25.9593 125.216 26.6375 124.391 27.0411C123.151 27.6218 120.923 27.6026 119.211 26.8684C117.499 26.1341 117.442 25.251 117.442 25.251C117.442 25.251 118.138 25.8557 120.046 26.0717C121.447 26.1887 122.852 25.9165 124.11 25.2846C124.208 25.244 124.306 25.2061 124.399 25.1696C125.002 24.9348 125.456 24.758 125.216 24.272C124.84 23.6177 124.379 23.0159 123.847 22.4819C123.82 22.1698 123.916 21.8594 124.114 21.618L124.12 21.6105C124.46 21.1447 124.664 20.8655 124.844 21.0373C124.911 21.1007 125.051 21.2771 125.222 21.4921C125.517 21.8633 125.904 22.3495 126.161 22.5683L126.165 22.5724C126.568 22.9155 126.821 23.1312 130.983 23.4945C133.969 23.6845 136.967 23.4486 139.888 22.7938L139.925 22.7835C140.356 22.6619 140.529 22.6129 140.441 22.1459C140.345 21.798 140.183 21.4721 139.964 21.1861C139.896 21.3006 139.82 21.4097 139.735 21.5124C139.409 21.936 138.987 22.275 138.505 22.5011C137.985 22.6739 136.43 22.3475 136.358 21.2725C136.287 20.1975 137.055 18.3642 137.646 17.913ZM137.904 19.468C137.374 19.3384 137.288 20.5238 137.98 20.8214C138.333 20.9797 139.225 20.6486 139.125 20.3942C138.843 19.947 138.409 19.6178 137.904 19.468Z" fill="#18482B"/>
<path d="M234.147 41.133C234.19 40.5021 234.223 39.766 234.242 38.9248C234.261 38.0836 234.276 37.1172 234.276 36.0257C234.276 35.1093 234.276 34.3132 234.242 33.6472C234.209 32.9813 234.195 32.3754 234.147 31.8296L234.625 31.8697H235.676L236.154 31.8296C236.115 32.1801 236.087 32.5657 236.063 32.9863C236.039 33.4069 236.063 33.9477 236.063 34.6136V37.9885C236.639 37.4343 237.136 36.9336 237.554 36.4863C237.92 36.0787 238.263 35.649 238.581 35.1995C238.676 35.2167 238.771 35.2284 238.868 35.2345C238.966 35.2345 239.071 35.2345 239.183 35.2345C239.283 35.24 239.384 35.24 239.484 35.2345C239.572 35.2287 239.66 35.217 239.747 35.1995L237.577 37.4727L240 41.143C239.809 41.143 239.627 41.1079 239.451 41.1029C239.274 41.0979 239.111 41.1029 238.944 41.1029C238.777 41.1029 238.619 41.1029 238.442 41.1029C238.266 41.1029 238.079 41.1029 237.878 41.138C237.63 40.6773 237.353 40.2066 237.042 39.731C236.732 39.2553 236.402 38.7295 236.029 38.2288V38.8547C236.029 39.4422 236.029 39.9129 236.029 40.2667C236.029 40.6222 236.058 40.9127 236.077 41.138C235.905 41.138 235.733 41.1029 235.571 41.0979C235.408 41.0929 235.255 41.0979 235.093 41.0979C234.93 41.0979 234.797 41.0979 234.639 41.0979L234.147 41.133ZM63.566 40.3569C63.3801 40.6521 63.1229 40.8905 62.8206 41.0479C62.4978 41.2122 62.1426 41.2946 61.7837 41.2882C61.3085 41.3168 60.8411 41.1517 60.4793 40.8275C60.3194 40.6643 60.1942 40.4675 60.1119 40.2501C60.0295 40.0326 59.9919 39.7994 60.0015 39.5657C59.99 39.209 60.1097 38.8612 60.3359 38.5943C60.6278 38.2994 60.9887 38.0904 61.3823 37.9885L62.0513 37.7882C62.5394 37.673 63.0115 37.493 63.4561 37.2524V37.0421C63.4634 36.876 63.437 36.7102 63.3785 36.5557C63.32 36.4012 63.2308 36.2614 63.1168 36.1458C62.8668 35.9154 62.5416 35.7952 62.209 35.8103C61.9234 35.808 61.6432 35.8914 61.4015 36.0507C61.1316 36.2378 60.9034 36.4838 60.7325 36.7717L60.5748 36.301L60.4458 35.9756C60.7952 35.6794 61.185 35.4397 61.6021 35.2646C61.9795 35.1087 62.3815 35.0289 62.7871 35.0292C63.4269 34.9824 64.0636 35.1585 64.5981 35.5299C64.8089 35.7039 64.9767 35.9284 65.0874 36.1847C65.198 36.4409 65.2481 36.7212 65.2336 37.0021L65.1953 39.2252V39.4656C65.1583 39.8007 65.2199 40.1397 65.3721 40.437C65.4669 40.5214 65.5775 40.5842 65.6968 40.6213C65.8161 40.6584 65.9415 40.6689 66.065 40.6523L66.1032 40.9627C65.8786 41.0504 65.6466 41.1158 65.4104 41.158C65.1839 41.2065 64.9534 41.2316 64.7223 41.2331C64.4465 41.2456 64.174 41.1668 63.9434 41.0078C63.7495 40.8439 63.6175 40.6133 63.5708 40.3569H63.566ZM63.5039 37.8533C63.0306 37.913 62.5789 38.0954 62.1899 38.384C62.0532 38.507 61.9455 38.6613 61.875 38.835C61.8046 39.0087 61.7733 39.1971 61.7837 39.3855C61.7659 39.669 61.8382 39.9507 61.9892 40.1866C62.0647 40.2772 62.1592 40.3483 62.2653 40.3944C62.3714 40.4404 62.4862 40.4601 62.6008 40.452C62.7264 40.4593 62.8519 40.4366 62.9679 40.3854C63.0838 40.3342 63.187 40.2559 63.2697 40.1566C63.4407 39.9085 63.5235 39.6056 63.5039 39.3004V37.8533ZM67.0732 41.133C67.1018 40.7274 67.1209 40.2768 67.1353 39.786C67.1496 39.2953 67.1353 38.7496 67.1639 38.1587C67.1639 37.4177 67.1639 36.8218 67.1353 36.3762C67.1066 35.9305 67.0732 35.5349 67.0732 35.1995C67.2069 35.1995 67.3503 35.2295 67.5032 35.2345C67.6561 35.2395 67.8138 35.2345 67.981 35.2345C68.1482 35.2345 68.3107 35.2345 68.4588 35.2345C68.6069 35.2345 68.7503 35.2345 68.8793 35.1995L68.8315 36.1508C68.8315 36.4012 68.8315 36.6115 68.8315 36.7867C68.997 36.2901 69.2778 35.8444 69.6486 35.4899C70.0104 35.1889 70.4627 35.0327 70.9244 35.0492C70.9506 35.1965 70.9506 35.3476 70.9244 35.4949C70.9244 35.6451 70.9244 35.7953 70.9244 35.9455C70.9244 36.0957 70.9244 36.251 70.9244 36.4112C70.9244 36.5714 70.9578 36.7166 70.9865 36.8719C70.8294 36.8185 70.67 36.7734 70.5087 36.7367C70.3862 36.7085 70.2613 36.6934 70.136 36.6916C69.9563 36.6724 69.7749 36.7004 69.6081 36.7729C69.4412 36.8455 69.2943 36.9603 69.1803 37.1072C68.9582 37.516 68.8583 37.9852 68.8936 38.4541C68.8936 38.9549 68.8936 39.3955 68.9175 39.8461C68.9414 40.2968 68.9701 40.7324 69.0083 41.143C68.8315 41.143 68.6643 41.1079 68.5018 41.1029C68.3394 41.0979 68.1865 41.1029 68.024 41.1029C67.8616 41.1029 67.723 41.1029 67.5462 41.1029L67.0732 41.133ZM75.3298 40.3569C75.1465 40.6544 74.8886 40.8934 74.5844 41.0479C74.2634 41.2124 73.9097 41.2947 73.5524 41.2882C73.0768 41.3189 72.6087 41.1536 72.2479 40.8275C72.088 40.6643 71.9628 40.4675 71.8805 40.2501C71.7982 40.0326 71.7605 39.7994 71.7701 39.5657C71.7566 39.2086 71.8766 38.8601 72.1046 38.5943C72.395 38.2974 72.7565 38.0881 73.151 37.9885L73.8199 37.7882C74.3078 37.6721 74.7798 37.4921 75.2247 37.2524V37.0421C75.2324 36.8756 75.2057 36.7092 75.1463 36.5545C75.0869 36.3998 74.9963 36.2604 74.8807 36.1458C74.6329 35.9148 74.3089 35.7944 73.9776 35.8103C73.692 35.8075 73.4116 35.8909 73.1701 36.0507C72.8992 36.2365 72.6707 36.4827 72.5012 36.7717L72.3387 36.301L72.2097 35.9756C72.5598 35.6804 72.9494 35.4409 73.366 35.2646C73.7451 35.1091 74.1487 35.0293 74.5558 35.0292C75.1956 34.9824 75.8322 35.1585 76.3667 35.5299C76.5776 35.7039 76.7454 35.9284 76.856 36.1847C76.9666 36.4409 77.0167 36.7212 77.0022 37.0021L76.964 39.2252V39.4656C76.9287 39.8001 76.9886 40.138 77.136 40.437C77.2311 40.5209 77.3417 40.5834 77.461 40.6204C77.5802 40.6575 77.7054 40.6683 77.8288 40.6523L77.867 40.9627C77.6427 41.0512 77.4106 41.1166 77.1742 41.158C76.9478 41.2067 76.7173 41.2319 76.4862 41.2331C76.2119 41.2456 75.9409 41.1667 75.7121 41.0078C75.5117 40.8466 75.3728 40.6158 75.3203 40.3569H75.3298ZM75.2725 37.8533C74.798 37.9142 74.3451 38.0965 73.9537 38.384C73.8188 38.5082 73.7125 38.6628 73.643 38.8363C73.5735 39.0098 73.5425 39.1976 73.5524 39.3855C73.5289 39.6765 73.6032 39.967 73.7626 40.2066C73.8379 40.2976 73.9324 40.3689 74.0385 40.4149C74.1447 40.461 74.2596 40.4805 74.3742 40.472C74.4991 40.4794 74.6239 40.4565 74.7391 40.4053C74.8542 40.3541 74.9566 40.2758 75.0384 40.1766C75.211 39.9292 75.2955 39.6263 75.2773 39.3204L75.2725 37.8533ZM81.9906 35.7703C81.7896 35.7554 81.5889 35.8024 81.4131 35.9056C81.2374 36.0088 81.0943 36.1637 81.0015 36.3511C80.7632 36.9737 80.662 37.6446 80.7053 38.3139C80.6637 38.934 80.7585 39.5559 80.9824 40.1315C81.0734 40.2985 81.2082 40.4344 81.3709 40.5232C81.5336 40.612 81.7172 40.6499 81.8998 40.6323C82.1039 40.6473 82.3077 40.5994 82.486 40.4944C82.6643 40.3894 82.8094 40.2319 82.9032 40.0414C83.1452 39.397 83.248 38.7045 83.2043 38.0135C83.2442 37.4125 83.1476 36.8102 82.9223 36.256C82.8223 36.0943 82.6812 35.9651 82.5149 35.8829C82.3486 35.8006 82.1637 35.7686 81.981 35.7903L81.9906 35.7703ZM78.8896 41.118C78.9374 40.5772 78.9708 39.9413 78.9899 39.2152C79.009 38.4892 79.0234 37.5679 79.0234 36.4663C79.0234 35.3647 79.0234 34.4634 78.9899 33.7173C78.9565 32.9713 78.9374 32.3504 78.8896 31.8096C79.1046 31.8447 79.2909 31.8647 79.4391 31.8797H80.3135L80.8486 31.8096L80.7961 32.8611C80.7961 33.1766 80.7961 33.477 80.7961 33.7724V35.7753C81.0151 35.5236 81.2843 35.3253 81.5845 35.1945C81.9136 35.0626 82.2643 34.9996 82.6166 35.0092C82.9581 34.9937 83.2988 35.0564 83.6149 35.1931C83.931 35.3297 84.2148 35.5369 84.4466 35.8003C84.9224 36.3976 85.1648 37.1615 85.1251 37.9384C85.1453 38.3875 85.0806 38.8364 84.9346 39.2592C84.7886 39.682 84.5643 40.0703 84.2746 40.4019C83.9975 40.7046 83.6619 40.9416 83.2902 41.097C82.9185 41.2525 82.5194 41.3228 82.1196 41.3032C81.7674 41.3087 81.4179 41.2389 81.0923 41.0979C80.77 40.9408 80.4808 40.7178 80.2418 40.442C80.0298 40.5363 79.8239 40.645 79.6254 40.7675C79.4411 40.8787 79.2639 41.0025 79.095 41.138L78.8896 41.118ZM93.3531 40.3569C93.1698 40.6544 92.9119 40.8934 92.6077 41.0479C92.2867 41.2124 91.9329 41.2947 91.5756 41.2882C91.1001 41.3189 90.632 41.1536 90.2712 40.8275C90.1103 40.6651 89.9845 40.4684 89.902 40.2508C89.8196 40.0332 89.7826 39.7996 89.7934 39.5657C89.7799 39.2086 89.8999 38.8601 90.1278 38.5943C90.4183 38.2974 90.7798 38.0881 91.1743 37.9885L91.8432 37.7882C92.3311 37.6721 92.803 37.4921 93.248 37.2524V37.0421C93.2557 36.8756 93.2289 36.7092 93.1695 36.5545C93.1102 36.3998 93.0196 36.2604 92.904 36.1458C92.6562 35.9148 92.3321 35.7944 92.0009 35.8103C91.7153 35.8075 91.4349 35.8909 91.1934 36.0507C90.9224 36.2365 90.694 36.4827 90.5244 36.7717L90.362 36.301L90.233 35.9756C90.583 35.6804 90.9727 35.4409 91.3893 35.2646C91.7684 35.1091 92.1719 35.0293 92.579 35.0292C93.2188 34.9824 93.8555 35.1585 94.39 35.5299C94.6008 35.7039 94.7687 35.9284 94.8793 36.1847C94.9899 36.4409 95.04 36.7212 95.0255 37.0021L94.9872 39.2252V39.4656C94.952 39.8001 95.0118 40.138 95.1593 40.437C95.2544 40.5209 95.365 40.5834 95.4842 40.6204C95.6034 40.6575 95.7287 40.6683 95.8521 40.6523L95.8903 40.9627C95.666 41.0512 95.4339 41.1166 95.1975 41.158C94.9711 41.2067 94.7406 41.2319 94.5094 41.2331C94.2352 41.2456 93.9642 41.1667 93.7354 41.0078C93.5385 40.845 93.4031 40.6144 93.3531 40.3569ZM93.2958 37.8533C92.8213 37.9142 92.3684 38.0965 91.977 38.384C91.8421 38.5082 91.7358 38.6628 91.6663 38.8363C91.5967 39.0098 91.5657 39.1976 91.5756 39.3855C91.5552 39.6692 91.6277 39.9518 91.7811 40.1866C91.8557 40.2771 91.9493 40.3482 92.0546 40.3943C92.16 40.4403 92.2741 40.4601 92.3879 40.452C92.5136 40.4601 92.6394 40.4377 92.7554 40.3864C92.8714 40.3352 92.9746 40.2565 93.0569 40.1566C93.2295 39.9092 93.314 39.6062 93.2958 39.3004V37.8533ZM98.7668 35.2946H99.5552L100.033 35.2646V35.9005H98.7859C98.7859 36.7767 98.762 37.3726 98.762 37.7581C98.762 38.379 98.762 38.9749 98.7859 39.5357C98.8098 40.0965 98.8384 40.6273 98.8767 41.133C98.7047 41.133 98.5374 41.0979 98.3989 41.0929C98.2603 41.0879 98.093 41.0929 97.9497 41.0929C97.8064 41.0929 97.6439 41.0929 97.4719 41.0929C97.2999 41.0929 97.1517 41.0929 96.9941 41.133C97.0323 40.6222 97.061 40.0865 97.0801 39.5257C97.0801 38.9649 97.1135 38.379 97.1135 37.7681C97.1135 37.3876 97.104 36.7917 97.0849 35.9806L96.8937 35.9055H96.1818L96.2057 35.7553C96.2104 35.702 96.2104 35.6483 96.2057 35.595C96.2099 35.5434 96.2099 35.4915 96.2057 35.4398L96.1818 35.2696L96.5258 35.2996H97.0753C97.0753 34.8993 97.1383 34.5018 97.2616 34.1229C97.3904 33.7199 97.5773 33.34 97.8159 32.9963C98.0451 32.6377 98.3409 32.3312 98.6855 32.095C98.9924 31.9062 99.3427 31.8092 99.6985 31.8146C99.8395 31.8162 99.9801 31.8296 100.119 31.8547C100.271 31.8751 100.421 31.9086 100.568 31.9548C100.516 32.1952 100.468 32.4555 100.42 32.7059L100.291 33.5271C100.106 33.3852 99.9036 33.2707 99.689 33.1866C99.5081 33.1108 99.3151 33.0717 99.1204 33.0714C98.9182 33.0617 98.7191 33.1254 98.5565 33.2517C98.4891 33.3031 98.4346 33.3711 98.398 33.4496C98.3613 33.5282 98.3436 33.6149 98.3463 33.7023C98.3728 33.955 98.4323 34.2027 98.5231 34.4384C98.6091 34.8089 98.6951 35.0993 98.7477 35.3146L98.7668 35.2946ZM100.998 41.133C101.027 40.7274 101.046 40.2768 101.06 39.786C101.075 39.2953 101.089 38.7496 101.089 38.1587C101.089 37.4177 101.089 36.8218 101.06 36.3762C101.032 35.9305 100.998 35.5349 100.998 35.1995C101.132 35.1995 101.275 35.2295 101.428 35.2345C101.581 35.2395 101.739 35.2345 101.906 35.2345C102.073 35.2345 102.236 35.2345 102.384 35.2345C102.532 35.2345 102.675 35.2345 102.804 35.1995L102.757 36.1508C102.757 36.4012 102.757 36.6115 102.757 36.7867C102.922 36.2901 103.203 35.8444 103.574 35.4899C103.935 35.1889 104.388 35.0327 104.849 35.0492C104.873 35.1967 104.873 35.3474 104.849 35.4949C104.849 35.6451 104.849 35.7953 104.849 35.9455C104.849 36.0957 104.849 36.251 104.849 36.4112C104.859 36.5659 104.878 36.7198 104.907 36.8719C104.75 36.8185 104.59 36.7734 104.429 36.7367C104.306 36.7085 104.182 36.6934 104.056 36.6916C103.877 36.6724 103.695 36.7004 103.528 36.7729C103.361 36.8455 103.215 36.9603 103.101 37.1072C102.878 37.516 102.779 37.9852 102.814 38.4541C102.814 38.9549 102.814 39.3955 102.814 39.8461C102.814 40.2968 102.909 40.7074 102.909 41.138C102.733 41.138 102.565 41.1029 102.403 41.0979C102.241 41.0929 102.088 41.0979 101.925 41.0979C101.763 41.0979 101.624 41.0979 101.447 41.0979L100.998 41.133ZM106.116 41.133C106.144 40.5021 106.168 39.9513 106.178 39.4856C106.187 39.0199 106.178 38.5793 106.178 38.1687C106.178 37.7581 106.178 37.2274 106.178 36.7417C106.178 36.256 106.144 35.7402 106.12 35.1995L106.598 35.2295H107.578L108.056 35.1995C108.027 35.7402 108.003 36.251 107.984 36.7417C107.965 37.2324 107.984 37.7031 107.984 38.1687C107.984 38.6344 107.984 39.0149 107.984 39.4856C107.984 39.9563 108.027 40.487 108.056 41.133C107.888 41.133 107.721 41.0979 107.578 41.0929C107.434 41.0879 107.262 41.0929 107.1 41.0929C106.937 41.0929 106.785 41.0929 106.622 41.0929C106.46 41.0929 106.254 41.118 106.101 41.138L106.116 41.133ZM106.116 32.9663C106.114 32.84 106.138 32.7148 106.188 32.5996C106.237 32.4845 106.311 32.3823 106.402 32.3003C106.598 32.115 106.855 32.0163 107.119 32.0249C107.376 32.02 107.625 32.1206 107.812 32.3053C107.903 32.3867 107.976 32.4882 108.025 32.6024C108.075 32.7166 108.1 32.8408 108.099 32.9663C108.1 33.0925 108.075 33.2174 108.025 33.3325C107.976 33.4475 107.903 33.5498 107.812 33.6322C107.611 33.8091 107.357 33.9061 107.095 33.9061C106.833 33.9061 106.579 33.8091 106.378 33.6322C106.287 33.5509 106.213 33.4497 106.161 33.3356C106.11 33.2216 106.083 33.0973 106.082 32.9713L106.116 32.9663ZM114.716 39.9763V40.477L114.683 40.7324C114.384 40.9159 114.063 41.0541 113.727 41.143C113.38 41.2398 113.021 41.2869 112.662 41.2832C111.772 41.3333 110.895 41.0373 110.201 40.452C109.896 40.1737 109.654 39.8273 109.494 39.4382C109.333 39.0491 109.258 38.6273 109.274 38.2038C109.261 37.7727 109.34 37.344 109.506 36.949C109.671 36.554 109.918 36.2026 110.23 35.9205C110.913 35.3167 111.788 35.0056 112.681 35.0492C113.091 35.0527 113.5 35.103 113.899 35.1995C114.251 35.2807 114.589 35.421 114.898 35.6151C114.759 35.9055 114.654 36.1458 114.573 36.3361C114.492 36.5264 114.434 36.6916 114.382 36.8368L114.21 36.7617C114.125 36.4237 113.944 36.1212 113.689 35.8955C113.429 35.6974 113.112 35.5968 112.791 35.6101C112.552 35.6017 112.316 35.657 112.103 35.7709C111.891 35.8848 111.71 36.0534 111.577 36.261C111.254 36.7917 111.099 37.4153 111.133 38.0435C111.087 38.7032 111.255 39.3597 111.611 39.9062C111.784 40.124 112.005 40.296 112.254 40.4082C112.503 40.5204 112.773 40.5697 113.044 40.5521C113.325 40.5515 113.604 40.5025 113.871 40.4069C114.157 40.3071 114.426 40.1601 114.669 39.9713L114.716 39.9763ZM119.198 40.3619C119.015 40.6594 118.757 40.8985 118.453 41.0529C118.132 41.2168 117.778 41.2992 117.421 41.2932C116.945 41.3239 116.477 41.1586 116.116 40.8325C115.955 40.6701 115.83 40.4734 115.747 40.2558C115.665 40.0382 115.628 39.8046 115.639 39.5707C115.625 39.2136 115.745 38.8651 115.973 38.5993C116.263 38.3024 116.625 38.0931 117.019 37.9935L117.684 37.7932C118.173 37.6778 118.647 37.4978 119.093 37.2574V37.0471C119.101 36.8806 119.074 36.7142 119.015 36.5595C118.955 36.4048 118.865 36.2654 118.749 36.1508C118.501 35.9198 118.177 35.7994 117.846 35.8153C117.559 35.8124 117.277 35.8958 117.034 36.0557C116.765 36.2432 116.539 36.4891 116.37 36.7767L116.207 36.3061L116.078 35.9806C116.428 35.6855 116.818 35.4459 117.234 35.2696C117.614 35.1142 118.017 35.0343 118.424 35.0342C119.064 34.9874 119.701 35.1635 120.235 35.5349C120.445 35.7097 120.612 35.9344 120.723 36.1905C120.833 36.4465 120.884 36.7264 120.871 37.0071L120.832 39.2302V39.4706C120.797 39.8051 120.857 40.143 121.004 40.442C121.1 40.5259 121.21 40.5884 121.329 40.6254C121.449 40.6625 121.574 40.6733 121.697 40.6573L121.735 40.9677C121.511 41.0562 121.279 41.1216 121.043 41.163C120.816 41.2118 120.586 41.2369 120.355 41.2381C120.08 41.2506 119.809 41.1717 119.58 41.0128C119.367 40.8564 119.215 40.6229 119.155 40.3569L119.198 40.3619ZM119.141 37.8583C118.666 37.9192 118.214 38.1015 117.822 38.389C117.687 38.5132 117.581 38.6678 117.511 38.8413C117.442 39.0148 117.411 39.2026 117.421 39.3905C117.4 39.6742 117.473 39.9568 117.626 40.1916C117.701 40.2821 117.794 40.3532 117.9 40.3993C118.005 40.4454 118.119 40.4651 118.233 40.457C118.359 40.4651 118.485 40.4427 118.601 40.3914C118.717 40.3402 118.82 40.2615 118.902 40.1616C119.075 39.9142 119.159 39.6112 119.141 39.3054V37.8583ZM122.691 41.123C122.725 40.5722 122.753 40.0564 122.768 39.5657C122.782 39.075 122.796 38.6094 122.796 38.1587C122.796 37.7081 122.796 37.1573 122.768 36.6566C122.739 36.1558 122.725 35.6551 122.691 35.1544C122.83 35.1544 122.968 35.1844 123.116 35.1895C123.264 35.1945 123.427 35.1895 123.594 35.1895C123.761 35.1895 123.919 35.1895 124.072 35.1895C124.225 35.1895 124.354 35.1895 124.483 35.1544V36.0206C124.727 35.7039 125.035 35.4489 125.386 35.2746C125.739 35.1106 126.122 35.0286 126.509 35.0342C126.81 35.0294 127.11 35.082 127.393 35.1895C127.647 35.284 127.878 35.4381 128.067 35.6401C128.216 35.8094 128.322 36.0164 128.372 36.241C128.453 36.639 128.485 37.0462 128.468 37.4527V38.9999C128.468 39.3905 128.468 39.756 128.468 40.0965C128.468 40.437 128.506 40.7775 128.54 41.0979C128.353 41.0979 128.181 41.0629 128.019 41.0579C127.856 41.0529 127.703 41.0579 127.541 41.0579C127.378 41.0579 127.235 41.0579 127.063 41.0579C126.891 41.0579 126.738 41.0579 126.557 41.0979C126.585 40.7641 126.609 40.3435 126.628 39.8361C126.628 39.3354 126.657 38.8046 126.657 38.2088C126.707 37.6189 126.629 37.0248 126.428 36.4713C126.338 36.3331 126.214 36.2232 126.069 36.1535C125.924 36.0838 125.764 36.0569 125.606 36.0757C125.435 36.0628 125.265 36.0994 125.113 36.1816C124.961 36.2637 124.834 36.3883 124.746 36.5414C124.539 37.0375 124.451 37.5788 124.488 38.1187C124.488 38.4642 124.488 38.8848 124.488 39.3855L124.54 41.0979C124.378 41.0979 124.215 41.0629 124.062 41.0579C123.91 41.0529 123.752 41.0579 123.585 41.0579C123.417 41.0579 123.288 41.0579 123.107 41.0579C122.925 41.0579 122.82 41.118 122.643 41.138L122.691 41.123ZM133.934 41.123C133.968 40.4921 133.987 39.9413 134.001 39.4756C134.015 39.0099 134.001 38.5693 134.001 38.1587C134.001 37.7481 134.001 37.2174 133.977 36.7317C133.953 36.246 133.944 35.7302 133.915 35.1895L134.393 35.2195H135.372L135.85 35.1895C135.822 35.7302 135.798 36.241 135.783 36.7317C135.769 37.2224 135.783 37.693 135.783 38.1587C135.783 38.6244 135.783 39.0049 135.783 39.4756C135.783 39.9463 135.822 40.477 135.85 41.123C135.683 41.123 135.52 41.0879 135.372 41.0829C135.224 41.0779 135.057 41.0829 134.895 41.0829C134.732 41.0829 134.584 41.0829 134.417 41.0829C134.249 41.0829 134.058 41.118 133.886 41.138L133.934 41.123ZM133.934 32.9562C133.933 32.8296 133.959 32.7043 134.009 32.5892C134.059 32.4741 134.133 32.372 134.226 32.2903C134.42 32.1048 134.675 32.006 134.938 32.0149C135.065 32.0108 135.192 32.0335 135.311 32.0817C135.43 32.1298 135.539 32.2025 135.63 32.2953C135.723 32.3758 135.797 32.4769 135.847 32.5912C135.898 32.7056 135.923 32.8303 135.922 32.9562C135.923 33.0829 135.898 33.2084 135.848 33.3235C135.797 33.4387 135.723 33.5407 135.63 33.6222C135.432 33.7935 135.183 33.8872 134.926 33.8872C134.668 33.8872 134.419 33.7935 134.221 33.6222C134.119 33.5483 134.035 33.4515 133.973 33.3389C133.912 33.2262 133.876 33.1006 133.867 32.9713L133.934 32.9562ZM137.604 41.123C137.637 40.5722 137.661 40.0564 137.68 39.5657C137.699 39.075 137.704 38.6094 137.704 38.1587C137.704 37.7081 137.704 37.1573 137.68 36.6566C137.656 36.1558 137.637 35.6551 137.604 35.1544C137.742 35.1544 137.881 35.1844 138.029 35.1895C138.177 35.1945 138.335 35.1895 138.507 35.1895C138.679 35.1895 138.837 35.1895 138.985 35.1895C139.133 35.1895 139.271 35.1895 139.4 35.1544V36.0206C139.644 35.7039 139.953 35.4489 140.303 35.2746C140.657 35.1101 141.04 35.0281 141.426 35.0342C141.726 35.0294 142.024 35.082 142.305 35.1895C142.561 35.2815 142.792 35.4359 142.979 35.6401C143.13 35.8091 143.237 36.016 143.29 36.241C143.368 36.6394 143.4 37.0462 143.385 37.4527V38.9999C143.385 39.3905 143.385 39.756 143.409 40.0965C143.433 40.437 143.447 40.7775 143.476 41.0979C143.295 41.0979 143.118 41.0629 142.955 41.0579C142.793 41.0529 142.645 41.0579 142.478 41.0579C142.31 41.0579 142.172 41.0579 142 41.0579C141.828 41.0579 141.675 41.0579 141.493 41.0979C141.522 40.7474 141.546 40.3268 141.56 39.8361C141.574 39.3454 141.594 38.8046 141.594 38.2088C141.644 37.6189 141.565 37.0248 141.364 36.4713C141.274 36.3335 141.15 36.2239 141.006 36.1543C140.861 36.0846 140.701 36.0575 140.542 36.0757C140.372 36.061 140.201 36.0969 140.049 36.1792C139.896 36.2615 139.77 36.3871 139.682 36.5414C139.476 37.0375 139.387 37.5788 139.424 38.1187C139.424 38.4642 139.424 38.8848 139.424 39.3855L139.477 41.0979C139.314 41.0979 139.152 41.0629 138.999 41.0579C138.846 41.0529 138.684 41.0579 138.521 41.0579C138.359 41.0579 138.225 41.0579 138.043 41.0579C137.862 41.0579 137.714 41.118 137.537 41.138L137.604 41.123ZM145.321 35.9005H144.432C144.434 35.8588 144.434 35.817 144.432 35.7753V35.2545C144.819 35.2946 145.043 35.3096 145.172 35.3096H145.321V34.849C145.321 34.6887 145.321 34.5135 145.321 34.3482L145.282 33.6723C145.588 33.5621 145.889 33.447 146.181 33.3268C146.472 33.2066 146.764 33.0764 147.045 32.9462L147.184 33.0514L147.127 34.2381C147.127 34.5535 147.127 34.7939 147.127 34.9591V35.3497C147.366 35.3497 147.604 35.3497 147.796 35.3497C147.987 35.3497 148.207 35.3497 148.402 35.3146V35.6351C148.397 35.7301 148.397 35.8255 148.402 35.9205L147.996 35.9505H147.108V36.236C147.079 37.0872 147.065 37.698 147.065 38.0586V38.5593C147.026 39.1496 147.076 39.7427 147.213 40.3168C147.261 40.4295 147.342 40.5232 147.444 40.5845C147.546 40.6457 147.664 40.6712 147.781 40.6573C148.038 40.6384 148.293 40.5932 148.541 40.5221C148.541 40.9828 148.541 40.9778 148.541 40.9778C148.281 41.09 148.013 41.1787 147.738 41.2431C147.508 41.2999 147.272 41.3285 147.036 41.3283C146.573 41.3637 146.114 41.2154 145.751 40.9127C145.597 40.7536 145.478 40.5617 145.401 40.35C145.324 40.1383 145.292 39.9118 145.306 39.6859V38.6344C145.306 37.9484 145.33 37.2724 145.33 36.6315L145.321 35.9005ZM150.849 38.2038C150.818 38.8223 151.011 39.4303 151.389 39.9062C151.574 40.1167 151.801 40.2823 152.053 40.3913C152.306 40.5003 152.578 40.55 152.851 40.5371C153.148 40.5378 153.443 40.4888 153.725 40.3919C154.015 40.2876 154.287 40.1373 154.533 39.9463L154.662 40.0364L154.375 40.7424C154.08 40.9335 153.757 41.0739 153.42 41.158C153.027 41.2594 152.624 41.3082 152.22 41.3032C151.349 41.3546 150.492 41.0494 149.831 40.452C149.535 40.1448 149.304 39.7754 149.155 39.368C149.005 38.9606 148.939 38.5246 148.961 38.0886C148.947 37.6789 149.017 37.2708 149.167 36.8922C149.317 36.5136 149.544 36.1735 149.831 35.8955C150.462 35.3164 151.282 35.0166 152.12 35.0593C152.874 35.0059 153.618 35.2587 154.198 35.7653C154.449 36.0323 154.643 36.352 154.767 36.7033C154.892 37.0545 154.944 37.4294 154.92 37.8032V38.2038H150.849ZM150.849 37.5929H153.08V37.2925C153.108 36.8511 153.017 36.4105 152.817 36.0206C152.739 35.8832 152.627 35.7705 152.492 35.6947C152.357 35.6189 152.206 35.5827 152.053 35.59C151.875 35.5851 151.698 35.6286 151.541 35.7163C151.383 35.8041 151.25 35.9331 151.155 36.0907C150.921 36.5156 150.811 37.0031 150.839 37.4928L150.849 37.5929ZM156.105 41.148C156.134 40.7424 156.157 40.2918 156.172 39.8011C156.186 39.3104 156.196 38.7646 156.196 38.1737C156.196 37.4327 156.196 36.8368 156.172 36.3912C156.148 35.9455 156.134 35.55 156.105 35.2095C156.243 35.2095 156.387 35.2395 156.535 35.2445C156.683 35.2495 156.85 35.2445 157.013 35.2445C157.175 35.2445 157.347 35.2445 157.491 35.2445C157.634 35.2445 157.782 35.2445 157.916 35.2095L157.863 36.1608C157.863 36.4112 157.863 36.6215 157.863 36.7968C158.029 36.3001 158.309 35.8544 158.68 35.4999C159.044 35.1997 159.498 35.0437 159.961 35.0593C159.987 35.2065 159.987 35.3576 159.961 35.5049C159.961 35.6551 159.961 35.8053 159.961 35.9556C159.961 36.1058 159.961 36.261 159.961 36.4212C159.961 36.5814 159.994 36.7267 160.018 36.8819C159.861 36.828 159.702 36.7828 159.54 36.7467C159.418 36.7185 159.293 36.7034 159.168 36.7016C158.988 36.6825 158.807 36.7104 158.64 36.7829C158.473 36.8555 158.326 36.9704 158.212 37.1172C157.986 37.5245 157.884 37.9945 157.921 38.4641C157.921 38.9649 157.921 39.4055 157.944 39.8561C157.968 40.3068 157.997 40.7424 158.035 41.153C157.863 41.153 157.691 41.118 157.529 41.1129C157.366 41.1079 157.213 41.1129 157.051 41.1129C156.888 41.1129 156.755 41.1129 156.597 41.1129L156.105 41.148ZM161.165 41.148C161.198 40.5972 161.227 40.0815 161.241 39.5908C161.256 39.1001 161.27 38.6344 161.27 38.1837C161.27 37.7331 161.27 37.1823 161.241 36.6816C161.213 36.1809 161.198 35.6802 161.165 35.1794C161.304 35.1794 161.442 35.2095 161.59 35.2145C161.738 35.2195 161.901 35.2145 162.068 35.2145C162.235 35.2145 162.393 35.2145 162.546 35.2145C162.699 35.2145 162.828 35.2145 162.957 35.1794V36.0457C163.2 35.729 163.509 35.4739 163.86 35.2996C164.215 35.135 164.599 35.053 164.987 35.0593C165.287 35.0549 165.585 35.1075 165.867 35.2145C166.121 35.309 166.351 35.4631 166.54 35.6651C166.69 35.8344 166.795 36.0414 166.846 36.266C166.927 36.664 166.959 37.0712 166.942 37.4777V39.025C166.942 39.4155 166.942 39.781 166.942 40.1215C166.942 40.462 166.98 40.8025 167.013 41.123C166.827 41.123 166.655 41.0879 166.493 41.0829C166.33 41.0779 166.177 41.0829 166.015 41.0829C165.852 41.0829 165.709 41.0829 165.537 41.0829C165.365 41.0829 165.217 41.0829 165.03 41.123C165.059 40.7892 165.083 40.3685 165.102 39.8612C165.102 39.3604 165.131 38.8297 165.131 38.2338C165.181 37.6439 165.102 37.0498 164.901 36.4963C164.812 36.3582 164.688 36.2483 164.543 36.1786C164.398 36.1088 164.238 36.0819 164.08 36.1008C163.909 36.0878 163.739 36.1244 163.587 36.2066C163.435 36.2888 163.308 36.4133 163.22 36.5664C163.013 37.0626 162.924 37.6038 162.962 38.1437C162.962 38.4892 162.962 38.9098 162.962 39.4105L163.014 41.123C162.852 41.123 162.689 41.0879 162.536 41.0829C162.383 41.0779 162.226 41.0829 162.058 41.0829C161.891 41.0829 161.762 41.0829 161.605 41.0829C161.447 41.0829 161.332 41.118 161.155 41.138L161.165 41.148ZM171.897 40.3669C171.713 40.6644 171.456 40.9035 171.151 41.0579C170.83 41.2218 170.476 41.3042 170.119 41.2982C169.644 41.3289 169.176 41.1636 168.815 40.8376C168.654 40.6751 168.528 40.4784 168.446 40.2608C168.363 40.0432 168.326 39.8096 168.337 39.5757C168.323 39.2187 168.443 38.8701 168.671 38.6044C168.962 38.3074 169.323 38.0981 169.718 37.9985L170.387 37.7982C170.875 37.6821 171.347 37.5021 171.792 37.2624V37.0521C171.799 36.8856 171.773 36.7192 171.713 36.5645C171.654 36.4098 171.563 36.2704 171.448 36.1558C171.2 35.9248 170.876 35.8044 170.544 35.8204C170.257 35.8182 169.976 35.9016 169.732 36.0607C169.464 36.2482 169.237 36.4941 169.068 36.7817L168.906 36.3111L168.777 35.9856C169.127 35.6905 169.516 35.4509 169.933 35.2746C170.312 35.1192 170.716 35.0393 171.123 35.0392C171.762 34.9924 172.399 35.1685 172.934 35.54C173.144 35.7139 173.312 35.9385 173.423 36.1947C173.533 36.4509 173.584 36.7313 173.569 37.0121L173.531 39.2353V39.4756C173.496 39.8101 173.555 40.148 173.703 40.447C173.798 40.5309 173.909 40.5934 174.028 40.6304C174.147 40.6675 174.272 40.6783 174.396 40.6623L174.434 40.9727C174.21 41.0612 173.978 41.1266 173.741 41.168C173.515 41.2168 173.284 41.2419 173.053 41.2431C172.779 41.2556 172.508 41.1767 172.279 41.0178C172.077 40.8542 171.938 40.6195 171.887 40.3569L171.897 40.3669ZM171.839 37.8633C171.365 37.9242 170.912 38.1065 170.521 38.394C170.386 38.5182 170.279 38.6729 170.21 38.8463C170.14 39.0198 170.109 39.2076 170.119 39.3955C170.099 39.6792 170.171 39.9618 170.325 40.1966C170.399 40.2872 170.493 40.3582 170.598 40.4043C170.704 40.4504 170.818 40.4701 170.932 40.462C171.057 40.4701 171.183 40.4477 171.299 40.3964C171.415 40.3452 171.518 40.2665 171.6 40.1666C171.773 39.9192 171.858 39.6163 171.839 39.3104V37.8633ZM175.576 35.9055H174.682C174.687 35.8639 174.687 35.8219 174.682 35.7803V35.2596C175.074 35.2996 175.294 35.3146 175.428 35.3146H175.576V34.8339C175.576 34.6737 175.576 34.4985 175.576 34.3332L175.538 33.6573C175.843 33.5471 176.14 33.4319 176.436 33.3118C176.732 33.1916 177.019 33.0614 177.296 32.9312L177.439 33.0364L177.382 34.2231C177.382 34.5385 177.382 34.7789 177.382 34.9441V35.3347C177.621 35.3347 177.86 35.3347 178.051 35.3347C178.242 35.3347 178.462 35.3347 178.658 35.2996L178.634 35.4999V35.6201C178.628 35.7151 178.628 35.8104 178.634 35.9055L178.228 35.9355H177.334V36.2009C177.306 37.0521 177.291 37.663 177.291 38.0235V38.5242C177.252 39.1146 177.302 39.7077 177.439 40.2818C177.487 40.3944 177.568 40.4882 177.671 40.5494C177.773 40.6106 177.891 40.6361 178.008 40.6222C178.265 40.6034 178.519 40.5581 178.768 40.487C178.768 40.9477 178.768 40.9427 178.768 40.9427C178.508 41.0549 178.239 41.1437 177.965 41.2081C177.733 41.2652 177.496 41.2937 177.258 41.2932C176.795 41.3277 176.336 41.1794 175.972 40.8776C175.82 40.7175 175.702 40.5253 175.627 40.3138C175.551 40.1023 175.519 39.8763 175.533 39.6509V38.5993C175.533 37.9134 175.557 37.2374 175.557 36.5965L175.576 35.9055ZM179.733 41.128C179.762 40.4971 179.781 39.9463 179.795 39.4806C179.809 39.0149 179.795 38.5743 179.795 38.1637C179.795 37.7531 179.795 37.2224 179.771 36.7367C179.747 36.251 179.738 35.7352 179.714 35.1945L180.192 35.2245H181.171L181.649 35.1945C181.616 35.7352 181.592 36.246 181.577 36.7367C181.563 37.2274 181.577 37.698 181.577 38.1637C181.577 38.6294 181.577 39.0099 181.577 39.4806C181.577 39.9513 181.616 40.482 181.649 41.128C181.482 41.128 181.314 41.0929 181.171 41.0879C181.028 41.0829 180.856 41.0879 180.693 41.0879C180.531 41.0879 180.378 41.0879 180.216 41.0879C180.053 41.0879 179.895 41.118 179.723 41.138L179.733 41.128ZM179.733 32.9613C179.731 32.835 179.756 32.7098 179.805 32.5946C179.855 32.4795 179.928 32.3773 180.02 32.2953C180.214 32.1098 180.469 32.011 180.732 32.0199C180.859 32.0158 180.986 32.0385 181.105 32.0867C181.224 32.1348 181.333 32.2075 181.424 32.3003C181.517 32.3808 181.591 32.4819 181.641 32.5963C181.692 32.7106 181.717 32.8353 181.716 32.9613C181.717 33.0879 181.692 33.2134 181.642 33.3286C181.591 33.4437 181.517 33.5457 181.424 33.6272C181.226 33.7985 180.977 33.8922 180.72 33.8922C180.462 33.8922 180.213 33.7985 180.015 33.6272C179.92 33.5485 179.843 33.4489 179.79 33.3356C179.736 33.2222 179.707 33.0978 179.704 32.9713L179.733 32.9613ZM182.963 38.1637C182.94 37.736 183.006 37.3081 183.156 36.9096C183.306 36.5111 183.537 36.1515 183.833 35.8554C184.517 35.2727 185.385 34.9797 186.265 35.0342C187.145 34.9728 188.014 35.2646 188.697 35.8504C189.253 36.4768 189.562 37.3006 189.562 38.1562C189.562 39.0118 189.253 39.8356 188.697 40.462C187.989 40.9929 187.14 41.2783 186.269 41.2783C185.399 41.2783 184.55 40.9929 183.842 40.462C183.541 40.1725 183.304 39.8178 183.148 39.4226C182.991 39.0275 182.918 38.6013 182.934 38.1737L182.963 38.1637ZM184.874 38.1637C184.826 38.8477 184.932 39.5339 185.185 40.1666C185.302 40.3442 185.459 40.4894 185.642 40.5897C185.824 40.69 186.027 40.7423 186.234 40.7423C186.44 40.7423 186.643 40.69 186.826 40.5897C187.008 40.4894 187.165 40.3442 187.282 40.1666C187.539 39.535 187.647 38.8482 187.598 38.1637C187.646 37.4793 187.537 36.7929 187.282 36.1608C187.166 35.9812 187.01 35.834 186.827 35.7323C186.644 35.6306 186.441 35.5774 186.234 35.5774C186.027 35.5774 185.823 35.6306 185.64 35.7323C185.457 35.834 185.301 35.9812 185.185 36.1608C184.929 36.7963 184.82 37.4858 184.865 38.1737L184.874 38.1637ZM190.747 41.128C190.78 40.5772 190.804 40.0614 190.823 39.5707C190.842 39.08 190.823 38.6144 190.823 38.1637C190.823 37.7131 190.823 37.1623 190.823 36.6616C190.823 36.1608 190.78 35.6601 190.747 35.1594C190.88 35.1594 191.024 35.1895 191.167 35.1945C191.31 35.1995 191.478 35.1945 191.645 35.1945C191.812 35.1945 191.975 35.1945 192.123 35.1945C192.271 35.1945 192.405 35.1945 192.534 35.1594V36.0257C192.774 35.7047 193.083 35.447 193.436 35.2731C193.788 35.0993 194.175 35.014 194.564 35.0242C194.864 35.0194 195.162 35.072 195.444 35.1794C195.694 35.2964 195.914 35.4751 196.084 35.7002C196.235 35.8692 196.342 36.0761 196.394 36.301C196.473 36.6995 196.505 37.1063 196.49 37.5128V39.06C196.49 39.4506 196.49 39.8161 196.49 40.1566C196.49 40.4971 196.533 40.8376 196.562 41.158C196.38 41.158 196.203 41.123 196.041 41.118C195.878 41.1129 195.73 41.118 195.563 41.118C195.396 41.118 195.262 41.118 195.085 41.118C194.908 41.118 194.76 41.118 194.579 41.158C194.607 40.8075 194.631 40.3869 194.646 39.8962C194.66 39.4055 194.679 38.8647 194.679 38.2689C194.729 37.679 194.651 37.0849 194.45 36.5314C194.36 36.3936 194.236 36.284 194.091 36.2144C193.946 36.1447 193.786 36.1175 193.628 36.1358C193.457 36.1219 193.285 36.1581 193.132 36.2403C192.98 36.3225 192.852 36.4475 192.763 36.6015C192.561 37.0989 192.474 37.6394 192.51 38.1787C192.51 38.5242 192.51 38.9448 192.51 39.4456L192.562 41.158C192.395 41.158 192.237 41.123 192.084 41.118C191.932 41.1129 191.769 41.118 191.607 41.118C191.444 41.118 191.31 41.118 191.153 41.118C190.995 41.118 190.909 41.118 190.737 41.138L190.747 41.128ZM201.478 40.3468C201.292 40.6421 201.035 40.8805 200.733 41.0378C200.41 41.2022 200.055 41.2845 199.696 41.2782C199.221 41.3068 198.753 41.1417 198.392 40.8175C198.232 40.6543 198.107 40.4575 198.024 40.2401C197.942 40.0226 197.904 39.7894 197.914 39.5557C197.902 39.199 198.022 38.8512 198.248 38.5843C198.54 38.2894 198.901 38.0804 199.295 37.9785L199.964 37.7782C200.452 37.663 200.924 37.483 201.368 37.2424V37.0321C201.376 36.866 201.349 36.7002 201.291 36.5457C201.232 36.3912 201.143 36.2514 201.029 36.1358C200.779 35.9054 200.454 35.7852 200.121 35.8003C199.836 35.798 199.556 35.8814 199.314 36.0407C199.044 36.2278 198.816 36.4738 198.645 36.7617L198.487 36.291L198.358 35.9656C198.708 35.6694 199.097 35.4297 199.515 35.2545C199.892 35.0987 200.294 35.0189 200.7 35.0192C201.339 34.9724 201.976 35.1484 202.51 35.5199C202.721 35.6939 202.889 35.9184 203 36.1747C203.11 36.4309 203.161 36.7112 203.146 36.992L203.108 39.2152V39.4556C203.071 39.7907 203.132 40.1297 203.285 40.427C203.379 40.5114 203.49 40.5742 203.609 40.6113C203.729 40.6484 203.854 40.6589 203.977 40.6423L204.016 40.9527C203.791 41.0404 203.559 41.1058 203.323 41.148C203.096 41.1965 202.866 41.2216 202.635 41.2231C202.359 41.2356 202.086 41.1567 201.856 40.9978C201.659 40.8389 201.521 40.6118 201.469 40.3569L201.478 40.3468ZM201.416 37.8433C200.943 37.9029 200.491 38.0854 200.102 38.374C199.966 38.497 199.858 38.6513 199.787 38.825C199.717 38.9987 199.686 39.187 199.696 39.3755C199.673 39.6696 199.747 39.963 199.906 40.2066C199.982 40.2973 200.076 40.3684 200.183 40.4144C200.289 40.4604 200.403 40.4801 200.518 40.472C200.644 40.4794 200.769 40.4566 200.885 40.4054C201.001 40.3542 201.104 40.2759 201.187 40.1766C201.358 39.9285 201.441 39.6257 201.421 39.3204L201.416 37.8433ZM204.981 41.1079C205.014 40.4119 205.043 39.6809 205.062 38.9198C205.081 38.1587 205.086 37.3475 205.086 36.4813C205.086 35.6151 205.086 34.7188 205.062 33.9777C205.038 33.2367 205.014 32.4756 204.981 31.8196C205.191 31.8547 205.373 31.8747 205.521 31.8897H206.409L206.94 31.8196C206.906 32.5206 206.882 33.2467 206.863 34.0078C206.844 34.7689 206.839 35.58 206.839 36.4513C206.839 37.3225 206.839 38.2138 206.863 38.9549C206.887 39.6959 206.906 40.427 206.94 41.1029C206.796 41.0762 206.637 41.0562 206.462 41.0428C206.295 41.0428 206.128 41.0428 205.951 41.0428C205.774 41.0428 205.607 41.0428 205.444 41.0428C205.282 41.0428 205.134 41.1129 204.971 41.138L204.981 41.1079ZM215.431 35.7603C215.23 35.7454 215.029 35.7924 214.853 35.8956C214.677 35.9988 214.534 36.1537 214.442 36.3411C214.203 36.9637 214.102 37.6346 214.145 38.3039C214.104 38.924 214.199 39.5459 214.422 40.1215C214.513 40.2884 214.648 40.4244 214.811 40.5132C214.974 40.602 215.157 40.6398 215.34 40.6222C215.544 40.6373 215.748 40.5894 215.926 40.4844C216.104 40.3794 216.249 40.2219 216.343 40.0314C216.585 39.387 216.688 38.6945 216.644 38.0035C216.684 37.4025 216.588 36.8002 216.362 36.246C216.261 36.0862 216.119 35.959 215.953 35.8785C215.787 35.7981 215.603 35.7675 215.421 35.7903L215.431 35.7603ZM212.33 41.138C212.377 40.5972 212.411 39.9613 212.43 39.2353C212.449 38.5092 212.463 37.5879 212.463 36.4863C212.463 35.3847 212.463 34.4834 212.43 33.7374C212.396 32.9913 212.377 32.3704 212.33 31.8296C212.549 31.8647 212.731 31.8847 212.879 31.8997H213.754L214.289 31.8296L214.236 32.8811C214.236 33.1966 214.236 33.497 214.236 33.7924V35.7953C214.458 35.5445 214.728 35.3464 215.029 35.2145C215.357 35.0822 215.706 35.0193 216.057 35.0292C216.398 35.0137 216.739 35.0764 217.055 35.2131C217.371 35.3497 217.655 35.557 217.887 35.8204C218.357 36.4252 218.591 37.1948 218.541 37.9734C218.585 38.8624 218.295 39.7339 217.734 40.4019C217.457 40.7042 217.123 40.941 216.752 41.0964C216.381 41.2519 215.983 41.3224 215.584 41.3032C215.231 41.3097 214.882 41.2398 214.556 41.0979C214.232 40.9422 213.941 40.719 213.701 40.442C213.489 40.5363 213.283 40.645 213.085 40.7675C212.902 40.8786 212.726 41.0024 212.559 41.138H212.33ZM223.133 40.3569C222.941 40.6555 222.675 40.8942 222.364 41.0479C222.041 41.2122 221.686 41.2946 221.327 41.2882C220.852 41.3168 220.384 41.1517 220.022 40.8275C219.863 40.6643 219.737 40.4675 219.655 40.2501C219.573 40.0326 219.535 39.7994 219.545 39.5657C219.533 39.209 219.653 38.8612 219.879 38.5943C220.172 38.2986 220.535 38.0896 220.93 37.9885L221.599 37.7882C222.087 37.673 222.559 37.493 223.004 37.2524V37.0421C223.011 36.876 222.985 36.7102 222.926 36.5557C222.868 36.4012 222.779 36.2614 222.665 36.1458C222.415 35.9154 222.09 35.7952 221.757 35.8103C221.471 35.808 221.191 35.8914 220.949 36.0507C220.68 36.2378 220.451 36.4838 220.281 36.7717L220.123 36.301L219.994 35.9756C220.343 35.6794 220.733 35.4397 221.15 35.2646C221.527 35.1087 221.929 35.0289 222.335 35.0292C222.975 34.9817 223.612 35.1578 224.146 35.5299C224.357 35.7039 224.525 35.9284 224.635 36.1847C224.746 36.4409 224.796 36.7212 224.782 37.0021L224.743 39.2252V39.4656C224.706 39.8007 224.768 40.1397 224.92 40.437C225.015 40.5214 225.126 40.5842 225.245 40.6213C225.364 40.6584 225.489 40.6689 225.613 40.6523L225.651 40.9627C225.427 41.0504 225.195 41.1158 224.958 41.158C224.732 41.2065 224.501 41.2316 224.27 41.2331C223.995 41.2456 223.722 41.1668 223.491 41.0078C223.299 40.8431 223.169 40.6126 223.124 40.3569H223.133ZM223.071 37.8533C222.598 37.913 222.146 38.0954 221.757 38.384C221.62 38.507 221.513 38.6613 221.442 38.835C221.372 39.0087 221.34 39.1971 221.351 39.3855C221.333 39.669 221.405 39.9507 221.556 40.1866C221.632 40.2772 221.726 40.3483 221.832 40.3944C221.939 40.4404 222.053 40.4601 222.168 40.452C222.293 40.4593 222.419 40.4366 222.535 40.3854C222.651 40.3342 222.754 40.2559 222.837 40.1566C223.008 39.9085 223.091 39.6056 223.071 39.3004V37.8533ZM226.626 41.118C226.659 40.5672 226.683 40.0514 226.702 39.5607C226.721 39.07 226.726 38.6044 226.726 38.1537C226.726 37.7031 226.726 37.1523 226.702 36.6515C226.678 36.1508 226.659 35.6501 226.626 35.1494C226.76 35.1494 226.903 35.1794 227.046 35.1844C227.19 35.1895 227.357 35.1844 227.524 35.1844C227.691 35.1844 227.854 35.1844 228.002 35.1844C228.15 35.1844 228.284 35.1844 228.413 35.1494V36.0156C228.654 35.6946 228.963 35.437 229.315 35.2631C229.668 35.0893 230.054 35.004 230.444 35.0142C230.743 35.0094 231.041 35.062 231.323 35.1694C231.578 35.2614 231.809 35.4159 231.997 35.6201C232.148 35.789 232.255 35.996 232.307 36.2209C232.385 36.6194 232.417 37.0262 232.403 37.4327V38.9799C232.403 39.3704 232.403 39.736 232.403 40.0765C232.403 40.4169 232.446 40.7574 232.474 41.0779C232.293 41.0779 232.116 41.0428 231.954 41.0378C231.791 41.0328 231.643 41.0378 231.476 41.0378C231.309 41.0378 231.175 41.0378 230.998 41.0378C230.821 41.0378 230.673 41.0378 230.491 41.0779C230.52 40.7274 230.544 40.3068 230.558 39.8161C230.573 39.3254 230.592 38.7846 230.592 38.1888C230.642 37.5989 230.563 37.0048 230.362 36.4513C230.272 36.3135 230.149 36.2039 230.004 36.1342C229.859 36.0646 229.699 36.0374 229.541 36.0557C229.37 36.041 229.199 36.0768 229.047 36.1592C228.895 36.2415 228.768 36.367 228.681 36.5214C228.474 37.0175 228.385 37.5587 228.423 38.0986C228.423 38.4441 228.423 38.8647 228.423 39.3654L228.475 41.0779C228.308 41.0779 228.15 41.0428 227.997 41.0378C227.844 41.0328 227.682 41.0378 227.519 41.0378C227.357 41.0378 227.223 41.0378 227.065 41.0378C226.908 41.0378 226.788 41.118 226.616 41.138L226.626 41.118Z" fill="#18482B"/>
<path fill-rule="evenodd" clip-rule="evenodd" d="M28.2585 40.0558C30.7581 40.0629 33.2277 39.5091 35.4867 38.435C35.9048 38.2324 36.3315 38.0095 36.7323 37.7808L37.0004 37.6245L36.3575 41.3669H34.9159L35.1465 40.0297C31.2911 41.5905 27.0227 41.7945 23.037 40.6086C21.3431 41.1134 19.5853 41.3689 17.8183 41.3669C7.9923 41.3669 0 33.5841 0 24.0213C0 14.4585 7.9923 6.6757 17.8183 6.6757C19.5853 6.67371 21.3431 6.92915 23.037 7.43401C24.7308 6.92915 26.4887 6.67371 28.2556 6.6757C32.6149 6.6617 36.8325 8.22919 40.1316 11.0895L40.8986 6.63229H42.3402L41.0802 13.9433L40.8813 13.7147C40.5785 13.3616 40.2556 13.02 39.9211 12.693C36.7963 9.65361 32.6095 7.96417 28.2585 7.98683C19.1735 7.98683 11.7809 15.1792 11.7809 24.0213C11.7809 32.8634 19.1735 40.0558 28.2585 40.0558ZM9.17593 19.3746C8.3763 20.7926 7.95007 22.3919 7.93752 24.0213C7.94713 25.6537 8.37197 27.2565 9.17174 28.6778C9.97151 30.0991 11.1197 31.2918 12.5074 32.1427C11.153 29.6548 10.4432 26.8651 10.4432 24.03C10.4432 21.1948 11.153 18.4051 12.5074 15.9172C11.1222 16.7666 9.97556 17.9565 9.17593 19.3746ZM6.65737 24.0213C6.65737 19.5525 9.53194 15.4802 13.8107 13.8738H13.8078C14.4875 12.9582 15.2552 12.1119 16.0999 11.3471C9.56078 12.1749 4.68236 17.5467 4.68236 24.0213C4.68236 30.4959 9.56078 35.8677 16.0999 36.6955C15.2562 35.9305 14.4895 35.0842 13.8107 34.1687C9.54059 32.5624 6.65737 28.4901 6.65737 24.0213ZM17.8212 38.105C9.84333 38.105 3.35319 31.7867 3.35319 24.0213C3.35319 16.2559 9.84333 9.93759 17.8212 9.93759H17.8587C18.7919 9.28251 19.7854 8.71846 20.8255 8.2531C19.8338 8.0759 18.8285 7.9868 17.8212 7.98683C8.73329 7.98683 1.3407 15.1792 1.3407 24.0213C1.3407 32.8634 8.73329 40.0558 17.8212 40.0558C18.8285 40.0558 19.8338 39.9667 20.8255 39.7895C19.7854 39.3241 18.7919 38.7601 17.8587 38.105H17.8212Z" fill="#AB842E"/>
<path d="M42.1009 28.137H40.7054L40.6708 28.2325C40.6016 28.4206 40.5295 28.6088 40.4488 28.8114C38.4305 33.6738 33.6473 36.8141 28.2585 36.8141C21.013 36.8141 15.1197 31.0805 15.1197 24.03C15.1197 16.9794 21.013 11.2458 28.2585 11.2458C35.2619 11.2458 41.0226 16.5742 41.383 23.3788L41.2475 24.1429L41.5358 24.1805L42.715 24.1602V23.9258L45.6646 6.80016L45.6934 6.62939H44.2518L42.0057 19.6538C40.0855 13.8999 34.5093 9.92891 28.2441 9.92891C20.2662 9.92891 13.7761 16.2472 13.7761 24.0126C13.7761 31.778 20.2662 38.0963 28.2441 38.0963C30.4665 38.1038 32.6614 37.6034 34.6626 36.6331C36.6637 35.6628 38.4186 34.248 39.7943 32.4958L38.2691 41.3495H39.7107L41.9856 28.4409L42.1009 28.137Z" fill="#AB842E"/>
<path d="M51.4829 41.1874L51.4541 41.3582H52.8928L58.8438 6.80305L58.8726 6.63229H57.4339L51.4829 41.1874Z" fill="#AB842E"/>
<path fill-rule="evenodd" clip-rule="evenodd" d="M28.2585 13.1445C22.1028 13.1445 17.0947 18.0214 17.0947 24.0155C17.0947 30.0096 22.1028 34.8865 28.2585 34.8865C34.4142 34.8865 39.4253 30.0096 39.4253 24.0155C39.4253 18.0214 34.4171 13.1445 28.2585 13.1445ZM38.1451 24.0155C38.1372 25.5074 37.7813 26.9766 37.1058 28.3055C36.4304 29.6344 35.4543 30.786 34.2556 31.668L36.4815 18.6929C37.5652 20.2567 38.1457 22.1163 38.1451 24.0213V24.0155ZM28.9851 24.0155C28.9775 22.2761 28.5505 20.5644 27.7406 19.0266C26.9307 17.4889 25.7621 16.1708 24.3344 15.185C25.0744 14.8743 25.8488 14.6537 26.641 14.528C27.9675 15.6875 29.0376 17.1129 29.7825 18.7125C30.5273 20.3121 30.9304 22.0504 30.9659 23.8158L30.9024 24.1776H32.344L33.7511 16.0127C34.3085 16.3753 34.8281 16.7932 35.3022 17.2602L32.6554 32.6347C32.0515 32.9265 31.4197 33.1563 30.7698 33.3207L31.6636 28.1312H30.222L30.1845 28.3656C29.44 30.3457 28.2199 32.1104 26.6324 33.503C25.8401 33.3773 25.0658 33.1567 24.3258 32.846C25.7542 31.8618 26.9241 30.545 27.7355 29.0083C28.5468 27.4715 28.9756 25.7605 28.9851 24.0213V24.0155ZM28.3911 14.3977C29.7838 14.4118 31.1584 14.7163 32.4277 15.292L31.6434 19.8506C30.9879 17.8094 29.8753 15.9461 28.3911 14.4035V14.3977ZM23.0399 15.8449C24.4604 16.6795 25.6386 17.8728 26.4574 19.3062C27.2761 20.7396 27.7069 22.3632 27.7069 24.0155C27.7069 25.6678 27.2761 27.2914 26.4574 28.7248C25.6386 30.1581 24.4604 31.3515 23.0399 32.1861C21.6193 31.3515 20.4411 30.1581 19.6224 28.7248C18.8036 27.2914 18.3728 25.6678 18.3728 24.0155C18.3728 22.3632 18.8036 20.7396 19.6224 19.3062C20.4411 17.8728 21.6193 16.6795 23.0399 15.8449ZM29.4954 32.3424L29.2792 33.587C28.9909 33.6188 28.6881 33.6333 28.3911 33.6391C28.7839 33.2286 29.1526 32.7957 29.4954 32.3424Z" fill="#AB842E"/>
<path d="M54.1412 6.63229H55.58L55.5511 6.80305L49.6002 41.3582H48.1614L48.1903 41.1874L54.1412 6.63229Z" fill="#AB842E"/>
<path d="M48.9947 6.63229H47.5589L41.605 41.1874L41.5762 41.3582H43.0149L48.9659 6.80305L48.9947 6.63229Z" fill="#AB842E"/>
<path d="M50.8486 6.63229H52.2873L52.2585 6.80305L46.3075 41.3582H44.8688L44.8976 41.1874L50.8486 6.63229Z" fill="#AB842E"/>
<path d="M55.2685 0.120117H56.7073L55.8625 5.02018H54.4238L55.2685 0.120117Z" fill="#AB842E"/>
<path d="M51.9759 0.120117H53.4146L52.5698 5.02018H51.1311L51.9759 0.120117Z" fill="#AB842E"/>
<path d="M57.7164 5.02018L58.5612 0.120117H59.9999L59.1551 5.02018H57.7164Z" fill="#AB842E"/>
</svg>
