<?xml version="1.0" encoding="UTF-8"?>
<svg id="Livello_2" data-name="Livello 2" xmlns="http://www.w3.org/2000/svg" viewBox="0 0 737.72 177.95">
  <defs>
    <style>
      .cls-1 {
        fill: #046939;
      }

      .cls-2 {
        fill: #de4713;
      }

      .cls-3 {
        fill: #c99706;
      }

      .cls-4 {
        fill: #223668;
      }

      .cls-5 {
        fill: #5b5a5d;
      }
    </style>
  </defs>
  <g id="Livello_1-2" data-name="Livello 1">
    <g>
      <g>
        <path class="cls-4" d="m39.41,74.03l.1-.06v-.24l-.08-7.56v-.04c-.13-1.14-.17-2.38-.19-3.73-.04-1.49-.07-3.04-.27-4.41-.04-1.96-.42-4.06-.8-6.09l-.25-1.38-.02-.13-.09-.1c-.31-.3-.41-.68-.52-1.12-.11-.37-.21-.75-.44-1.11-.51-.93-1.31-1.83-2.02-2.62l-.04-.04c-.18-.25-.39-.37-.57-.48-.1-.08-.2-.14-.32-.24l-.16-.14-.1.03-.12-.1c-.64-.52-1.24-.71-1.93-.94h-.02c-.2-.29-.58-.34-.84-.34v-.19l-.36-.05-1.68-.24-.25-.04-.15.2c-.06.08-.08.1-.43-.03-.16-.06-.34-.12-.54-.15l-.2-.02-.09.09c-.05-.04-.11-.07-.19-.11l-.69-.21-.06.32c-.3,0-.58.06-.8.17h-2.14s.12.4.12.4l-.03.03c-.45-.13-.79.16-.99.31-.03.03-.07.06-.1.07-.36.06-.57.22-.72.34-.11.07-.14.1-.24.11h-.18s-.11.16-.11.16c-.15.17-.64.39-.9.5l-.57.25.13.12c-.1.04-.19.1-.28.18h-.54v.42h0s-.05,0-.07,0l-.3-.14s-.23.26-.23.26c-.33.47-.77.93-1.23,1.41-.54.57-1.09,1.16-1.52,1.8l-.13.19.08.2c-.1.06-.36.22-.4.53-.21.23-.26.53-.3.73,0,.06-.02.14-.03.18-.22.28-.28.55-.31.75-.03.17-.05.26-.11.35l-.27.34.12.1c-.08.2-.09.42-.09.54,0,.06,0,.13-.01.17l-.18.1.04.28c.08.52.01,1.02-.06,1.54-.08.51-.13,1.02-.08,1.58-.21.32-.15.69-.11.92,0,.08.03.19.02.24l-.27.22.19.32c.15.26.04.64-.08,1.01-.11.36-.23.79-.1,1.17-.03.03-.07.06-.1.1-.05.06-.09.17-.08.32,0,.28-.03.37-.04.39l-.2.41-.03.16.36.26c-.04.24,0,.46.02.67.04.27.05.39-.03.5l-.23.4.23.27s0,.05,0,.06c0,.19-.03.52.2.77,0,.04.02.09.03.13l-.42.11.27.57s-.02.1-.03.15c-.04.16-.12.5.06.79-.13.33-.05.66,0,.87.02.06.04.14.04.21-.38.4-.2.94-.09,1.23-.18.26-.14.6-.1.8l-.52.18.54.55c-.03.12-.03.27.06.42.06.1.14.15.22.19l-.16.04s.02.04.02.06h0l.19.48v.06c-.06.28.01.56.15.78-.04.06-.07.14-.08.24l-.21.21.21.3c.16.22.1.51-.02.98-.11.4-.23.94,0,1.38l-.29.29.37.26s-.03.05-.03.06c-.1.18-.27.51-.05.86l-.02-.03c.08.17.04.43,0,.73-.05.43-.11.94.12,1.45l-.07.52v-.07c-.05.2,0,.37.06.5l-.16.07.11.35c.12.37.13.83.13,1.31,0,.92,0,1.95.83,2.73l.18.18.24-.07c.61-.18.65-.79.66-1.12,0-.07,0-.14.01-.19v-.09s-.01-.08-.01-.08c-.25-.84-.14-1.94-.05-2.89.03-.26.05-.51.06-.73v-.12s-.04-.1-.04-.1c-.17-.35-.13-.68-.08-1.06.04-.35.08-.73-.05-1.14.15-1.76.06-3.86-.01-5.7-.03-.79-.06-1.53-.07-2.21v-.04c-.11-.87-.08-1.81-.05-2.72.02-.82.04-1.65-.04-2.42.2-.87.18-1.68.17-2.55,0-.39-.01-.78,0-1.2v-.11l-.02-.05c.18-.22.24-.46.13-.69.1-.32.11-.64.11-.92,0-.21.01-.43.06-.62l.03-.1-.03-.11c-.06-.18,0-.4.05-.62.06-.27.12-.61.01-.92.33-.67.4-1.48.47-2.27l.03-.28c.02-.17-.03-.34-.18-.48v-.02c0-.35.18-.63.41-.99.25-.39.53-.83.6-1.44l.02-.1h0c.03-.05.07-.08.1-.11.15-.12.38-.32.38-.64,0-.05-.01-.11-.03-.16.3-.27.48-.57.64-.83.24-.41.41-.69.88-.82l.23-.07.06-.24c.07-.26.29-.4.66-.63.28-.17.57-.36.8-.65.3.03.49-.06.6-.17.37-.09.65-.31.88-.49.39-.31.51-.38.78-.26l.26.12.16-.17s.04-.01.04-.01c.12-.03.34-.08.46-.29.12-.02.22-.06.31-.09.22-.07.27-.08.34-.04.08.06.22.11.4.06v.03s.32-.04.32-.04l.41-.06c1.21-.15,2.26-.29,3.2.22l.33.19.21-.3s.08.1.13.14c.24.26.67.74,1.28.64.14.12.29.21.43.29.06.03.13.07.17.11h0s.09.13.09.13c.19.26.59.37.92.39.71.75,1.43,1.77,1.43,2.22v.42h.32s0,.02,0,.03c.11.55.27,1.23.7,1.69-.12.28-.02.62.03.77.01.05.03.11.04.15l-.1.32.27.28.06.04c-.01.28.12.55.21.73.03.06.06.11.08.17l-.07.15c-.38.73.13,1.13.37,1.32.04.03.06.05.1.07-.2.15-.19.3-.22.55l.04.33.12.2h.01s0,.03.01.05c.02.06.05.15.1.24l-.15.14-.1.37.21.29.16.09c0,.17.07.33.12.42,0,.03.02.04.03.07l-.04.18c-.14.7-.31,1.59.11,2.31-.01.02-.02.02-.04.03-.19.27-.14.57-.11.8.01.07.03.19.02.23l-.1.43s.14.05.26.08c-.01.04-.04.08-.04.13l-.09.49h.17c-.03.17-.04.34-.04.48-.01.25-.01.42-.1.55l-.04.06-.02.06c-.12.46.04.89.18,1.22.03.07.05.13.08.2-.08.08-.14.19-.14.36,0,.04.02.07.03.1l-.09.1.07.24c.04.14.13.23.24.28l-.07.03s-.02.33-.02.33v.12l-.26.07.13.28c-.07.12-.13.31-.07.51l-.17.33s.03.2.19.27c-.17.57.25,1,.5,1.24.11.11.17.19.22.25h-.21l.16.53h0c-.03.06-.07.09-.11.15l-.33.17.1.47-.03.11c-.08.24-.02.41.06.51,0,.01.03.03.05.04-.13.11-.27.3-.3.58l-.04.4.32.04c-.03.09-.05.17-.07.24-.04.16-.07.28-.15.39h0s-.02.04-.03.05l.56.31c-.07.16-.12.29-.15.41-.02.06-.04.13-.06.18h-.52l.03.55c.02.08.04.17.05.28,0,.1.03.21.05.33v.54c0,.09,0,.2.03.31l-.07.04.06.3c.01.15,0,.3,0,.45,0,.08-.01.19,0,.28l-.39.2.48.51s-.02.02-.02.02c-.06.13-.12.3-.12.49h-.33l.57.7s.1.21.12.33c.01.01.01.03.01.04-.23.22-.27.56-.29.74-.01.08-.02.19-.04.23,0,0,0,0,0,0l.14.18c-.11.09-.18.18-.22.25-.06.14-.06.28-.04.4h-.56l.46.46-.43.14.36.3v1.12c0,.21.09.38.26.46.01,0,.02,0,.02,0,.23.16.48.15.68.1v.47l.54-.16c.39-.12.7-.14,1.01-.08l.45.09.05-.46c.22-1.68.18-3.3.13-4.88-.04-1.55-.08-2.99.12-4.42.12-.28,0-.54-.08-.67"/>
        <path class="cls-3" d="m103.77,32.76h0l-.03-.02h-.01c-.71-.43-1.77-.67-2.48-.36-4.59-.44-8.97-.38-13.6-.34h-.32c-2.33.04-4.73.07-7.13.02l-19.41-.39c-4.55-.12-9.55-.09-14.44.1-3.63.03-7.14.11-10.73.23-3.73.1-12.65.13-17.97.14-2.83,0-4.32.01-4.52.03-.62.03-1.38.91-1.4,1.62,0,.39.22.85.9.91.5.05,3.72.07,9.58.05l5.98-.03c1.59,0,2.33.03,2.67-.01h.04c4.39-.43,8.81-.41,13.07-.39h.34c2.76.02,5.62.03,8.49-.08.6.14,1.23,0,1.83-.11l.1-.02c.27-.05.55-.11.82-.12.65.18,1.4.18,2.19.16.77-.02,1.54-.03,2.25.13v.02h.12v-.03c.62-.21,1.19-.1,1.78.02.03,0,.12.01.12.01.29.06.55.11.82.12,5.55-.15,11.69.05,19.35.63,0,0,3.62.39,3.62.39h.03c3.22-.31,6.55-.07,9.78.17,0,0,.08,0,.08,0,2.42.18,4.7.35,6.98.3v.03s.14-.05.14-.05v-.03l1.21-.96h0s.05-.05.05-.05h0c.41-.65.28-1.55-.28-2.08"/>
        <path class="cls-1" d="m71.64,74.03l.1-.06v-.24s-.08-7.56-.08-7.56v-.04c-.14-1.14-.17-2.38-.19-3.73-.04-1.49-.06-3.04-.27-4.41-.04-1.96-.42-4.06-.8-6.09l-.26-1.38v-.13s-.12-.1-.12-.1c-.3-.3-.4-.68-.52-1.12-.1-.37-.2-.75-.43-1.11-.5-.93-1.31-1.83-2.02-2.62l-.04-.04c-.18-.25-.39-.37-.56-.48-.11-.08-.21-.14-.32-.24l-.16-.14-.1.03-.13-.1c-.64-.52-1.24-.71-1.92-.94h-.02c-.2-.29-.58-.34-.84-.34v-.19l-.36-.05-1.67-.24-.25-.04-.15.2c-.06.08-.08.1-.43-.03-.16-.06-.35-.12-.54-.15l-.19-.02-.1.09s-.11-.07-.19-.11l-.7-.21-.05.32c-.32,0-.59.06-.81.17h-2.14s.12.4.12.4l-.02.03c-.45-.13-.8.16-1,.31-.03.03-.07.06-.09.07-.37.06-.58.22-.73.34-.1.07-.14.1-.24.11h-.18s-.12.16-.12.16c-.15.17-.63.39-.89.5l-.57.25.12.12c-.09.04-.19.1-.27.18h-.54v.42h0s-.05,0-.07,0l-.31-.14s-.22.26-.22.26c-.33.47-.76.93-1.22,1.41-.54.57-1.09,1.16-1.51,1.8l-.13.19.08.2c-.1.06-.36.22-.41.53-.2.23-.26.53-.28.73-.01.06-.02.14-.04.18-.22.28-.28.55-.31.75-.03.17-.04.26-.11.35l-.27.34.12.1c-.09.2-.09.42-.09.54,0,.06,0,.13,0,.17l-.18.1.04.28c.08.52.01,1.02-.06,1.54-.07.51-.13,1.02-.08,1.58-.21.32-.16.69-.12.92.01.08.03.19.03.24l-.27.22.19.32c.14.26.03.64-.08,1.01-.11.36-.24.79-.1,1.17-.03.03-.06.06-.1.1-.04.06-.09.17-.08.32,0,.28-.02.37-.04.39l-.2.41-.02.16.35.26c-.03.24-.01.46.02.67.04.27.06.39-.03.5l-.22.4.22.27v.06c-.01.19-.03.52.2.77,0,.04.01.09.03.13l-.41.11.27.57s-.02.1-.03.15c-.04.16-.12.5.06.79-.13.33-.05.66,0,.87.01.06.04.14.04.21-.39.4-.2.94-.09,1.23-.18.26-.15.6-.1.8l-.52.18.54.55c-.02.12-.03.27.06.42.07.1.14.15.23.19l-.16.04s.01.04.02.06h0l.19.48v.06c-.05.28.02.56.15.78-.04.06-.08.14-.08.24l-.21.21.21.3c.15.22.09.51-.02.98-.11.4-.24.94,0,1.38l-.29.29.36.26s-.02.05-.03.06c-.1.18-.27.51-.05.86l-.03-.03c.08.17.05.43,0,.73-.04.43-.11.94.12,1.45l-.07.52v-.07c-.05.2,0,.37.06.5l-.16.07.11.35c.12.37.12.83.12,1.31,0,.92,0,1.95.84,2.73l.18.18.23-.07c.62-.18.65-.79.66-1.12,0-.07,0-.14.01-.19v-.09s-.01-.08-.01-.08c-.25-.84-.15-1.94-.04-2.89.02-.26.04-.51.06-.73v-.12s-.04-.1-.04-.1c-.16-.35-.13-.68-.08-1.06.05-.35.08-.73-.04-1.14.14-1.76.06-3.86-.02-5.7-.02-.79-.06-1.53-.07-2.21v-.02s0-.03,0-.03c-.11-.87-.08-1.81-.04-2.72.02-.82.04-1.65-.04-2.42.2-.87.19-1.68.17-2.55-.01-.39-.02-.78,0-1.2v-.11l-.03-.05c.19-.22.24-.46.14-.69.09-.32.1-.64.1-.92.01-.21.02-.43.06-.62l.03-.1-.03-.11c-.06-.18,0-.4.05-.62.07-.27.14-.61.02-.92.33-.67.4-1.48.46-2.27l.02-.28c.03-.17-.03-.34-.17-.48v-.02c0-.35.19-.63.42-.99.25-.39.52-.83.6-1.44v-.1s0-.01,0-.01c.03-.04.06-.06.1-.1.15-.12.38-.32.38-.64,0-.05-.01-.11-.03-.16.3-.27.48-.57.64-.83.24-.41.41-.69.88-.82l.23-.07.06-.24c.06-.26.29-.4.65-.63.27-.17.57-.36.79-.65.31.03.49-.06.6-.17.37-.09.65-.31.89-.49.38-.31.51-.38.77-.26l.26.12.18-.17s.02-.01.03-.01c.12-.03.34-.08.46-.29.12-.02.22-.06.31-.09.21-.07.27-.08.35-.04.07.06.22.11.39.06v.03s.32-.04.32-.04l.41-.06c1.21-.15,2.26-.29,3.21.22l.33.19.2-.3s.09.1.13.14c.24.26.66.74,1.28.64.14.12.29.21.43.29.06.03.12.07.17.11h0s.09.13.09.13c.19.26.59.37.92.39.72.75,1.44,1.77,1.44,2.22v.42h.31s0,.02,0,.03c.12.55.28,1.23.71,1.69-.12.28-.01.62.03.77.01.05.03.11.04.15l-.11.32.28.28.06.04c-.01.28.12.55.21.73.02.06.05.11.07.17l-.07.15c-.38.73.13,1.13.38,1.32.03.03.07.05.09.07-.19.15-.18.3-.22.55l.03.33.13.2s0,0,.01,0c0,.02,0,.03.02.05.01.06.04.15.1.24l-.15.14-.1.37.21.29.16.09c0,.17.07.33.11.42.01.03.02.04.03.07l-.04.18c-.14.7-.31,1.59.12,2.31-.02.02-.03.02-.04.03-.21.27-.15.57-.11.8,0,.07.03.19.02.23l-.11.43s.15.05.26.08c0,.04-.03.08-.04.13l-.09.49h.17c-.03.17-.04.34-.04.48,0,.25-.01.42-.1.55l-.04.06v.06c-.15.46.03.89.17,1.22.03.07.04.13.08.2-.08.08-.15.19-.14.36,0,.04.02.07.03.1l-.09.1.08.24c.04.14.13.23.23.28l-.07.03s-.01.33-.01.33v.12l-.27.07.13.28c-.07.12-.13.31-.06.51l-.19.33s.04.2.2.27c-.17.57.26,1,.5,1.24.1.11.18.19.22.25h-.21l.16.53h0c-.04.06-.08.09-.11.15l-.35.17.12.47-.04.11c-.08.24-.02.41.06.51.01.01.04.03.05.04-.13.11-.27.3-.29.58l-.04.4.32.04c-.03.09-.05.17-.08.24-.04.16-.08.28-.14.39h0s-.02.04-.02.05l.55.31c-.08.16-.13.29-.16.41-.01.06-.04.13-.06.18h-.52l.03.55c.03.08.04.17.05.28,0,.1.03.21.05.33v.54c0,.09,0,.2.02.31l-.06.04.05.3c.01.15.01.3,0,.45,0,.08-.02.19-.02.28l-.38.2.47.51v.03c-.06.13-.13.29-.13.48h-.33l.57.7c.05.04.09.21.13.33,0,.01,0,.03,0,.04-.23.22-.26.56-.28.74-.01.08-.02.19-.04.23,0,0,0,0,.01,0l.15.18c-.12.09-.19.18-.22.25-.06.14-.06.28-.05.4h-.55l.46.46-.43.14.36.3v1.12c0,.21.1.38.26.46.01,0,.03,0,.03,0,.23.16.47.15.67.1v.47l.54-.16c.4-.12.71-.14,1.02-.08l.45.09.06-.46c.22-1.68.17-3.3.12-4.88-.04-1.55-.07-2.99.12-4.42.13-.28,0-.54-.08-.67"/>
        <path class="cls-2" d="m103.31,74.6l.1-.07v-.23s-.09-7.55-.09-7.55v-.03h0c-.14-1.15-.17-2.41-.19-3.75-.03-1.5-.07-3.04-.27-4.41-.04-1.96-.42-4.07-.81-6.09l-.25-1.4-.02-.12-.1-.11c-.3-.3-.4-.67-.52-1.12-.09-.36-.19-.74-.43-1.1-.5-.93-1.31-1.83-2.03-2.62l-.03-.04c-.17-.25-.38-.37-.57-.48-.1-.07-.2-.13-.32-.23l-.15-.14-.1.02-.13-.1c-.64-.52-1.24-.71-1.93-.94h-.02c-.21-.29-.58-.33-.84-.35v-.19l-.36-.05-1.69-.25-.25-.04-.15.21c-.06.08-.08.1-.43-.03-.16-.06-.34-.12-.54-.14l-.19-.02-.1.1c-.05-.04-.12-.08-.19-.12l-.69-.21-.05.33c-.32,0-.59.06-.81.18h-2.13l.12.4s-.01.01-.02.02c-.46-.11-.81.16-1,.32-.03.03-.08.06-.09.08-.37.06-.57.21-.72.32-.1.08-.14.1-.25.12h-.17s-.11.15-.11.15c-.15.19-.64.4-.91.52l-.56.25.12.12c-.09.04-.18.1-.27.18h-.54v.42h0s-.06.01-.07,0l-.3-.12s-.23.26-.23.26c-.33.46-.76.93-1.22,1.42-.54.57-1.09,1.15-1.52,1.79l-.12.19.08.19c-.11.06-.36.23-.41.54-.21.22-.26.53-.29.73,0,.07-.01.15-.04.18-.22.28-.27.55-.31.76-.03.16-.04.25-.11.33l-.26.33.12.09c-.09.21-.09.42-.09.55,0,.06,0,.13-.01.17l-.17.11.04.27c.08.53.01,1.02-.06,1.55-.08.5-.14,1.01-.08,1.58-.21.32-.16.69-.13.93.01.07.03.19.03.24l-.27.22.18.32c.15.24.04.62-.07,1-.11.36-.24.79-.11,1.17-.04.03-.06.06-.09.11-.05.06-.09.17-.08.3,0,.3-.03.38-.04.4l-.2.42-.03.17.36.26c-.04.25,0,.47.02.67.05.28.06.39-.03.49l-.23.42.23.26s0,.04,0,.08c-.01.18-.03.51.2.76.01.05.02.09.03.13l-.42.11.28.57s-.03.09-.03.14c-.04.17-.12.5.05.79-.13.33-.04.66.01.87.02.07.04.14.04.2-.39.4-.2.95-.1,1.23-.18.28-.14.6-.1.81l-.52.18.54.54c-.03.13-.03.27.06.42.07.09.15.16.22.18l-.16.06s.01.04.02.06l.19.48v.06c-.05.28.02.57.15.79-.04.05-.08.13-.08.22l-.22.21.21.29c.16.22.09.52-.03.99-.1.4-.23.93,0,1.37l-.29.29.38.27s-.03.04-.04.05c-.08.18-.26.51-.05.86l-.02-.04c.08.16.04.43,0,.74-.04.43-.1.94.12,1.45l-.08.52.02-.07c-.07.2-.01.37.06.48l-.17.08.11.36c.12.36.13.82.13,1.3,0,.91,0,1.95.82,2.73l.18.16.24-.07c.61-.18.64-.8.66-1.12,0-.07,0-.14,0-.19l.02-.1-.03-.08c-.25-.83-.15-1.93-.05-2.89.03-.26.05-.5.07-.74v-.11s-.05-.1-.05-.1c-.17-.34-.13-.67-.08-1.06.04-.34.08-.74-.05-1.14.15-1.77.06-3.86-.01-5.71-.03-.78-.06-1.52-.07-2.2v-.05c-.11-.87-.08-1.8-.06-2.71.03-.81.05-1.65-.02-2.41.2-.88.18-1.7.17-2.56,0-.39-.01-.79,0-1.2v-.1l-.03-.06c.2-.22.24-.46.15-.69.08-.33.1-.63.11-.91.01-.23.02-.43.06-.62l.03-.11-.03-.1c-.06-.19,0-.4.05-.63.07-.28.13-.61.02-.94.33-.66.4-1.48.47-2.27l.03-.27c.03-.17-.03-.34-.17-.47v-.03c0-.35.19-.63.41-.99.25-.39.53-.83.6-1.44v-.1s0-.02,0-.02c.03-.03.06-.06.1-.09.15-.13.39-.33.37-.64,0-.06,0-.11-.03-.17.3-.26.48-.55.65-.83.23-.4.4-.69.87-.83l.23-.06.07-.23c.06-.26.29-.41.65-.63.27-.17.56-.36.79-.65.29.02.48-.07.6-.18.37-.09.64-.3.88-.49.38-.32.51-.38.78-.26l.26.12.17-.17s.03-.01.03-.01c.12-.03.34-.09.46-.29.12-.02.22-.06.31-.09.21-.07.26-.08.34-.04.08.04.22.1.4.05l.02.03.31-.04.41-.05c1.21-.16,2.26-.29,3.2.22l.34.19.21-.31s.09.1.12.14c.24.27.67.74,1.29.63.13.12.28.21.42.29.05.03.13.08.18.11h0s.08.13.08.13c.18.25.6.37.92.39.71.75,1.43,1.77,1.43,2.21v.42h.32v.03c.12.55.28,1.24.71,1.68-.11.28-.01.63.04.77,0,.05.03.1.04.15l-.1.31.28.29.06.03c-.02.29.11.55.21.75.02.05.05.11.07.16l-.07.15c-.38.72.13,1.12.37,1.32.04.03.06.05.09.07-.18.15-.18.29-.22.56l.04.31.12.22h0s.02.03.02.04c.01.06.04.15.1.24l-.14.14-.1.38.21.29.17.08c0,.18.06.32.1.43,0,.02.02.04.03.06l-.04.19c-.14.69-.32,1.58.12,2.31,0,0-.03.03-.03.03-.21.27-.16.58-.12.79,0,.08.03.19.03.23l-.11.43s.13.05.26.08c-.02.06-.04.09-.04.14l-.09.5h.18c-.04.17-.04.33-.04.47,0,.25-.01.41-.1.56l-.04.05-.02.06c-.12.45.04.88.18,1.23.02.06.05.12.07.18-.07.08-.14.2-.13.36,0,.04.01.06.03.11l-.09.09.07.25c.05.14.13.23.24.27l-.07.02s-.02.33-.02.33v.11l-.26.08.14.28c-.07.12-.14.31-.07.51l-.18.32s.04.19.2.27c-.17.57.25.99.49,1.24.11.11.18.18.22.24h-.21l.16.55h.01c-.04.05-.08.1-.12.13l-.35.17.11.47-.03.11c-.08.24-.02.42.05.52.02.02.04.03.05.04-.13.12-.27.3-.29.58l-.04.39.32.05c-.03.1-.05.17-.08.25-.04.15-.07.28-.14.38-.01.01-.02.03-.02.05l.56.32c-.08.14-.14.29-.17.4,0,.06-.04.13-.06.17h-.52l.03.55c.03.09.04.18.06.29,0,.1.02.21.04.34v.54c0,.08.02.19.03.3l-.06.03.04.3c.02.15,0,.3,0,.45-.02.09-.02.18-.02.28l-.38.2.48.51s-.01.01-.01.01c-.06.14-.12.31-.12.5h-.34l.57.68c.05.06.1.22.12.33.02.01.02.03.02.04-.24.23-.27.56-.29.74,0,.08-.02.2-.04.24h0s.15.17.15.17c-.11.08-.18.18-.22.25-.06.15-.06.28-.05.4h-.56l.46.46-.43.13.36.3v1.12c0,.21.1.38.26.46,0,0,.02,0,.04.01.22.15.46.15.66.09v.47l.55-.16c.39-.12.7-.15,1.01-.08l.45.1.06-.46c.21-1.67.17-3.31.13-4.87-.04-1.55-.08-3,.12-4.43.13-.27,0-.53-.09-.66"/>
      </g>
      <g>
        <path class="cls-1" d="m179.11,71c-.54,0-.76.22-.97.88l-5.85,15.72c-1.08,2.74-1.63,5.38-1.63,6.7,0,1.98.98,3.4,4.34,3.4h1.62c1.3,0,1.62.22,1.62.88,0,.88-.65,1.1-1.84,1.1-3.47,0-8.12-.33-11.48-.33-1.19,0-7.15.33-12.79.33-1.41,0-2.06-.22-2.06-1.1,0-.66.43-.88,1.3-.88.98,0,2.49-.11,3.36-.21,4.98-.66,7.04-4.41,9.21-9.9l27.19-69.02c1.3-3.19,1.95-4.39,3.04-4.39.97,0,1.62.98,2.7,3.52,2.6,6.04,19.94,50.88,26.87,67.59,4.12,9.89,7.26,11.43,9.54,11.98,1.63.33,3.25.43,4.55.43.87,0,1.41.11,1.41.88,0,.88-.98,1.1-4.98,1.1s-11.81,0-20.48-.22c-1.95-.11-3.25-.11-3.25-.88,0-.66.43-.88,1.52-.99.75-.22,1.51-1.21.97-2.53l-8.67-23.3c-.21-.55-.54-.77-1.08-.77h-24.16Zm22.1-5.49c.54,0,.65-.33.54-.66l-9.75-27.15c-.11-.44-.21-.99-.54-.99s-.54.55-.65.99l-9.97,27.04c-.11.44,0,.77.44.77h19.93Z"/>
        <path class="cls-1" d="m253.08,67.81c0,14.07,0,21.65,2.27,23.63,1.84,1.65,4.66,2.41,13.11,2.41,5.74,0,9.97-.11,12.68-3.07,1.3-1.43,2.6-4.5,2.82-6.59.11-.99.32-1.65,1.19-1.65.75,0,.86.55.86,1.87,0,1.21-.76,9.45-1.62,12.64-.65,2.42-1.19,2.97-6.83,2.97-7.8,0-13.43-.21-18.31-.32-4.87-.22-8.78-.34-13.22-.34-1.19,0-3.58,0-6.17.11-2.49,0-5.31.22-7.47.22-1.41,0-2.17-.34-2.17-1.11,0-.55.43-.88,1.73-.88,1.63,0,2.92-.21,3.89-.43,2.17-.44,2.71-2.86,3.15-6.05.54-4.61.54-13.3.54-23.41v-19.34c0-16.7,0-19.78-.21-23.3-.22-3.74-1.08-5.5-4.66-6.26-.86-.22-2.16-.33-3.57-.33-1.19,0-1.84-.22-1.84-.99s.76-.99,2.38-.99c5.09,0,11.92.33,14.84.33,2.6,0,10.51-.33,14.74-.33,1.51,0,2.27.22,2.27.99s-.65.99-1.95.99c-1.19,0-2.92.11-4.22.33-2.92.55-3.79,2.42-4.01,6.26-.21,3.52-.21,6.6-.21,23.3v19.34Z"/>
        <path class="cls-1" d="m298.41,48.47c0-16.7,0-19.78-.22-23.3-.22-3.74-1.09-5.5-4.66-6.27-.87-.22-2.71-.33-4.23-.33-1.19,0-1.84-.22-1.84-.99s.76-.99,2.38-.99c2.92,0,6.07.12,8.78.12,2.82.1,5.31.22,6.83.22,3.46,0,25.03,0,27.09-.11,2.06-.22,3.79-.44,4.66-.66.54-.11,1.19-.44,1.73-.44s.65.44.65.99c0,.76-.54,2.09-.87,7.14-.11,1.1-.33,5.93-.54,7.25-.11.55-.32,1.21-1.08,1.21s-.97-.54-.97-1.54c0-.77-.11-2.63-.65-3.95-.75-1.98-1.84-3.3-7.26-3.96-1.84-.22-13.22-.44-15.38-.44-.55,0-.76.33-.76,1.09v27.81c0,.77.11,1.2.76,1.2,2.38,0,14.84,0,17.33-.21,2.6-.22,4.23-.55,5.2-1.65.76-.88,1.19-1.43,1.73-1.43.44,0,.76.22.76.88s-.44,2.42-.87,8.03c-.11,2.2-.43,6.59-.43,7.36,0,.87,0,2.08-.97,2.08-.76,0-.98-.43-.98-.98-.11-1.1-.11-2.53-.44-3.96-.54-2.2-2.06-3.85-6.07-4.29-2.06-.22-12.79-.33-15.39-.33-.54,0-.65.44-.65,1.1v8.68c0,3.74-.11,13.84,0,17.04.21,7.58,1.95,9.23,13,9.23,2.82,0,7.37,0,10.18-1.32,2.82-1.32,4.12-3.63,4.88-8.14.22-1.2.43-1.64,1.19-1.64.87,0,.87.88.87,1.97,0,2.53-.87,10.01-1.41,12.2-.76,2.86-1.73,2.86-5.85,2.86-8.12,0-14.08-.22-18.74-.32-4.66-.22-8.02-.33-11.27-.33-1.19,0-3.58,0-6.17.11-2.49,0-5.31.22-7.47.22-1.41,0-2.17-.33-2.17-1.11,0-.55.43-.88,1.73-.88,1.63,0,2.93-.21,3.9-.43,2.17-.44,2.71-2.86,3.14-6.05.54-4.62.54-13.3.54-23.41v-19.35Z"/>
        <path class="cls-1" d="m396.48,53.74c3.47,5.39,21.02,35.17,23.73,38.68,1.84,2.42,3.47,3.74,6.28,4.62,1.84.55,3.14.66,4.12.66.75,0,1.4.22,1.4.88,0,.77-.87,1.11-2.06,1.11h-3.25c-2.6,0-11.16,0-19.5-.22-2.81-.11-3.68-.33-3.68-1.1,0-.66.54-.98,1.52-1.21.54-.11.98-1.09.22-2.52-5.96-10.77-12.13-21.65-17.12-29.89l-16.04,26.26c-1.08,1.76-1.62,3.41-1.52,4.62.11.99,1.08,1.65,2.05,1.88.65.11,1.63.21,2.49.21.65,0,1.3.33,1.3.99,0,.77-.76,1-2.17,1h-1.95c-.65,0-7.47-.33-10.18-.33-2.06,0-7.37.33-9.11.33h-1.84c-1.09,0-1.63-.33-1.63-1s.65-.99,1.52-.99c.76,0,2.38-.11,4.01-.55,3.14-.87,5.2-2.96,8.89-8.24l20.69-30-18.63-31.32c-2.6-4.39-5.2-7.03-9-8.24-1.73-.55-3.46-.77-4.55-.77-.65,0-1.08-.33-1.08-1.1,0-.66.76-.88,2.17-.88,2.6,0,11.38.33,16.47.33,1.51,0,7.58-.33,11.59-.33,1.51,0,2.17.22,2.17.99s-.65.99-1.63.99c-.65,0-2.06.11-2.92.44-.98.32-1.3,1.09-1.3,1.75s.43,1.98,1.09,3.18c4.66,8.8,9.54,16.82,13.75,24.29,3.15-4.84,13.11-20.11,14.74-23.19.87-1.53,1.19-3.29,1.19-4.17,0-.78-.76-1.65-1.85-1.98-1.08-.33-2.6-.33-3.46-.33-.65,0-1.3-.22-1.3-.99,0-.66.76-.99,2.28-.99,4.23,0,8.78.33,10.84.33,2.17,0,6.61-.33,10.62-.33,1.19,0,1.95.33,1.95.99s-.65.99-1.73.99-2.38.22-3.9.66c-2.49.66-4.66,3.74-7.91,8.57l-17.77,25.94Z"/>
        <path class="cls-1" d="m483.07,80.73c0,11.52-8.32,14.19-13.22,14.19-2.52,0-5.03-.12-7.97-1.34-3.5-1.44-3.81-3.31-3.81-10.64v-26.22c0-.55.21-.78.63-.78,1.65,0,2.74,0,4.71.11,4.26.21,6.75.98,9.05,2.66,8.3,5.86,10.61,15.16,10.61,22.02m-38.12-13.28c0,10.18,0,18.95-.54,23.59-.46,3.22-.98,5.64-3.15,6.09-.99.22-2.3.45-3.95.45-1.3,0-1.72.33-1.72.88,0,.78.75,1.11,2.17,1.11,4.36,0,11.24-.33,13.73-.33,3.31,0,13.23.66,15.83.66,20.1,0,29.16-12.29,29.16-24.13,0-12.96-10.93-20.83-19.87-23.93,6-4.85,11.14-10.27,11.14-19.36,0-5.86-3.48-16.61-23.27-16.61-3.7,0-7.96.32-13.31.32-2.17,0-9.05-.32-14.84-.32-1.63,0-2.41.22-2.41,1.01s.64.99,1.86.99c1.51,0,3.37.11,4.26.34,3.59.77,4.47,2.53,4.68,6.3.21,3.55.21,6.64.21,23.48v19.48Zm13.12-44.95c0-1.22.21-1.66.98-1.89,1.09-.21,2.08-.21,3.59-.21,9.38,0,13.64,9.74,13.64,17.15,0,5.43-1.65,9.42-4.47,11.74-1.87,1.66-4.26,2.12-7.86,2.12-2.51,0-4.14-.11-5.14-.34-.43-.12-.75-.33-.75-1.23v-27.33Z"/>
        <path class="cls-1" d="m649.93,16.68c-5.33,0-9.44.31-10.65.31-2.28,0-7.49-.31-13.12-.31-1.64,0-2.83.12-2.83.99,0,.66.44.98,1.73.98,1.53,0,4.12,0,5.76.66,2.61,1.11,3.57,3.18,3.69,9.9l1.08,49.41h-.54c-1.86-1.75-16.47-17.61-23.88-25.09-15.83-15.94-32.31-33.87-33.62-35.32-1.84-1.98-2.81-3.41-4.01-3.41-1.1,0-1.4,1.53-1.4,3.74l-.99,65.16c-.12,9.57-1.17,13.63-3.36,13.63-4.15,0-5.34-2.71-9.09-11.8-6.95-16.71-24.3-61.62-26.92-67.67-1.08-2.52-1.73-3.5-2.7-3.5-1.08,0-1.74,1.2-3.07,4.39l-27.2,69.11c-2.18,5.48-4.25,9.23-9.23,9.89-.88.11-.95.2-1.95.2-.87,0-1.29.24-1.29.89,0,.87.66,1.08,2.07,1.08,5.61,0,10.16-.31,11.36-.31,3.38,0,8.02.31,11.49.31,1.2,0,1.83-.21,1.83-1.08,0-.65-.31-.89-1.6-.89h-1.64c-3.36,0-4.35-1.42-4.35-3.39,0-1.33.58-3.96,1.63-6.7l5.87-15.74c.21-.67.43-.89.97-.89h24.18c.53,0,.88.23,1.11.77l8.68,23.32c.52,1.32-.22,2.33-.99,2.55-1.09.09-1.52.33-1.52.98,0,.77,1.31.77,3.26.87,8.67.21,16.6.21,20.5.21,2.44,0,12.47-.07,19.51-.07,1.52,0,2.51-.22,2.51-1.1,0-.65-.65-.88-1.85-.88-1.74,0-3.78-.09-5.62-.76-2.17-.77-3.59-3.64-3.82-12.23l-1.17-46.2h.32c1.95,2.08,13.98,15.84,25.81,27.74,11.28,11.3,25.14,25.71,32.01,32.33,1.19,1.22,2.49,2.42,3.67,2.42.98,0,1.41-.97,1.41-3.39l1.19-69.44c.11-6.16.97-8.48,4.03-9.35,1.32-.35,2.16-.35,3.24-.35,1.29,0,1.95-.32,1.95-.98,0-.88-1.08-.99-2.46-.99m-113.8,49.07h-19.96c-.44,0-.54-.35-.44-.79l9.97-27.07c.13-.44.31-1,.66-1,.32,0,.43.56.54,1l9.77,27.17c.1.34,0,.68-.54.68"/>
        <path class="cls-1" d="m674.6,48.45c0-16.72,0-19.81.22-23.33.21-3.85,1.08-5.71,4.01-6.27,1.31-.22,1.95-.33,3.04-.33.87,0,1.52-.22,1.52-.99s-.76-1-2.27-1c-3.69,0-10.53.33-13.12.33s-9.43-.33-15.19-.33c-1.62,0-2.38.22-2.38,1s.65.99,1.84.99c1.51,0,3.36.11,4.23.33,3.57.77,4.45,2.53,4.66,6.27.22,3.52.22,6.61.22,23.33v19.36c0,10.12,0,18.81-.55,23.43-.43,3.2-.97,5.61-3.14,6.06-.98.21-2.28.44-3.91.44-1.3,0-1.73.33-1.73.88,0,.77.76,1.1,2.17,1.1,4.34,0,11.17-.33,13.66-.33,2.7,0,9.54.33,15.62.33,1.19,0,2.06-.33,2.06-1.1,0-.55-.54-.88-1.41-.88-1.41,0-3.8-.23-5.32-.44-2.71-.45-3.68-2.86-3.9-5.94-.33-4.73-.33-13.43-.33-23.55v-10.01h.54l1.2,1.65c2.27,3.19,23.63,28.6,28.41,32.9,4.66,4.18,7.6,6.6,13.45,7.15,2.28.22,4.22.22,7.48.22h9.44c2.06,0,2.6-.33,2.6-1.1,0-.65-.65-.88-1.42-.88-1.29,0-3.47-.33-6.71-1.65-5.86-2.31-10.74-7.26-15.51-11.88-4.22-4.08-25.48-27.28-29.39-32.46,3.68-3.96,20.07-20.46,23.42-23.77,4.66-4.62,8.36-6.93,11.72-8.25,2.06-.77,4.78-1.21,6.29-1.21,1.08,0,1.63-.22,1.63-.99s-.75-1-1.84-1c-3.36,0-9.33.33-12.69.33-2.93,0-8.89-.33-11.17-.33-1.2,0-1.74.22-1.74,1,0,.65.44.88,1.42,1.1,1.08.22,1.51.98,1.51,2.2,0,1.87-2.38,4.62-5.42,8.25-3.15,3.74-18.98,20.13-22.67,24.2h-.54v-4.84Z"/>
      </g>
      <path class="cls-2" d="m6.12,6.13h103.78v103.8H6.12V6.13ZM0,116.04h116.05V0H0v116.04Z"/>
    </g>
    <path class="cls-5" d="m722.49,151.57c.11,4.52-2.26,10.9-7.96,10.9-5.99,0-8.47-5.93-8.47-10.73,0-5.37,2.77-10.84,8.53-10.84s8.02,5.48,7.91,10.67m-21.74,26.37h5.31v-15.81h.11c1.64,2.65,4.52,4.63,9.6,4.63,8.7,0,12.37-7.68,12.37-15.59s-4.07-14.57-12.42-14.57c-5.08,0-8.36,2.6-9.77,4.74h-.11v-4.07h-5.08v40.66Zm-8.36-40.66h-5.31v13.33c0,7-2.71,11.86-8.75,11.86-4.63-.28-6.1-3.56-6.1-10.28v-14.91h-5.31v17.11c0,7.74,3.33,12.37,10.79,12.37,4.01,0,7.85-1.98,9.43-5.25h.11v4.57h5.14v-28.8Zm-55.57,14.4c0-5.48,3.33-10.79,9.04-10.79s8.98,5.31,8.98,10.79c0,5.14-2.77,10.79-8.98,10.79s-9.04-5.65-9.04-10.79m-5.65,0c0,8.25,5.99,15.08,14.68,15.08s14.63-6.83,14.63-15.08c0-8.75-5.87-15.08-14.63-15.08s-14.68,6.32-14.68,15.08m-19.37,14.4h5.31v-13.1c0-7.23,3.11-11.75,7.85-11.75.91,0,1.98.11,2.94.51v-4.74c-1.13-.22-1.92-.39-3.5-.39-3.05,0-6.1,2.15-7.51,5.14h-.11v-4.46h-4.97v28.8Zm-9.21-38.12c-3.28-1.13-5.82-1.98-11.58-1.98-12.03,0-20.84,8.08-20.84,20.22s8.3,20.56,20.78,20.56c6.16,0,9.88-1.02,12.03-1.75v-20.5h-13.95v4.63h8.3v11.97c-1.41.28-2.43.68-6.33.68-8.19,0-14.85-6.16-14.85-15.42s6.04-15.42,15.14-15.42c5.08,0,8.08.9,10.84,2.71l.45-5.7Zm-76.01,23.72c0-5.48,3.33-10.79,9.04-10.79s8.98,5.31,8.98,10.79c0,5.14-2.77,10.79-8.98,10.79s-9.04-5.65-9.04-10.79m-5.65,0c0,8.25,5.98,15.08,14.68,15.08s14.63-6.83,14.63-15.08c0-8.75-5.87-15.08-14.63-15.08s-14.68,6.32-14.68,15.08m-12.43,14.4h5.31v-42.36h-5.31v42.36Zm-30.78-14.4c0-5.48,3.33-10.79,9.04-10.79s8.98,5.31,8.98,10.79c0,5.14-2.77,10.79-8.98,10.79s-9.04-5.65-9.04-10.79m-5.65,0c0,8.25,5.99,15.08,14.68,15.08s14.63-6.83,14.63-15.08c0-8.75-5.87-15.08-14.63-15.08s-14.68,6.32-14.68,15.08m-11.69,3.22c0,4.29-2.77,7.57-8.02,7.57-2.43,0-5.36-1.64-5.36-4.69,0-5.08,7.12-5.53,10-5.53,1.13,0,2.26.11,3.39.11v2.54Zm-15.47-11.07c2.15-1.81,5.36-2.94,8.36-2.94,5.31,0,7.11,2.54,7.11,7.51-2.09-.11-3.56-.11-5.65-.11-5.48,0-13.38,2.26-13.38,9.49,0,6.27,4.35,8.98,10.56,8.98,4.86,0,7.68-2.65,8.92-4.41h.11v3.73h4.97c-.11-.85-.23-2.37-.23-5.65v-11.92c0-7.85-3.33-11.91-11.58-11.91-3.67,0-6.83,1.13-9.49,2.71l.28,4.52Zm-13.72,7.74c.11,4.52-2.26,10.9-7.96,10.9-5.99,0-8.47-5.93-8.47-10.73,0-5.37,2.77-10.84,8.53-10.84s8.02,5.48,7.91,10.67m-21.74,26.37h5.31v-15.81h.11c1.64,2.65,4.52,4.63,9.6,4.63,8.7,0,12.37-7.68,12.37-15.59s-4.07-14.57-12.42-14.57c-5.08,0-8.36,2.6-9.77,4.74h-.11v-4.07h-5.08v40.66Zm-33.83-11.86h5.31v-13.33c0-7,2.71-11.86,8.75-11.86,4.63.28,6.1,3.56,6.1,10.28v14.91h5.31v-17.11c0-7.74-3.33-12.37-10.79-12.37-4.01,0-7.85,1.98-9.43,5.25h-.11v-4.57h-5.14v28.8Zm-13.61-11.18c0,4.29-2.77,7.57-8.02,7.57-2.43,0-5.36-1.64-5.36-4.69,0-5.08,7.12-5.53,10-5.53,1.13,0,2.26.11,3.39.11v2.54Zm-15.47-11.07c2.15-1.81,5.36-2.94,8.36-2.94,5.31,0,7.11,2.54,7.11,7.51-2.09-.11-3.56-.11-5.65-.11-5.48,0-13.38,2.26-13.38,9.49,0,6.27,4.35,8.98,10.56,8.98,4.86,0,7.68-2.65,8.92-4.41h.11v3.73h4.97c-.11-.85-.23-2.37-.23-5.65v-11.92c0-7.85-3.33-11.91-11.58-11.91-3.67,0-6.83,1.13-9.49,2.71l.28,4.52Zm-10-16.43c-2.71-.96-5.82-1.41-8.42-1.41-7.12,0-12.65,3.73-12.65,10.73,0,12.25,16.94,9.83,16.94,18.64,0,4.63-4.52,6.44-7.74,6.44-2.88,0-6.27-1.13-8.19-1.92l-.57,5.25c2.6.85,5.31,1.64,8.08,1.64,7.91,0,14.4-3.33,14.4-11.75,0-12.99-16.94-11.24-16.94-18.81,0-4.12,3.73-5.25,6.89-5.25,2.94,0,4.52.51,7.4,1.64l.79-5.19Zm-47.83,27.5c0,4.29-2.77,7.57-8.02,7.57-2.43,0-5.36-1.64-5.36-4.69,0-5.08,7.12-5.53,10-5.53,1.13,0,2.26.11,3.39.11v2.54Zm-15.47-11.07c2.15-1.81,5.36-2.94,8.36-2.94,5.31,0,7.12,2.54,7.12,7.51-2.09-.11-3.56-.11-5.65-.11-5.48,0-13.38,2.26-13.38,9.49,0,6.27,4.35,8.98,10.56,8.98,4.86,0,7.68-2.65,8.92-4.41h.11v3.73h4.97c-.11-.85-.22-2.37-.22-5.65v-11.92c0-7.85-3.33-11.91-11.58-11.91-3.67,0-6.83,1.13-9.49,2.71l.28,4.52Zm-25.36,21.35c2.43,1.3,5.19,1.58,7.91,1.58,5.14,0,10.05-2.82,10.05-8.98,0-9.21-12.48-7.51-12.48-13.38,0-2.37,2.37-3.5,5.08-3.5,1.24,0,4.4.73,5.59,1.47l.45-4.63c-2.09-.62-4.12-1.13-6.61-1.13-5.7,0-10.17,2.88-10.17,8.87,0,8.08,12.48,7.62,12.48,12.88,0,3.11-2.99,4.12-5.42,4.12-1.53,0-4.52-.68-6.61-2.03l-.28,4.74Zm-24.57-16.26c.4-3.73,2.54-8.02,7.74-8.02,4.57,0,7.17,3.61,7.17,8.02h-14.91Zm18.35,10.67c-1.3,1.07-5.36,2.88-8.87,2.88-5.03,0-9.49-3.9-9.49-9.6h20.56c0-9.26-3.11-16.26-12.71-16.26-8.13,0-13.5,6.04-13.5,14.57,0,9.38,4.69,15.59,14.91,15.59,4.74,0,7.06-1.13,9.09-1.86v-5.31Zm-28.07-22.31h-7.62v-8.36l-5.31,1.69v6.66h-6.49v4.29h6.49v16.83c0,5.76,3.39,8.36,8.87,8.36,1.7,0,3.33-.45,4.52-.79v-4.52c-.79.51-1.98,1.02-3.61,1.02-2.43,0-4.46-1.81-4.46-5.14v-15.76h7.62v-4.29Zm-49.13,28.8h5.31v-13.33c0-7,2.71-11.86,8.75-11.86,4.63.28,6.1,3.56,6.1,10.28v14.91h5.31v-17.11c0-7.74-3.33-12.37-10.79-12.37-4.01,0-7.85,1.98-9.43,5.25h-.11v-4.57h-5.14v28.8Zm-14.51,0h5.65v-39.42h-5.65v39.42Z"/>
  </g>
</svg>