<?xml version="1.0" encoding="UTF-8"?>
<svg id="Layer_1" xmlns="http://www.w3.org/2000/svg" xmlns:xlink="http://www.w3.org/1999/xlink" version="1.1" viewBox="0 0 5926.45 1883.67">
  <!-- Generator: Adobe Illustrator 29.0.1, SVG Export Plug-In . SVG Version: 2.1.0 Build 192)  -->
  <defs>
    <style>
      .st0 {
        fill: #00a3ff;
      }

      .st1 {
        fill: url(#linear-gradient1);
      }

      .st2 {
        fill: url(#linear-gradient3);
      }

      .st3 {
        fill: url(#linear-gradient5);
      }

      .st4, .st5, .st6, .st7, .st8 {
        isolation: isolate;
      }

      .st5 {
        fill: url(#linear-gradient2);
      }

      .st5, .st6, .st7, .st8 {
        mix-blend-mode: multiply;
        opacity: .5;
      }

      .st6 {
        fill: url(#linear-gradient6);
      }

      .st7 {
        fill: url(#linear-gradient4);
      }

      .st8 {
        fill: url(#linear-gradient);
      }

      .st9 {
        fill: #595f6b;
      }

      .st10 {
        fill: #1501ff;
      }
    </style>
    <linearGradient id="linear-gradient" x1="3347.23" y1="1430.17" x2="3887.82" y2="1189.49" gradientTransform="translate(0 1881.27) scale(1 -1)" gradientUnits="userSpaceOnUse">
      <stop offset=".24" stop-color="#000" stop-opacity="0"/>
      <stop offset=".78" stop-color="#000"/>
    </linearGradient>
    <linearGradient id="linear-gradient1" x1="4924.13" y1="871.28" x2="5822.52" y2="1163.16" gradientTransform="translate(0 1881.27) scale(1 -1)" gradientUnits="userSpaceOnUse">
      <stop offset=".28" stop-color="#1501ff"/>
      <stop offset=".34" stop-color="#1026ff"/>
      <stop offset=".41" stop-color="#0a52ff"/>
      <stop offset=".49" stop-color="#0575ff"/>
      <stop offset=".56" stop-color="#028eff"/>
      <stop offset=".62" stop-color="#009dff"/>
      <stop offset=".67" stop-color="#00a3ff"/>
    </linearGradient>
    <linearGradient id="linear-gradient2" x1="5045.63" y1="1150.68" x2="5503.13" y2="947.01" gradientTransform="translate(0 1881.27) scale(1 -1)" gradientUnits="userSpaceOnUse">
      <stop offset=".18" stop-color="#000"/>
      <stop offset=".79" stop-color="#000" stop-opacity="0"/>
    </linearGradient>
    <linearGradient id="linear-gradient3" x1="3110.2" y1="984.72" x2="5004.7" y2="1600.26" gradientTransform="translate(0 1881.27) scale(1 -1)" gradientUnits="userSpaceOnUse">
      <stop offset=".14" stop-color="#1501ff"/>
      <stop offset=".16" stop-color="#1022ff"/>
      <stop offset=".19" stop-color="#0a50ff"/>
      <stop offset=".22" stop-color="#0674ff"/>
      <stop offset=".25" stop-color="#028eff"/>
      <stop offset=".27" stop-color="#009dff"/>
      <stop offset=".29" stop-color="#00a3ff"/>
      <stop offset=".56" stop-color="#00a3ff"/>
      <stop offset=".6" stop-color="#0199ff"/>
      <stop offset=".66" stop-color="#047fff"/>
      <stop offset=".74" stop-color="#0a54ff"/>
      <stop offset=".83" stop-color="#111aff"/>
      <stop offset=".86" stop-color="#1501ff"/>
    </linearGradient>
    <linearGradient id="linear-gradient4" x1="4225.21" y1="1492.85" x2="4903.56" y2="1190.84" gradientTransform="translate(0 1881.27) scale(1 -1)" gradientUnits="userSpaceOnUse">
      <stop offset=".28" stop-color="#000" stop-opacity="0"/>
      <stop offset=".91" stop-color="#000"/>
    </linearGradient>
    <linearGradient id="linear-gradient5" x1="3903.99" y1="766.26" x2="5778.59" y2="1375.34" gradientTransform="translate(0 1881.27) scale(1 -1)" gradientUnits="userSpaceOnUse">
      <stop offset=".13" stop-color="#1501ff"/>
      <stop offset=".18" stop-color="#1021ff"/>
      <stop offset=".26" stop-color="#0958ff"/>
      <stop offset=".34" stop-color="#0481ff"/>
      <stop offset=".4" stop-color="#0199ff"/>
      <stop offset=".43" stop-color="#00a3ff"/>
    </linearGradient>
    <linearGradient id="linear-gradient6" x1="4026.9" y1="1150.66" x2="4480.56" y2="948.71" gradientTransform="translate(0 1881.27) scale(1 -1)" gradientUnits="userSpaceOnUse">
      <stop offset=".06" stop-color="#000"/>
      <stop offset="1" stop-color="#000" stop-opacity="0"/>
    </linearGradient>
  </defs>
  <g class="st4">
    <g id="Artwork">
      <g>
        <g id="Arab_Bank_Logo_H">
          <g id="Arab_Bank_Logotype">
            <g id="English">
              <path class="st9" d="M483.78,1077.66l-119.85-283.44h-69.24l-119.47,283.44h59.53c34.28-60.32,108.08-78.85,164.28-60.35l24.81,60.35h59.94,0ZM272.74,984.88h0l56.37-137.65,49.17,119.57c-36.92-5.04-79.19,2.33-105.54,18.08Z"/>
              <path class="st9" d="M723.82,1077.66l-62.75-93.94h-78.57v93.94h-52.63v-283.44h123.9c87.05,0,122.28,29.16,122.28,92.33,0,46.97-19.04,76.14-59.12,89.1l68.83,102.04h-61.96l.03-.03ZM582.49,938.36h74.11c46.18,0,64.81-13.76,64.81-49s-18.63-49-64.81-49h-74.11v97.99Z"/>
              <path class="st9" d="M1127.65,1077.66l-119.85-283.44h-69.24l-119.47,283.44h59.53c34.28-60.32,108.08-78.85,164.28-60.35l24.81,60.35h59.94,0ZM916.61,984.88h0l56.37-137.65,49.17,119.57c-36.92-5.04-79.19,2.33-105.54,18.08h0Z"/>
              <path class="st9" d="M1420.73,1001.11c0,38.05-23.5,76.55-97.2,76.55h-149.42v-283.44h140.91c58.29,0,92.74,23.88,92.74,71.26,0,31.98-17.02,53.46-46.15,63.99,43.75,10.53,59.12,40.9,59.12,71.67v-.03ZM1226.74,912.83h72.88c33.21,0,53.04-12.56,53.04-37.26s-19.04-37.26-53.04-37.26h-72.88v74.52h0ZM1365.63,993.43c0-20.65-12.97-40.49-55.07-40.49h-83.82v80.56h83.82c42.1,0,55.07-20.24,55.07-40.07h0Z"/>
              <path class="st9" d="M1817.98,1001.11c0,38.05-23.5,76.55-97.2,76.55h-149.42v-283.44h140.91c58.33,0,92.74,23.88,92.74,71.26,0,31.98-17.02,53.46-46.18,63.99,43.75,10.53,59.12,40.9,59.12,71.67l.03-.03ZM1624.02,912.83h72.88c33.21,0,53.04-12.56,53.04-37.26s-19.04-37.26-53.04-37.26h-72.88v74.52h0ZM1762.91,993.43c0-20.65-12.97-40.49-55.07-40.49h-83.82v80.56h83.82c42.1,0,55.07-20.24,55.07-40.07h0Z"/>
              <path class="st9" d="M2151.68,1077.66l-119.85-283.44h-69.24l-119.47,283.44h59.53c34.28-60.32,108.08-78.85,164.28-60.35l24.81,60.35h59.94ZM1940.64,984.88h0l56.37-137.65,49.17,119.57c-36.92-5.04-79.19,2.33-105.54,18.08Z"/>
              <polygon class="st9" points="2450.53 794.19 2450.53 1077.66 2395.05 1077.66 2245.25 873.99 2245.25 1077.66 2193.41 1077.66 2193.41 794.19 2248.89 794.19 2399.1 997.89 2399.1 794.19 2450.53 794.19"/>
              <polygon class="st9" points="2637.07 948.07 2579.98 1010.45 2579.98 1077.66 2527.35 1077.66 2527.35 794.19 2579.98 794.19 2579.98 936.75 2708.34 794.19 2778.81 794.19 2673.1 908.78 2783.27 1077.66 2718.46 1077.66 2637.07 948.07"/>
            </g>
            <g id="Arabic">
              <polygon class="st9" points="2713.28 324.78 2713.28 624.31 2765.91 624.31 2765.91 311.09 2713.28 324.78"/>
              <path class="st9" d="M1978.28,624.31c21.31,0,40.66-8.23,55.17-21.65,14.51,13.38,33.86,21.65,55.17,21.65h63.2c21.31,0,40.66-8.23,55.17-21.65,14.51,13.38,33.86,21.65,55.17,21.65h125.68c21.31,0,40.66-8.23,55.17-21.65,14.51,13.38,33.86,21.65,55.17,21.65h85.57c32.56,0,58.98-26.42,58.98-58.98v-254.24l-52.6,13.72v226.62c0,11.19-9.09,20.28-20.28,20.28h-80.25c-11.19,0-20.28-9.09-20.28-20.28v-134.63l-52.6,13.72v120.94c0,11.19-9.09,20.28-20.28,20.28h-142.87c-11.19,0-20.28-9.09-20.28-20.28v-134.63l-52.6,13.72v120.94c0,11.19-9.09,20.28-20.28,20.28h-80.39c-11.19,0-20.28-9.09-20.28-20.28v-240.35l-52.6,13.72v226.62c0,11.19-9.09,20.28-20.28,20.28h-173.92c-37.43,0-68-30.57-68-68,0-19.25,8.06-36.68,21.07-49.03l-55.51-14.44c-11.43,18.46-18.08,40.18-18.08,63.44,0,66.56,54.11,120.6,120.53,120.6h165.31v-.03Z"/>
              <circle class="st9" cx="2443.49" cy="690.4" r="31.57"/>
              <circle class="st9" cx="2206.99" cy="340.88" r="31.57"/>
              <path class="st9" d="M1930.31,451.84h-25.7c-14.82,0-23.3-5.7-23.3-15.61,0-7.99,5.01-13.18,12.76-13.18,4.77,0,9.02,1.41,11.39,3.81l1.61,1.61,20.41-21.86-1.51-1.51c-8.78-8.78-21.79-14-34.76-14-24.39,0-44.26,17.33-44.26,38.67,0,7.75,2.37,15.44,6.76,22.1h-17.36v36.4h93.98v-36.4l-.03-.03Z"/>
              <polygon class="st9" points="1499.61 624.31 1552.21 624.31 1552.21 311.09 1499.61 324.78 1499.61 624.31"/>
              <path class="st9" d="M1267.88,624.31c-42.61,0-59.6-4.39-88.25-15.13-22.64,8.61-43.03,15.13-77.64,15.13h-164.18c-10.64,0-20.76-2.06-30.02-5.76-3.33,79.5-50.33,96.14-111.92,96.14h-17.09l13.79-47.9,6.28-.48c43.61-3.33,56.78-15.41,56.78-57.13v-178.65l52.6-13.69v134.63c0,11.19,9.06,20.28,20.28,20.28l201.85.14c-19.59-14.68-34.55-61.35-83.07-100.98l7.17-28.37c23.61-22.89,62.65-37.88,106.88-37.88,73.15,0,128.42,39.73,128.42,88.76,0,30.91-16.95,58.5-43.68,78.5h0l110.1-.14c11.19,0,20.28-9.09,20.28-20.28v-226.62l52.6-13.69v254.24c0,32.56-26.38,58.98-58.98,58.98h-102.18l-.03-.1ZM1160.8,449.64c-22.75,0-43.47,4.94-58.47,12.94,36.4,31.02,54.14,84.99,81.97,100.19,27.31-12.73,58.43-35.89,57.64-69.58-.58-24.05-36.61-43.57-81.11-43.57l-.03.03Z"/>
              <path class="st9" d="M697.95,430.49v120.94c0,11.19-9.09,20.28-20.28,20.28h-80.18c-11.19,0-20.28-9.09-20.28-20.28v-134.02h-108.66c-32.56,0-58.98,26.42-58.98,58.98v75.04c0,11.19-9.09,20.24-20.28,20.24h-83.48c-39.15,0-73.15-32.05-71.33-71.13.82-17.98,8.71-34.17,21-45.87l-55.51-14.44c-11.46,18.46-18.08,40.18-18.08,63.44,0,66.56,54.11,120.57,120.53,120.57h100.77c32.56,0,58.98-26.45,58.98-59.01v-79.43c0-11.19,9.09-20.28,20.28-20.28h42.13v99.74c0,32.56,26.38,58.98,58.98,58.98h108.01c32.56,0,58.98-26.42,58.98-58.98v-148.56l-52.6,13.69v.1Z"/>
              <circle class="st9" cx="718.98" cy="690.4" r="31.57" transform="translate(-209.47 327.69) rotate(-22.5)"/>
              <circle class="st9" cx="368.02" cy="690.4" r="31.57"/>
              <circle class="st9" cx="291.85" cy="690.4" r="31.57"/>
            </g>
          </g>
          <g id="Arab_Bank_Symbol">
            <path class="st10" d="M3781.88,701.24c0-124.82-101.18-226-226-226s-226,101.18-226,226,101.18,226,226,226v258.08c-267.35,0-484.09-216.74-484.09-484.09s216.74-484.09,484.09-484.09,484.09,216.74,484.09,484.09h-258.08Z"/>
            <path id="Shading_1" class="st8" d="M3071.79,701.24c0-267.35,216.74-484.09,484.09-484.09s484.09,216.74,484.09,484.09h-258.08c0-124.82-101.18-226-226-226s-226,101.18-226,226h-258.08Z"/>
            <path class="st0" d="M4848.87,701.24c0-267.35,216.74-484.09,484.09-484.09s484.09,216.74,484.09,484.09-216.74,484.09-484.09,484.09v-258.08c124.82,0,226-101.18,226-226s-101.18-226-226-226-226,101.18-226,226h-258.08Z"/>
            <path class="st1" d="M5106.95,701.24c0,124.82,101.18,226,226,226s226-101.18,226-226h258.08c0,267.35-216.74,484.09-484.09,484.09s-484.09-216.74-484.09-484.09h258.08Z"/>
            <path id="Shading_2" class="st5" d="M5106.95,701.24c0,124.82,101.18,226,226,226s226-101.18,226-226h258.08c0,267.35-216.74,484.09-484.09,484.09s-484.09-216.74-484.09-484.09h258.08Z"/>
            <path class="st2" d="M3781.88,701.24c0-365.89,296.61-662.54,662.54-662.54s662.54,296.61,662.54,662.54h-258.08c0-223.36-181.09-404.45-404.45-404.45s-404.45,181.09-404.45,404.45c0,267.35-216.74,484.09-484.09,484.09s-484.09-216.74-484.09-484.09h258.08c0,124.82,101.18,226,226,226s226-101.18,226-226Z"/>
            <path id="Shading_3" class="st7" d="M3781.88,701.24c0-365.89,296.61-662.54,662.54-662.54s662.54,296.61,662.54,662.54h-258.08c0-223.36-181.09-404.45-404.45-404.45s-404.45,181.09-404.45,404.45h-258.08Z"/>
            <path class="st3" d="M5332.92,217.15c-267.35,0-484.09,216.74-484.09,484.09,0,223.36-181.09,404.45-404.45,404.45s-404.42-181.06-404.45-404.42c0,140.26-59.67,266.59-155.02,355.01,117.55,184.83,324.17,307.49,559.47,307.49,365.92,0,662.54-296.61,662.54-662.54,0-124.82,101.18-226,226-226s226,101.18,226,226h258.08c0-267.35-216.74-484.09-484.09-484.09h0Z"/>
            <path id="Shading_4" class="st6" d="M4848.87,701.24c0,223.36-181.09,404.45-404.45,404.45s-404.42-181.06-404.45-404.42c0,140.26-59.67,266.59-155.02,355.01,117.55,184.83,324.17,307.49,559.47,307.49,365.92,0,662.54-296.61,662.54-662.54h-258.08,0Z"/>
          </g>
        </g>
        <g>
          <path class="st9" d="M1568.99,1632.29h45.91c32.35,0,57.47,12.56,57.47,45.67,0,17.88-8.71,29.71-21.99,36.47,20.04,6.52,32.11,20.76,32.11,40.56,0,28.99-25.12,47.11-59.91,47.11h-53.63v-169.8h.03ZM1593.86,1653.56v53.39h21c21,0,31.87-11.12,31.87-28.27s-11.12-25.12-31.87-25.12h-21ZM1593.86,1725.3v55.55h29.47c22.95,0,33.56-13.76,33.56-27.55,0-15.71-12.8-28.03-36.47-28.03h-26.56v.03Z"/>
          <path class="st9" d="M1838.33,1791.73c-12.32,8.2-30.91,13.28-50.95,13.28-42.03,0-66.67-24.15-66.67-65.22s28.03-67.63,63.27-67.63,60.63,21.48,60.63,66.43c0,2.88-.24,6.28-.72,8.2h-97.82c2.4,25.36,17.64,37.67,44.19,37.67,14.96,0,28.03-2.4,43.47-10.88l4.6,18.12v.03ZM1746.3,1729.39h72.94c-2.4-24.88-15.47-36.71-35.75-36.71s-34.28,12.32-37.19,36.71Z"/>
          <path class="st9" d="M1944.1,1672.16c20.52,0,36.23,9.16,47.11,25.84v-22.71h24.15v125.82c0,32.84-29.23,54.35-67.15,54.35-20.28,0-43.95-6.04-57.71-15.95l3.88-21.99c15.71,10.4,37.91,15.95,54.11,15.95,22.95,0,42.75-11.6,42.75-34.52v-23.43c-10.88,17.4-26.32,25.6-47.11,25.6-33.56,0-61.83-21.24-61.83-63.75s27.79-65.22,61.83-65.22l-.03.03ZM1946.3,1779.86c23.67,0,39.83-16.43,44.91-41.55v-.72c-5.32-25.84-22.95-44.19-44.91-44.19s-38.87,13.04-38.87,43.47c0,28.03,16.92,42.99,38.87,42.99Z"/>
          <path class="st9" d="M2082.31,1620.97c8.68,0,16.19,6.52,16.19,15.71s-7.48,15.95-16.19,15.95-16.19-6.76-16.19-15.95,7.48-15.71,16.19-15.71ZM2069.99,1675.31h24.15v126.81h-24.15v-126.81Z"/>
          <path class="st9" d="M2148.73,1675.31h24.15v27.04c12.56-20.28,28.99-29.95,49.27-29.95,23.91,0,43.95,12.08,43.95,52.39v77.3h-24.15v-74.87c0-23.43-9.92-33.56-25.36-33.56-19.8,0-33.08,13.04-43.71,39.83v68.59h-24.15v-126.81.03Z"/>
          <path class="st9" d="M2319.29,1675.31h24.15v27.04c12.56-20.28,28.99-29.95,49.27-29.95,23.91,0,43.95,12.08,43.95,52.39v77.3h-24.15v-74.87c0-23.43-9.92-33.56-25.36-33.56-19.8,0-33.08,13.04-43.71,39.83v68.59h-24.15v-126.81.03Z"/>
          <path class="st9" d="M2502.13,1620.97c8.68,0,16.19,6.52,16.19,15.71s-7.48,15.95-16.19,15.95-16.19-6.76-16.19-15.95,7.48-15.71,16.19-15.71ZM2489.81,1675.31h24.15v126.81h-24.15v-126.81Z"/>
          <path class="st9" d="M2568.56,1675.31h24.15v27.04c12.56-20.28,28.99-29.95,49.27-29.95,23.91,0,43.95,12.08,43.95,52.39v77.3h-24.15v-74.87c0-23.43-9.92-33.56-25.36-33.56-19.8,0-33.08,13.04-43.71,39.83v68.59h-24.15v-126.81.03Z"/>
          <path class="st9" d="M2792.98,1672.16c20.52,0,36.23,9.16,47.11,25.84v-22.71h24.15v125.82c0,32.84-29.23,54.35-67.15,54.35-20.28,0-43.95-6.04-57.71-15.95l3.88-21.99c15.71,10.4,37.91,15.95,54.11,15.95,22.95,0,42.75-11.6,42.75-34.52v-23.43c-10.88,17.4-26.32,25.6-47.11,25.6-33.56,0-61.83-21.24-61.83-63.75s27.79-65.22,61.83-65.22l-.03.03ZM2795.14,1779.86c23.67,0,39.83-16.43,44.91-41.55v-.72c-5.32-25.84-22.95-44.19-44.91-44.19s-38.87,13.04-38.87,43.47c0,28.03,16.92,42.99,38.87,42.99Z"/>
          <path class="st9" d="M2909.67,1794.61l5.32-20.76c10.88,6.52,25.6,10.88,39.83,10.88,16.67,0,28.03-4.6,28.03-17.4,0-28.99-70.99-4.36-70.99-56.27,0-23.19,18.12-38.87,49.51-38.87,14.24,0,30.19,3.84,41.31,10.16l-5.08,20.52c-11.12-6.52-22.95-10.4-35.51-10.4-14.51,0-25.84,6.04-25.84,17.16,0,32.11,70.51,7.48,70.51,55.79,0,24.15-23.19,39.35-52.39,39.35-17.16,0-34.79-5.08-44.67-10.16h-.03Z"/>
          <path class="st9" d="M3126.82,1675.31h24.15v27.04c12.56-20.28,28.99-29.95,49.27-29.95,23.91,0,43.95,12.08,43.95,52.39v77.3h-24.15v-74.87c0-23.43-9.92-33.56-25.36-33.56-19.8,0-33.08,13.04-43.71,39.83v68.59h-24.15v-126.81.03Z"/>
          <path class="st9" d="M3407,1791.73c-12.32,8.2-30.91,13.28-50.95,13.28-42.03,0-66.67-24.15-66.67-65.22s28.03-67.63,63.27-67.63,60.63,21.48,60.63,66.43c0,2.88-.24,6.28-.72,8.2h-97.82c2.4,25.36,17.64,37.67,44.19,37.67,14.96,0,28.03-2.4,43.47-10.88l4.6,18.12v.03ZM3314.98,1729.39h72.94c-2.4-24.88-15.47-36.71-35.75-36.71s-34.31,12.32-37.19,36.71h0Z"/>
          <path class="st9" d="M3439.43,1675.31h28l36.23,97.58,36.71-97.58h27.07l-52.91,126.81h-23.43l-51.67-126.81Z"/>
          <path class="st9" d="M3711.13,1791.73c-12.32,8.2-30.91,13.28-50.95,13.28-42.03,0-66.67-24.15-66.67-65.22s28.03-67.63,63.27-67.63,60.63,21.48,60.63,66.43c0,2.88-.24,6.28-.72,8.2h-97.82c2.4,25.36,17.64,37.67,44.19,37.67,14.96,0,28.03-2.4,43.47-10.88l4.6,18.12v.03ZM3619.11,1729.39h72.94c-2.4-24.88-15.47-36.71-35.75-36.71s-34.31,12.32-37.19,36.71Z"/>
          <path class="st9" d="M3763.11,1675.31h24.15v26.56c10.16-16.43,24.15-28.99,42.51-28.99,4.36,0,8.72.48,12.8,1.92l-4.08,21c-3.4-1.2-7.24-1.92-10.64-1.92-17.16,0-31.63,15.95-40.59,39.35v68.83h-24.15v-126.81.07Z"/>
          <path class="st9" d="M4058.76,1791.73c-12.32,8.2-30.91,13.28-50.95,13.28-42.03,0-66.67-24.15-66.67-65.22s28.03-67.63,63.27-67.63,60.63,21.48,60.63,66.43c0,2.88-.24,6.28-.72,8.2h-97.82c2.4,25.36,17.64,37.67,44.19,37.67,14.96,0,28.03-2.4,43.47-10.88l4.6,18.12v.03ZM3966.74,1729.39h72.94c-2.4-24.88-15.47-36.71-35.75-36.71s-34.28,12.32-37.19,36.71Z"/>
          <path class="st9" d="M4110.71,1675.31h24.15v27.04c12.56-20.28,28.99-29.95,49.27-29.95,23.91,0,43.95,12.08,43.95,52.39v77.3h-24.15v-74.87c0-23.43-9.92-33.56-25.36-33.56-19.8,0-33.08,13.04-43.71,39.83v68.59h-24.15v-126.81.03Z"/>
          <path class="st9" d="M4335.1,1672.16c20.28,0,35.99,8.92,46.87,25.36v-65.22h24.15v169.8h-23.91v-24.88c-10.88,17.88-26.32,27.55-47.11,27.55-33.56,0-61.83-23.19-61.83-65.94s27.79-66.67,61.83-66.67h0ZM4337.3,1783.49c23.91,0,39.83-19.32,44.91-44.67v-.96c-5.32-25.84-22.95-44.43-44.91-44.43s-38.63,14.48-38.63,45.15c0,28.51,16.67,44.91,38.63,44.91h0Z"/>
        </g>
      </g>
    </g>
  </g>
</svg>