<?xml version="1.0" encoding="UTF-8"?>
<svg xmlns="http://www.w3.org/2000/svg" xmlns:xlink="http://www.w3.org/1999/xlink" width="890.85pt" height="211.78pt" viewBox="0 0 890.85 211.78" version="1.1">
<defs>
<clipPath id="clip1">
  <path d="M 679 0 L 890.800781 0 L 890.800781 211.78125 L 679 211.78125 Z M 679 0 "/>
</clipPath>
<linearGradient id="linear0" gradientUnits="userSpaceOnUse" x1="0.0135398" y1="0" x2="0.945234" y2="0" gradientTransform="matrix(227.317,-227.317,227.317,227.317,675.955,214.89064)">
<stop offset="0" style="stop-color:rgb(93.331909%,18.431091%,17.254639%);stop-opacity:1;"/>
<stop offset="0.25" style="stop-color:rgb(93.344116%,18.569946%,17.23938%);stop-opacity:1;"/>
<stop offset="0.28125" style="stop-color:rgb(93.373108%,18.870544%,17.207336%);stop-opacity:1;"/>
<stop offset="0.296875" style="stop-color:rgb(93.397522%,19.13147%,17.179871%);stop-opacity:1;"/>
<stop offset="0.3125" style="stop-color:rgb(93.417358%,19.348145%,17.156982%);stop-opacity:1;"/>
<stop offset="0.328125" style="stop-color:rgb(93.438721%,19.592285%,17.131042%);stop-opacity:1;"/>
<stop offset="0.34375" style="stop-color:rgb(93.463135%,19.862366%,17.103577%);stop-opacity:1;"/>
<stop offset="0.359375" style="stop-color:rgb(93.490601%,20.158386%,17.071533%);stop-opacity:1;"/>
<stop offset="0.375" style="stop-color:rgb(93.521118%,20.480347%,17.037964%);stop-opacity:1;"/>
<stop offset="0.390625" style="stop-color:rgb(93.553162%,20.828247%,17.001343%);stop-opacity:1;"/>
<stop offset="0.40625" style="stop-color:rgb(93.586731%,21.202087%,16.96167%);stop-opacity:1;"/>
<stop offset="0.414063" style="stop-color:rgb(93.614197%,21.495056%,16.931152%);stop-opacity:1;"/>
<stop offset="0.421875" style="stop-color:rgb(93.634033%,21.70105%,16.90979%);stop-opacity:1;"/>
<stop offset="0.429687" style="stop-color:rgb(93.652344%,21.911621%,16.886902%);stop-opacity:1;"/>
<stop offset="0.4375" style="stop-color:rgb(93.67218%,22.129822%,16.864014%);stop-opacity:1;"/>
<stop offset="0.445313" style="stop-color:rgb(93.693542%,22.3526%,16.841125%);stop-opacity:1;"/>
<stop offset="0.453125" style="stop-color:rgb(93.714905%,22.583008%,16.816711%);stop-opacity:1;"/>
<stop offset="0.460937" style="stop-color:rgb(93.736267%,22.819519%,16.792297%);stop-opacity:1;"/>
<stop offset="0.46875" style="stop-color:rgb(93.759155%,23.060608%,16.766357%);stop-opacity:1;"/>
<stop offset="0.476563" style="stop-color:rgb(93.780518%,23.309326%,16.740417%);stop-opacity:1;"/>
<stop offset="0.484375" style="stop-color:rgb(93.804932%,23.562622%,16.712952%);stop-opacity:1;"/>
<stop offset="0.492188" style="stop-color:rgb(93.829346%,23.823547%,16.687012%);stop-opacity:1;"/>
<stop offset="0.5" style="stop-color:rgb(93.85376%,24.08905%,16.65802%);stop-opacity:1;"/>
<stop offset="0.507813" style="stop-color:rgb(93.878174%,24.360657%,16.629028%);stop-opacity:1;"/>
<stop offset="0.515625" style="stop-color:rgb(93.904114%,24.639893%,16.600037%);stop-opacity:1;"/>
<stop offset="0.523438" style="stop-color:rgb(93.930054%,24.923706%,16.571045%);stop-opacity:1;"/>
<stop offset="0.53125" style="stop-color:rgb(93.95752%,25.213623%,16.540527%);stop-opacity:1;"/>
<stop offset="0.539063" style="stop-color:rgb(93.984985%,25.508118%,16.508484%);stop-opacity:1;"/>
<stop offset="0.546875" style="stop-color:rgb(94.012451%,25.810242%,16.47644%);stop-opacity:1;"/>
<stop offset="0.554687" style="stop-color:rgb(94.039917%,26.116943%,16.444397%);stop-opacity:1;"/>
<stop offset="0.5625" style="stop-color:rgb(94.068909%,26.431274%,16.412354%);stop-opacity:1;"/>
<stop offset="0.570313" style="stop-color:rgb(94.0979%,26.750183%,16.378784%);stop-opacity:1;"/>
<stop offset="0.578125" style="stop-color:rgb(94.128418%,27.075195%,16.343689%);stop-opacity:1;"/>
<stop offset="0.585938" style="stop-color:rgb(94.158936%,27.404785%,16.308594%);stop-opacity:1;"/>
<stop offset="0.59375" style="stop-color:rgb(94.189453%,27.742004%,16.273499%);stop-opacity:1;"/>
<stop offset="0.601562" style="stop-color:rgb(94.221497%,28.083801%,16.238403%);stop-opacity:1;"/>
<stop offset="0.609375" style="stop-color:rgb(94.25354%,28.433228%,16.201782%);stop-opacity:1;"/>
<stop offset="0.617188" style="stop-color:rgb(94.285583%,28.785706%,16.163635%);stop-opacity:1;"/>
<stop offset="0.625" style="stop-color:rgb(94.319153%,29.145813%,16.125488%);stop-opacity:1;"/>
<stop offset="0.632813" style="stop-color:rgb(94.352722%,29.510498%,16.087341%);stop-opacity:1;"/>
<stop offset="0.640625" style="stop-color:rgb(94.386292%,29.881287%,16.049194%);stop-opacity:1;"/>
<stop offset="0.648437" style="stop-color:rgb(94.421387%,30.258179%,16.009521%);stop-opacity:1;"/>
<stop offset="0.65625" style="stop-color:rgb(94.456482%,30.641174%,15.968323%);stop-opacity:1;"/>
<stop offset="0.664062" style="stop-color:rgb(94.493103%,31.028748%,15.927124%);stop-opacity:1;"/>
<stop offset="0.667969" style="stop-color:rgb(94.529724%,31.422424%,15.885925%);stop-opacity:1;"/>
<stop offset="0.671875" style="stop-color:rgb(94.548035%,31.620789%,15.866089%);stop-opacity:1;"/>
<stop offset="0.675781" style="stop-color:rgb(94.566345%,31.820679%,15.844727%);stop-opacity:1;"/>
<stop offset="0.679688" style="stop-color:rgb(94.584656%,32.022095%,15.823364%);stop-opacity:1;"/>
<stop offset="0.683594" style="stop-color:rgb(94.602966%,32.226563%,15.802002%);stop-opacity:1;"/>
<stop offset="0.6875" style="stop-color:rgb(94.621277%,32.43103%,15.78064%);stop-opacity:1;"/>
<stop offset="0.691406" style="stop-color:rgb(94.639587%,32.637024%,15.757751%);stop-opacity:1;"/>
<stop offset="0.695312" style="stop-color:rgb(94.659424%,32.843018%,15.736389%);stop-opacity:1;"/>
<stop offset="0.699219" style="stop-color:rgb(94.67926%,33.052063%,15.713501%);stop-opacity:1;"/>
<stop offset="0.703125" style="stop-color:rgb(94.699097%,33.262634%,15.692139%);stop-opacity:1;"/>
<stop offset="0.707031" style="stop-color:rgb(94.717407%,33.474731%,15.66925%);stop-opacity:1;"/>
<stop offset="0.710937" style="stop-color:rgb(94.737244%,33.686829%,15.647888%);stop-opacity:1;"/>
<stop offset="0.714844" style="stop-color:rgb(94.75708%,33.901978%,15.625%);stop-opacity:1;"/>
<stop offset="0.71875" style="stop-color:rgb(94.776917%,34.117126%,15.603638%);stop-opacity:1;"/>
<stop offset="0.722656" style="stop-color:rgb(94.796753%,34.333801%,15.579224%);stop-opacity:1;"/>
<stop offset="0.726563" style="stop-color:rgb(94.818115%,34.552002%,15.556335%);stop-opacity:1;"/>
<stop offset="0.730469" style="stop-color:rgb(94.837952%,34.773254%,15.533447%);stop-opacity:1;"/>
<stop offset="0.734375" style="stop-color:rgb(94.857788%,34.994507%,15.510559%);stop-opacity:1;"/>
<stop offset="0.738281" style="stop-color:rgb(94.877625%,35.217285%,15.486145%);stop-opacity:1;"/>
<stop offset="0.742187" style="stop-color:rgb(94.898987%,35.440063%,15.463257%);stop-opacity:1;"/>
<stop offset="0.746094" style="stop-color:rgb(94.918823%,35.665894%,15.438843%);stop-opacity:1;"/>
<stop offset="0.75" style="stop-color:rgb(94.940186%,35.89325%,15.415955%);stop-opacity:1;"/>
<stop offset="0.753906" style="stop-color:rgb(94.961548%,36.122131%,15.391541%);stop-opacity:1;"/>
<stop offset="0.757813" style="stop-color:rgb(94.98291%,36.351013%,15.367126%);stop-opacity:1;"/>
<stop offset="0.761719" style="stop-color:rgb(95.004272%,36.581421%,15.342712%);stop-opacity:1;"/>
<stop offset="0.765625" style="stop-color:rgb(95.025635%,36.813354%,15.318298%);stop-opacity:1;"/>
<stop offset="0.769531" style="stop-color:rgb(95.046997%,37.04834%,15.293884%);stop-opacity:1;"/>
<stop offset="0.773437" style="stop-color:rgb(95.068359%,37.283325%,15.26947%);stop-opacity:1;"/>
<stop offset="0.777344" style="stop-color:rgb(95.089722%,37.519836%,15.24353%);stop-opacity:1;"/>
<stop offset="0.78125" style="stop-color:rgb(95.11261%,37.756348%,15.219116%);stop-opacity:1;"/>
<stop offset="0.785156" style="stop-color:rgb(95.133972%,37.995911%,15.193176%);stop-opacity:1;"/>
<stop offset="0.789063" style="stop-color:rgb(95.15686%,38.237%,15.168762%);stop-opacity:1;"/>
<stop offset="0.792969" style="stop-color:rgb(95.178223%,38.479614%,15.142822%);stop-opacity:1;"/>
<stop offset="0.796875" style="stop-color:rgb(95.201111%,38.722229%,15.118408%);stop-opacity:1;"/>
<stop offset="0.800781" style="stop-color:rgb(95.223999%,38.967896%,15.092468%);stop-opacity:1;"/>
<stop offset="0.804688" style="stop-color:rgb(95.246887%,39.213562%,15.066528%);stop-opacity:1;"/>
<stop offset="0.808594" style="stop-color:rgb(95.269775%,39.460754%,15.040588%);stop-opacity:1;"/>
<stop offset="0.8125" style="stop-color:rgb(95.292664%,39.709473%,15.014648%);stop-opacity:1;"/>
<stop offset="0.816406" style="stop-color:rgb(95.315552%,39.959717%,14.987183%);stop-opacity:1;"/>
<stop offset="0.820312" style="stop-color:rgb(95.33844%,40.211487%,14.961243%);stop-opacity:1;"/>
<stop offset="0.824219" style="stop-color:rgb(95.361328%,40.464783%,14.933777%);stop-opacity:1;"/>
<stop offset="0.828125" style="stop-color:rgb(95.385742%,40.718079%,14.907837%);stop-opacity:1;"/>
<stop offset="0.832031" style="stop-color:rgb(95.40863%,40.974426%,14.880371%);stop-opacity:1;"/>
<stop offset="0.835938" style="stop-color:rgb(95.433044%,41.230774%,14.854431%);stop-opacity:1;"/>
<stop offset="0.839844" style="stop-color:rgb(95.455933%,41.488647%,14.826965%);stop-opacity:1;"/>
<stop offset="0.84375" style="stop-color:rgb(95.480347%,41.748047%,14.7995%);stop-opacity:1;"/>
<stop offset="0.847656" style="stop-color:rgb(95.504761%,42.008972%,14.772034%);stop-opacity:1;"/>
<stop offset="0.851563" style="stop-color:rgb(95.529175%,42.271423%,14.744568%);stop-opacity:1;"/>
<stop offset="0.855469" style="stop-color:rgb(95.552063%,42.5354%,14.715576%);stop-opacity:1;"/>
<stop offset="0.859375" style="stop-color:rgb(95.576477%,42.800903%,14.68811%);stop-opacity:1;"/>
<stop offset="0.863281" style="stop-color:rgb(95.600891%,43.067932%,14.660645%);stop-opacity:1;"/>
<stop offset="0.867187" style="stop-color:rgb(95.626831%,43.334961%,14.633179%);stop-opacity:1;"/>
<stop offset="0.871094" style="stop-color:rgb(95.651245%,43.605042%,14.604187%);stop-opacity:1;"/>
<stop offset="0.875" style="stop-color:rgb(95.675659%,43.875122%,14.575195%);stop-opacity:1;"/>
<stop offset="0.878906" style="stop-color:rgb(95.700073%,44.146729%,14.546204%);stop-opacity:1;"/>
<stop offset="0.882813" style="stop-color:rgb(95.726013%,44.419861%,14.518738%);stop-opacity:1;"/>
<stop offset="0.886719" style="stop-color:rgb(95.750427%,44.694519%,14.489746%);stop-opacity:1;"/>
<stop offset="0.890625" style="stop-color:rgb(95.776367%,44.970703%,14.460754%);stop-opacity:1;"/>
<stop offset="0.894531" style="stop-color:rgb(95.802307%,45.248413%,14.430237%);stop-opacity:1;"/>
<stop offset="0.898438" style="stop-color:rgb(95.828247%,45.526123%,14.401245%);stop-opacity:1;"/>
<stop offset="0.902344" style="stop-color:rgb(95.854187%,45.806885%,14.372253%);stop-opacity:1;"/>
<stop offset="0.90625" style="stop-color:rgb(95.880127%,46.087646%,14.343262%);stop-opacity:1;"/>
<stop offset="0.910156" style="stop-color:rgb(95.906067%,46.369934%,14.312744%);stop-opacity:1;"/>
<stop offset="0.914063" style="stop-color:rgb(95.932007%,46.653748%,14.283752%);stop-opacity:1;"/>
<stop offset="0.917969" style="stop-color:rgb(95.957947%,46.939087%,14.253235%);stop-opacity:1;"/>
<stop offset="0.921875" style="stop-color:rgb(95.985413%,47.225952%,14.222717%);stop-opacity:1;"/>
<stop offset="0.925781" style="stop-color:rgb(96.011353%,47.514343%,14.1922%);stop-opacity:1;"/>
<stop offset="0.929688" style="stop-color:rgb(96.037292%,47.802734%,14.161682%);stop-opacity:1;"/>
<stop offset="0.933594" style="stop-color:rgb(96.057129%,48.017883%,14.138794%);stop-opacity:1;"/>
<stop offset="0.9375" style="stop-color:rgb(96.076965%,48.234558%,14.117432%);stop-opacity:1;"/>
<stop offset="1" style="stop-color:rgb(96.076965%,48.234558%,14.117432%);stop-opacity:1;"/>
</linearGradient>
</defs>
<g id="surface1">
<g clip-path="url(#clip1)" clip-rule="nonzero">
<path style=" stroke:none;fill-rule:nonzero;fill:url(#linear0);" d="M 573.109375 105.890625 L 784.898438 317.679688 L 996.691406 105.890625 L 784.898438 -105.898438 Z M 573.109375 105.890625 "/>
</g>
<path style=" stroke:none;fill-rule:nonzero;fill:rgb(100%,100%,100%);fill-opacity:1;" d="M 840.0625 71.15625 L 840.0625 167.625 L 853.039063 177.625 L 853.039063 81.15625 Z M 840.0625 71.15625 "/>
<path style=" stroke:none;fill-rule:nonzero;fill:rgb(100%,100%,100%);fill-opacity:1;" d="M 716.875 177.625 L 729.851563 167.625 L 729.851563 71.152344 L 716.875 81.152344 Z M 716.875 177.625 "/>
<path style=" stroke:none;fill-rule:nonzero;fill:rgb(100%,100%,100%);fill-opacity:1;" d="M 821.261719 56.902344 C 808.988281 32.847656 784.28125 32.246094 784.28125 32.246094 C 784.28125 32.246094 759.175781 32.859375 746.898438 57.238281 C 743.898438 63.195313 741.660156 70.558594 740.746094 79.6875 C 740.734375 79.933594 740.722656 80.1875 740.710938 80.433594 L 740.710938 158.640625 L 753.476563 148.46875 L 753.476563 84.769531 C 753.476563 74.480469 757.175781 64.441406 764.21875 56.9375 C 768.34375 52.539063 773.964844 48.457031 781.59375 45.699219 C 783.320313 45.074219 785.222656 45.070313 786.945313 45.695313 C 806.074219 52.601563 812.40625 67.859375 814.375 75.507813 C 814.640625 77.660156 814.90625 79.78125 815.171875 81.933594 L 815.171875 148.46875 L 827.59375 158.46875 L 827.59375 80.433594 C 827.578125 80.1875 827.566406 79.933594 827.554688 79.6875 C 826.621094 70.386719 824.328125 62.914063 821.261719 56.902344 "/>
<path style=" stroke:none;fill-rule:nonzero;fill:rgb(100%,100%,100%);fill-opacity:1;" d="M 790.394531 62.210938 C 788.566406 61.414063 786.496094 60.863281 784.152344 60.679688 C 781.796875 60.863281 779.730469 61.417969 777.898438 62.21875 C 769.011719 66.097656 765.910156 75.894531 765.132813 78.988281 C 764.988281 79.566406 764.921875 80.148438 764.921875 80.742188 L 764.921875 141.902344 L 777.898438 134.902344 L 777.898438 82.058594 C 777.898438 78.347656 780.300781 75.027344 783.855469 73.976563 C 784.042969 73.921875 784.152344 73.898438 784.152344 73.898438 C 784.152344 73.898438 784.257813 73.921875 784.441406 73.976563 C 787.996094 75.023438 790.394531 78.339844 790.394531 82.042969 L 790.394531 135.019531 L 803.371094 142.019531 L 803.371094 80.308594 C 803.363281 79.984375 803.328125 79.660156 803.25 79.339844 C 802.640625 76.714844 799.65625 66.25 790.394531 62.210938 "/>
<path style=" stroke:none;fill-rule:nonzero;fill:rgb(39.598083%,38.426208%,38.426208%);fill-opacity:1;" d="M 6.667969 171.410156 C 7.972656 171.640625 9.886719 171.71875 12.265625 171.71875 C 19.164063 171.71875 25.523438 169.1875 25.523438 161.675781 C 25.523438 154.625 19.46875 151.714844 12.1875 151.714844 L 6.667969 151.714844 Z M 6.667969 146.65625 L 12.722656 146.65625 C 19.773438 146.65625 23.914063 142.972656 23.914063 137.992188 C 23.914063 131.9375 19.316406 129.5625 12.570313 129.5625 C 9.503906 129.5625 7.742188 129.792969 6.667969 130.023438 Z M 0 125.5 C 2.914063 124.886719 7.511719 124.425781 12.1875 124.425781 C 18.855469 124.425781 23.148438 125.578125 26.367188 128.183594 C 29.050781 130.175781 30.660156 133.242188 30.660156 137.304688 C 30.660156 142.285156 27.363281 146.65625 21.921875 148.644531 L 21.921875 148.800781 C 26.828125 150.027344 32.574219 154.089844 32.574219 161.753906 C 32.574219 166.199219 30.8125 169.570313 28.207031 172.101563 C 24.605469 175.394531 18.777344 176.929688 10.347656 176.929688 C 5.75 176.929688 2.222656 176.625 0 176.316406 "/>
<path style=" stroke:none;fill-rule:nonzero;fill:rgb(39.598083%,38.426208%,38.426208%);fill-opacity:1;" d="M 69.117188 157.539063 C 61.757813 157.386719 53.40625 158.6875 53.40625 165.890625 C 53.40625 170.261719 56.316406 172.332031 59.765625 172.332031 C 64.59375 172.332031 67.660156 169.265625 68.734375 166.121094 C 68.964844 165.433594 69.117188 164.667969 69.117188 163.976563 Z M 70.113281 176.46875 L 69.578125 171.792969 L 69.347656 171.792969 C 67.277344 174.707031 63.292969 177.3125 58.003906 177.3125 C 50.492188 177.3125 46.660156 172.023438 46.660156 166.660156 C 46.660156 157.691406 54.628906 152.785156 68.964844 152.863281 L 68.964844 152.097656 C 68.964844 149.03125 68.121094 143.511719 60.53125 143.511719 C 57.082031 143.511719 53.480469 144.585938 50.875 146.269531 L 49.34375 141.824219 C 52.40625 139.832031 56.851563 138.527344 61.527344 138.527344 C 72.871094 138.527344 75.632813 146.269531 75.632813 153.707031 L 75.632813 167.578125 C 75.632813 170.796875 75.785156 173.941406 76.242188 176.46875 "/>
<path style=" stroke:none;fill-rule:nonzero;fill:rgb(39.598083%,38.426208%,38.426208%);fill-opacity:1;" d="M 94.867188 149.414063 C 94.867188 145.582031 94.792969 142.4375 94.5625 139.375 L 100.539063 139.375 L 100.921875 145.503906 L 101.074219 145.503906 C 102.914063 141.976563 107.207031 138.527344 113.339844 138.527344 C 118.476563 138.527344 126.445313 141.597656 126.445313 154.320313 L 126.445313 176.46875 L 119.699219 176.46875 L 119.699219 155.085938 C 119.699219 149.105469 117.480469 144.125 111.117188 144.125 C 106.671875 144.125 103.222656 147.269531 102.074219 151.023438 C 101.765625 151.867188 101.613281 153.015625 101.613281 154.164063 L 101.613281 176.46875 L 94.867188 176.46875 "/>
<path style=" stroke:none;fill-rule:nonzero;fill:rgb(39.598083%,38.426208%,38.426208%);fill-opacity:1;" d="M 171.613281 154.394531 C 171.613281 153.476563 171.539063 152.402344 171.308594 151.558594 C 170.3125 147.417969 166.710938 143.894531 161.652344 143.894531 C 154.675781 143.894531 150.460938 149.796875 150.460938 158.152344 C 150.460938 165.507813 153.988281 171.949219 161.421875 171.949219 C 165.789063 171.949219 169.546875 169.265625 171.078125 164.589844 C 171.386719 163.667969 171.613281 162.367188 171.613281 161.371094 Z M 171.613281 170.71875 L 171.464844 170.71875 C 169.46875 174.398438 165.328125 177.3125 159.351563 177.3125 C 150.691406 177.3125 143.640625 169.800781 143.640625 158.535156 C 143.640625 144.660156 152.609375 138.53125 160.425781 138.53125 C 166.171875 138.53125 170.007813 141.367188 171.84375 144.96875 L 172 144.96875 L 172.230469 139.375 L 178.589844 139.375 C 178.4375 142.515625 178.359375 145.734375 178.359375 149.566406 L 178.359375 191.644531 L 171.613281 191.644531 "/>
<path style=" stroke:none;fill-rule:nonzero;fill:rgb(39.598083%,38.426208%,38.426208%);fill-opacity:1;" d="M 228.964844 166.351563 C 228.964844 170.183594 229.039063 173.558594 229.269531 176.46875 L 223.289063 176.46875 L 222.90625 170.414063 L 222.753906 170.414063 C 220.992188 173.40625 217.082031 177.3125 210.492188 177.3125 C 204.664063 177.3125 197.691406 174.09375 197.691406 161.0625 L 197.691406 139.375 L 204.4375 139.375 L 204.4375 159.914063 C 204.4375 166.964844 206.582031 171.71875 212.714844 171.71875 C 217.234375 171.71875 220.378906 168.574219 221.605469 165.585938 C 221.988281 164.589844 222.21875 163.363281 222.21875 162.136719 L 222.21875 139.375 L 228.964844 139.375 "/>
<path style=" stroke:none;fill-rule:nonzero;fill:rgb(39.598083%,38.426208%,38.426208%);fill-opacity:1;" d="M 271.894531 154.320313 C 271.972656 150.027344 270.132813 143.359375 262.546875 143.359375 C 255.722656 143.359375 252.734375 149.644531 252.199219 154.320313 Z M 252.121094 159.148438 C 252.273438 168.269531 258.101563 172.023438 264.84375 172.023438 C 269.675781 172.023438 272.585938 171.179688 275.117188 170.109375 L 276.265625 174.9375 C 273.890625 176.007813 269.824219 177.238281 263.925781 177.238281 C 252.503906 177.238281 245.683594 169.722656 245.683594 158.535156 C 245.683594 147.34375 252.273438 138.53125 263.082031 138.53125 C 275.191406 138.53125 278.410156 149.183594 278.410156 156.003906 C 278.410156 157.382813 278.257813 158.457031 278.179688 159.148438 "/>
<path style=" stroke:none;fill-rule:nonzero;fill:rgb(39.598083%,38.426208%,38.426208%);fill-opacity:1;" d="M 344.589844 154.472656 C 344.589844 153.628906 344.515625 152.480469 344.285156 151.636719 C 343.289063 147.34375 339.609375 143.820313 334.550781 143.820313 C 327.574219 143.820313 323.4375 149.949219 323.4375 158.152344 C 323.4375 165.660156 327.117188 171.871094 334.398438 171.871094 C 338.921875 171.871094 343.058594 168.882813 344.285156 163.824219 C 344.515625 162.902344 344.589844 161.984375 344.589844 160.910156 Z M 351.335938 122.050781 L 351.335938 166.890625 C 351.335938 170.183594 351.414063 173.941406 351.644531 176.46875 L 345.589844 176.46875 L 345.28125 170.03125 L 345.128906 170.03125 C 343.058594 174.171875 338.535156 177.3125 332.480469 177.3125 C 323.515625 177.3125 316.617188 169.726563 316.617188 158.457031 C 316.539063 146.117188 324.203125 138.53125 333.246094 138.53125 C 338.921875 138.53125 342.753906 141.210938 344.4375 144.203125 L 344.589844 144.203125 L 344.589844 122.050781 "/>
<path style=" stroke:none;fill-rule:nonzero;fill:rgb(39.598083%,38.426208%,38.426208%);fill-opacity:1;" d="M 402.0625 166.351563 C 402.0625 170.183594 402.140625 173.558594 402.371094 176.46875 L 396.390625 176.46875 L 396.007813 170.414063 L 395.855469 170.414063 C 394.089844 173.40625 390.183594 177.3125 383.589844 177.3125 C 377.765625 177.3125 370.789063 174.09375 370.789063 161.0625 L 370.789063 139.375 L 377.535156 139.375 L 377.535156 159.914063 C 377.535156 166.964844 379.683594 171.71875 385.8125 171.71875 C 390.335938 171.71875 393.476563 168.574219 394.703125 165.585938 C 395.089844 164.589844 395.316406 163.363281 395.316406 162.136719 L 395.316406 139.375 L 402.0625 139.375 "/>
<path style=" stroke:none;fill-rule:nonzero;fill:rgb(39.598083%,38.426208%,38.426208%);fill-opacity:1;" d="M 482.257813 174.785156 C 479.804688 176.011719 474.898438 177.238281 468.613281 177.238281 C 454.050781 177.238281 443.089844 168.039063 443.089844 151.097656 C 443.089844 134.929688 454.050781 123.96875 470.070313 123.96875 C 476.507813 123.96875 480.570313 125.34375 482.332031 126.265625 L 480.722656 131.707031 C 478.195313 130.480469 474.59375 129.5625 470.300781 129.5625 C 458.191406 129.5625 450.140625 137.304688 450.140625 150.871094 C 450.140625 163.515625 457.421875 171.640625 469.992188 171.640625 C 474.054688 171.640625 478.195313 170.796875 480.878906 169.496094 "/>
<path style=" stroke:none;fill-rule:nonzero;fill:rgb(39.598083%,38.426208%,38.426208%);fill-opacity:1;" d="M 518.023438 157.539063 C 510.664063 157.386719 502.3125 158.6875 502.3125 165.890625 C 502.3125 170.261719 505.222656 172.332031 508.671875 172.332031 C 513.503906 172.332031 516.566406 169.265625 517.640625 166.121094 C 517.871094 165.433594 518.023438 164.667969 518.023438 163.976563 Z M 519.019531 176.46875 L 518.484375 171.792969 L 518.253906 171.792969 C 516.183594 174.707031 512.199219 177.3125 506.910156 177.3125 C 499.398438 177.3125 495.566406 172.023438 495.566406 166.660156 C 495.566406 157.691406 503.539063 152.785156 517.871094 152.863281 L 517.871094 152.097656 C 517.871094 149.03125 517.027344 143.511719 509.4375 143.511719 C 505.988281 143.511719 502.386719 144.585938 499.78125 146.269531 L 498.25 141.824219 C 501.316406 139.832031 505.757813 138.527344 510.433594 138.527344 C 521.777344 138.527344 524.539063 146.269531 524.539063 153.707031 L 524.539063 167.578125 C 524.539063 170.796875 524.691406 173.941406 525.152344 176.46875 "/>
<path style=" stroke:none;fill-rule:nonzero;fill:rgb(39.598083%,38.426208%,38.426208%);fill-opacity:1;" d="M 543.917969 139.371094 L 550.660156 139.371094 L 550.660156 176.46875 L 543.917969 176.46875 Z M 551.425781 128.949219 C 551.503906 131.246094 549.816406 133.085938 547.136719 133.085938 C 544.761719 133.085938 543.074219 131.246094 543.074219 128.949219 C 543.074219 126.574219 544.835938 124.734375 547.289063 124.734375 C 549.816406 124.734375 551.425781 126.574219 551.425781 128.949219 "/>
<path style=" stroke:none;fill-rule:nonzero;fill:rgb(39.598083%,38.426208%,38.426208%);fill-opacity:1;" d="M 569.503906 150.945313 C 569.503906 146.578125 569.425781 142.824219 569.195313 139.375 L 575.097656 139.375 L 575.328125 146.65625 L 575.632813 146.65625 C 577.320313 141.671875 581.382813 138.53125 585.90625 138.53125 C 586.671875 138.53125 587.207031 138.605469 587.820313 138.757813 L 587.820313 145.121094 C 587.128906 144.96875 586.441406 144.890625 585.519531 144.890625 C 580.769531 144.890625 577.394531 148.492188 576.476563 153.550781 C 576.324219 154.472656 576.171875 155.546875 576.171875 156.695313 L 576.171875 176.46875 L 569.503906 176.46875 "/>
<path style=" stroke:none;fill-rule:nonzero;fill:rgb(39.598083%,38.426208%,38.426208%);fill-opacity:1;" d="M 625.402344 154.320313 C 625.476563 150.027344 623.636719 143.359375 616.050781 143.359375 C 609.230469 143.359375 606.238281 149.644531 605.703125 154.320313 Z M 605.625 159.148438 C 605.78125 168.269531 611.605469 172.023438 618.347656 172.023438 C 623.179688 172.023438 626.089844 171.179688 628.621094 170.109375 L 629.769531 174.9375 C 627.394531 176.007813 623.332031 177.238281 617.429688 177.238281 C 606.007813 177.238281 599.1875 169.722656 599.1875 158.535156 C 599.1875 147.34375 605.78125 138.53125 616.589844 138.53125 C 628.695313 138.53125 631.917969 149.183594 631.917969 156.003906 C 631.917969 157.382813 631.761719 158.457031 631.6875 159.148438 "/>
<path style=" stroke:none;fill-rule:nonzero;fill:rgb(22.363281%,20.776367%,21.166992%);fill-opacity:1;" d="M 631.007813 66.429688 C 630.195313 64.242188 629.246094 62.085938 628.285156 59.902344 L 626.710938 56.128906 L 621.929688 58.378906 L 625.757813 71.425781 C 625.882813 72.101563 625.996094 72.777344 626.097656 73.457031 L 626.285156 84.273438 C 618.222656 83.746094 610.257813 85.515625 602.578125 82.261719 C 603.703125 76.234375 604.761719 70.535156 605.871094 64.585938 C 603.785156 64.105469 602.148438 63.726563 600.144531 63.265625 C 599.457031 68.40625 598.785156 73.179688 598.1875 77.964844 C 597.523438 83.257813 597.164063 83.832031 591.699219 84.039063 C 584.964844 84.296875 578.214844 84.046875 571.480469 84.289063 C 568.417969 84.398438 567.378906 83.414063 567.261719 80.335938 C 566.835938 69.132813 566.148438 57.941406 565.542969 46.746094 C 565.503906 46.050781 565.328125 45.363281 565.214844 44.640625 C 559.199219 46.339844 559.101563 46.351563 559.710938 52.105469 C 560.632813 60.769531 561.621094 69.425781 562.769531 78.058594 C 563.144531 80.890625 562.753906 82.523438 559.492188 82.851563 C 552.433594 83.5625 545.402344 85.203125 538.355469 85.238281 C 495.148438 85.46875 451.945313 85.277344 408.738281 85.402344 C 396.988281 85.4375 388.742188 80.816406 393.476563 65.9375 C 393.730469 65.140625 393.511719 64.195313 393.511719 63.320313 C 393.058594 63.285156 392.605469 63.25 392.152344 63.214844 C 391.046875 66.492188 389.867188 69.75 388.84375 73.054688 C 386.710938 79.953125 389.914063 87.097656 396.746094 89.429688 C 400.320313 90.652344 404.3125 91.117188 408.117188 91.132813 C 448.324219 91.246094 488.53125 91.132813 528.738281 91.246094 C 539.894531 91.28125 550.941406 90.964844 561.71875 87.695313 C 562.578125 87.433594 564.214844 87.367188 564.441406 87.78125 C 566.203125 90.976563 569.152344 90.03125 571.761719 90.066406 C 577.378906 90.144531 582.996094 90.050781 588.617188 90.09375 C 593.671875 90.128906 598.273438 89.117188 601.800781 84.261719 C 604.191406 90.441406 609.324219 89.972656 614.164063 90.066406 C 618.535156 90.15625 622.90625 90.023438 627.277344 90.109375 C 629.320313 90.148438 630.1875 89.410156 630.246094 87.3125 C 630.371094 83.207031 630.617188 79.097656 630.972656 75.007813 C 631.089844 73.671875 631.691406 72.25 631.929688 70.941406 L 632.617188 70.296875 "/>
<path style=" stroke:none;fill-rule:nonzero;fill:rgb(22.363281%,20.776367%,21.166992%);fill-opacity:1;" d="M 618.828125 105.035156 L 623.488281 109.699219 L 628.109375 105.035156 L 623.488281 100.375 Z M 618.828125 105.035156 "/>
<path style=" stroke:none;fill-rule:nonzero;fill:rgb(22.363281%,20.776367%,21.166992%);fill-opacity:1;" d="M 607.121094 46.441406 L 602.503906 41.78125 L 597.839844 46.441406 L 602.503906 51.105469 Z M 607.121094 46.441406 "/>
<path style=" stroke:none;fill-rule:nonzero;fill:rgb(22.363281%,20.776367%,21.166992%);fill-opacity:1;" d="M 467.414063 72.554688 C 472.4375 70.707031 477.609375 69.40625 482.800781 68.125 C 484.90625 67.605469 484.183594 65.316406 484.105469 63.984375 C 483.988281 61.972656 482.386719 63.492188 481.539063 63.578125 C 480.070313 63.722656 478.648438 64.28125 477.191406 64.589844 C 474.699219 65.117188 472.792969 64.113281 471.5 62.054688 C 470.898438 61.097656 469.730469 60.042969 470.839844 58.738281 C 472.480469 56.816406 474.542969 55.828125 477.128906 56.375 C 478.097656 56.582031 479.089844 56.816406 479.976563 57.242188 C 481.160156 57.816406 481.511719 57.085938 481.921875 56.28125 C 482.292969 55.558594 482.296875 55.035156 481.632813 54.347656 C 477.285156 49.839844 470.894531 50.714844 468.089844 56.367188 C 466.117188 60.339844 466.609375 64.015625 470.285156 67.21875 C 468.894531 67.996094 467.75 68.695313 466.554688 69.296875 C 465.488281 69.824219 465.703125 70.675781 465.84375 71.53125 C 465.984375 72.441406 466.546875 72.871094 467.414063 72.554688 "/>
<path style=" stroke:none;fill-rule:nonzero;fill:rgb(22.363281%,20.776367%,21.166992%);fill-opacity:1;" d="M 365.105469 51.484375 C 365.273438 54.460938 365.589844 57.425781 365.835938 60.398438 C 366.65625 70.398438 367.472656 80.402344 368.300781 90.488281 L 372.855469 90.488281 C 372.21875 74.90625 371.601563 59.800781 370.980469 44.644531 C 364.824219 45.941406 364.789063 45.941406 365.105469 51.484375 "/>
<path style=" stroke:none;fill-rule:nonzero;fill:rgb(22.363281%,20.776367%,21.166992%);fill-opacity:1;" d="M 332.171875 45.363281 L 327.550781 40.703125 L 322.890625 45.363281 L 327.550781 50.027344 Z M 332.171875 45.363281 "/>
<path style=" stroke:none;fill-rule:nonzero;fill:rgb(22.363281%,20.776367%,21.166992%);fill-opacity:1;" d="M 319.9375 45.363281 L 315.316406 40.703125 L 310.65625 45.363281 L 315.316406 50.027344 Z M 319.9375 45.363281 "/>
<path style=" stroke:none;fill-rule:nonzero;fill:rgb(22.363281%,20.776367%,21.166992%);fill-opacity:1;" d="M 323.628906 81.183594 C 322.992188 81.644531 322.15625 81.710938 321.453125 81.359375 C 316.933594 79.074219 313.375 73.554688 312.046875 71.265625 C 311.644531 70.582031 311.503906 69.789063 311.648438 69.011719 C 312.179688 66.140625 314.253906 59.277344 321.976563 59.648438 C 329.121094 59.992188 331.636719 66.128906 332.46875 69.382813 C 332.78125 70.605469 332.578125 71.90625 331.867188 72.949219 C 329.144531 76.945313 325.394531 79.914063 323.628906 81.183594 M 353.171875 44.230469 L 353.125 44.125 L 348.34375 46.375 L 349.953125 51.863281 C 352.121094 62.515625 352.917969 73.109375 352.519531 83.746094 L 329.722656 83.746094 C 331.976563 79.316406 334.9375 75.3125 336.039063 70.851563 C 337.289063 65.785156 334.8125 61.089844 330.902344 57.515625 C 326 53.027344 319.230469 52.617188 314.308594 57.308594 C 311.484375 60.007813 309.164063 63.765625 307.941406 67.476563 C 305.742188 74.171875 310.761719 78.628906 315.34375 83.792969 L 290.207031 83.792969 C 289.578125 70.765625 288.953125 57.765625 288.328125 44.722656 C 282.21875 45.914063 282.160156 45.921875 282.601563 51.460938 C 283.140625 58.289063 283.816406 65.101563 284.378906 71.925781 C 284.863281 77.84375 285.265625 83.769531 285.730469 90.089844 C 289.375 90.089844 292.714844 90.09375 296.054688 90.089844 C 304.273438 90.089844 312.546875 90.589844 320.394531 87.265625 C 321.089844 86.972656 322.140625 87.035156 322.855469 87.332031 C 333.441406 91.722656 344.515625 89.527344 355.851563 90.167969 C 356.179688 88.074219 356.613281 86.496094 356.640625 84.914063 C 356.71875 80.636719 356.695313 76.355469 356.730469 72.074219 L 357.105469 63.71875 C 357.382813 62.265625 357.769531 60.808594 357.835938 59.414063 L 359.03125 58.292969 L 353.195313 44.292969 C 353.1875 44.273438 353.179688 44.25 353.171875 44.230469 "/>
<path style=" stroke:none;fill-rule:nonzero;fill:rgb(22.363281%,20.776367%,21.166992%);fill-opacity:1;" d="M 247.125 81.59375 C 246.277344 82.148438 245.210938 82.28125 244.269531 81.898438 C 240.804688 80.484375 237.652344 75.867188 236.109375 73.292969 C 235.328125 71.992188 235.144531 70.425781 235.613281 68.980469 C 236.460938 66.375 238.734375 62.714844 244.816406 62.804688 C 254.238281 62.945313 253.113281 72.742188 253.113281 72.742188 C 252.472656 77.5 249.015625 80.363281 247.125 81.59375 M 269.734375 64.421875 C 269.492188 63.71875 269.128906 63.007813 268.699219 62.300781 C 266.683594 58.488281 264.003906 55.222656 260.863281 52.71875 L 260.59375 50.921875 L 247.9375 46.558594 L 245.195313 52.046875 C 245.546875 52.105469 245.871094 52.1875 246.214844 52.257813 C 251.972656 54.402344 257.613281 56.398438 261.789063 60.523438 L 261.792969 60.523438 C 262.773438 61.492188 263.675781 62.582031 264.480469 63.816406 C 268.8125 70.480469 268.894531 77.78125 267.605469 85.851563 C 262.113281 85.347656 256.988281 84.878906 251.519531 84.375 C 258.601563 72.640625 258.792969 66.121094 252.601563 61.101563 C 247.878906 57.273438 241.355469 57.40625 236.828125 61.425781 C 230.476563 67.0625 230.601563 72.839844 237.710938 83.945313 L 47.035156 83.945313 C 46.03125 79.570313 45.273438 75.539063 44.148438 71.613281 C 43.035156 67.730469 41.546875 63.953125 40.128906 59.859375 C 37.980469 61.070313 36.28125 62.03125 34.800781 62.863281 C 37.449219 69.933594 40.054688 76.628906 42.414063 83.40625 C 42.949219 84.941406 43.164063 86.984375 42.601563 88.441406 C 39.222656 97.230469 33.433594 103.476563 23.644531 105.0625 C 21.59375 105.398438 19.53125 105.6875 17.472656 105.996094 C 17.230469 106.402344 16.984375 106.808594 16.742188 107.214844 C 17.292969 107.421875 17.84375 107.640625 18.40625 107.835938 C 29.070313 111.558594 34.78125 109.695313 41.144531 100.273438 C 42.460938 98.324219 43.847656 96.261719 44.472656 94.046875 C 45.382813 90.816406 47.070313 90.007813 50.335938 90.011719 C 109.761719 90.117188 169.183594 90.144531 228.605469 89.996094 C 233.753906 89.984375 238.894531 88.601563 244.050781 87.972656 C 245.339844 87.816406 246.699219 88.007813 247.996094 88.214844 C 255.558594 89.425781 263.117188 90.691406 270.46875 91.902344 C 273.945313 81.972656 273.171875 72.238281 269.714844 64.410156 "/>
<path style=" stroke:none;fill-rule:nonzero;fill:rgb(22.363281%,20.776367%,21.166992%);fill-opacity:1;" d="M 25.234375 45.363281 L 20.617188 40.703125 L 15.953125 45.363281 L 20.617188 50.027344 Z M 25.234375 45.363281 "/>
<path style=" stroke:none;fill-rule:nonzero;fill:rgb(22.363281%,20.776367%,21.166992%);fill-opacity:1;" d="M 13 45.363281 L 8.382813 40.703125 L 3.71875 45.363281 L 8.382813 50.027344 Z M 13 45.363281 "/>
<path style=" stroke:none;fill-rule:nonzero;fill:rgb(22.363281%,20.776367%,21.166992%);fill-opacity:1;" d="M 5.148438 80.296875 C 5.148438 80.296875 9.332031 67.710938 17.628906 63.773438 L 26.03125 81.980469 C 26.03125 81.980469 15.414063 90.488281 5.148438 80.296875 M 30.371094 82.238281 C 28.5625 75.816406 26.371094 69.382813 23.351563 63.449219 L 23.351563 63.441406 L 23.339844 63.429688 L 15.804688 53.9375 L 14.113281 51.804688 L 10.246094 54.898438 L 13.789063 59.414063 C 9.835938 64.847656 5.710938 69.515625 2.792969 74.84375 C -0.496094 80.847656 1.867188 86.449219 8.042969 89.378906 C 14.632813 92.503906 21.292969 91.6875 27.421875 88.347656 C 29.105469 87.429688 30.847656 83.9375 30.371094 82.238281 "/>
</g>
</svg>
