<svg xmlns="http://www.w3.org/2000/svg" width="322.771" height="56.146" version="1.2" viewBox="0 0 242.078 42.109"><defs><clipPath id="a"><path d="M105 3h16.04v15H105Zm0 0"/></clipPath></defs><path fill="#e3b505" d="M37.656 11.89v-.007h-.008c-.257-.156-.648-.25-.906-.133-1.664-.156-3.258-.14-4.937-.117h-.11c-.851.008-1.718.015-2.586 0l-7.047-.14a90.854 90.854 0 0 0-5.242.03c-1.312.016-2.593.055-3.89.086-1.352.04-4.594.047-6.524.055-1.031 0-1.57 0-1.633.008-.234.015-.507.328-.515.586 0 .14.078.312.328.328.18.023 1.352.023 3.477.023l2.164-.007c.578-.008.851 0 .976-.008h.008c1.601-.164 3.203-.149 4.75-.14h.117c1 .007 2.04.007 3.086-.032.211.047.445 0 .664-.047h.031a2.12 2.12 0 0 1 .297-.047c.242.063.516.063.797.055.274-.008.555-.008.813.055v.007h.047v-.008c.226-.078.43-.039.648.008.008 0 .047.008.047.008.101.016.195.031.289.031 2.016-.046 4.242.024 7.016.235l1.32.14h.015c1.164-.117 2.375-.023 3.547.063h.024c.883.062 1.71.125 2.539.101v.024l.047-.031v-.008l.43-.352h.007l.024-.015-.008-.008a.595.595 0 0 0-.102-.742"/><path fill="#006e30" d="m25.992 26.86.04-.024v-.086L26 24.008v-.016a14.3 14.3 0 0 1-.07-1.351c-.016-.54-.024-1.102-.102-1.602-.008-.71-.148-1.476-.289-2.21l-.094-.5-.008-.048-.03-.039c-.11-.11-.15-.25-.196-.406-.031-.133-.063-.273-.148-.406-.188-.336-.477-.664-.735-.946l-.015-.023c-.063-.078-.141-.125-.204-.172-.039-.023-.07-.047-.117-.078l-.055-.055-.039.008-.046-.039c-.235-.18-.446-.25-.696-.336h-.008c-.078-.101-.21-.117-.312-.125v-.062l-.125-.024-.61-.094-.085-.007-.055.07c-.031.031-.031.039-.164-.016-.055-.015-.117-.039-.188-.047l-.078-.007-.031.039a.273.273 0 0 0-.07-.047l-.25-.07-.024.117a.496.496 0 0 0-.289.062h-.773l.039.149h-.008c-.164-.04-.29.062-.36.117-.015.008-.023.023-.038.031-.125.016-.204.078-.258.117-.04.024-.055.04-.086.04l-.063.007-.039.047c-.062.07-.234.148-.328.187l-.21.094.046.04c-.031.023-.062.038-.094.07H18.5v.156h-.031l-.11-.047c-.007-.008-.078.094-.078.094-.125.164-.281.328-.445.508a4.353 4.353 0 0 0-.547.656l-.047.062.024.07c-.032.024-.125.087-.141.204-.078.078-.094.187-.11.258a.187.187 0 0 1-.015.07c-.078.094-.094.195-.11.273-.015.055-.015.086-.038.117l-.102.125.047.032c-.031.07-.031.156-.031.195v.063l-.07.046.023.102c.023.187 0 .367-.032.555-.023.187-.039.367-.023.578-.078.117-.062.25-.047.336 0 .023.008.062.008.086l-.094.078.063.117c.054.086.015.226-.024.36-.039.132-.086.288-.039.421-.008.016-.023.024-.031.04a.15.15 0 0 0-.031.116c0 .102-.008.141-.016.149l-.07.148-.008.055.125.102c-.016.086 0 .164.008.242.015.094.023.133-.008.172l-.086.156.086.094v.023c-.008.063-.016.188.07.281 0 .008.008.032.008.04l-.148.038.101.211c0 .016-.008.032-.015.055-.016.055-.047.18.023.29-.047.116-.016.233 0 .312a.228.228 0 0 1 .016.07c-.14.148-.07.344-.032.453-.07.102-.054.211-.039.29l-.187.062.195.203a.17.17 0 0 0 .016.148.244.244 0 0 0 .086.07l-.063.016c0 .008.008.016.008.024l.07.171v.024a.386.386 0 0 0 .055.281.28.28 0 0 0-.031.086l-.078.078.078.11c.055.086.031.187-.008.359-.04.148-.086.336 0 .5l-.102.101.133.102c-.008.008-.008.016-.008.016-.039.062-.101.187-.023.312l-.008-.015c.031.062.016.164 0 .265-.015.156-.039.344.047.531l-.023.188.007-.024c-.03.07-.007.133.016.18l-.062.024.046.132c.04.133.04.297.04.47 0 .335 0 .71.304.991l.063.07.086-.03c.218-.063.226-.29.234-.407.008-.023.008-.047.008-.07l.008-.031-.016-.032c-.086-.297-.047-.703-.016-1.047l.024-.273.008-.039-.024-.04c-.055-.116-.039-.241-.031-.382a1.062 1.062 0 0 0-.008-.414c.047-.64.016-1.406-.008-2.07-.008-.29-.023-.555-.023-.805v-.008l-.008-.008a5.892 5.892 0 0 1-.016-.984 6.497 6.497 0 0 0-.015-.875c.078-.32.07-.61.07-.93a3.937 3.937 0 0 1 0-.43v-.046l-.015-.016c.07-.086.085-.172.054-.258a1.25 1.25 0 0 0 .04-.328c0-.078.007-.156.015-.226l.016-.04-.016-.03c-.016-.07 0-.15.016-.235a.494.494 0 0 0 .007-.336c.125-.234.149-.531.172-.82l.008-.102c.016-.055-.008-.117-.055-.172v-.008c0-.125.063-.226.149-.359.086-.14.187-.297.21-.515l.009-.047c.007-.016.023-.024.03-.032.055-.047.141-.125.134-.234 0-.023 0-.04-.008-.055.11-.101.172-.21.234-.304.086-.149.149-.25.32-.305l.079-.023.023-.079c.023-.093.11-.156.234-.234.102-.063.211-.133.29-.234.109.007.18-.024.218-.063a.798.798 0 0 0 .32-.18c.141-.109.188-.132.282-.093l.101.047.055-.063h.016a.29.29 0 0 0 .164-.11c.039 0 .078-.023.109-.03.078-.024.102-.032.133-.016.023.015.07.039.14.015v.016l.118-.016.14-.015c.446-.055.82-.11 1.164.078l.125.062.07-.109c.016.016.032.04.048.055.093.094.242.265.468.234.047.04.102.07.157.102.015.008.039.023.062.039v.008l.031.039c.063.093.211.132.328.14.258.266.524.64.524.805v.148h.117v.008c.047.203.102.453.258.617-.047.102-.008.227.008.274a.242.242 0 0 1 .015.062l-.039.118.102.093.023.024a.505.505 0 0 0 .078.265.385.385 0 0 1 .024.055l-.024.055c-.14.265.047.406.133.476l.031.032c-.07.046-.062.109-.078.195l.016.117.047.078c0 .008 0 .008.008.016.007.015.015.054.03.094l-.046.046-.04.133.079.11.055.03c0 .063.023.118.047.157 0 .008 0 .016.007.024l-.015.062c-.047.25-.117.578.047.836-.008.008-.016.008-.016.016-.078.101-.055.21-.047.289.008.023.016.07.008.086l-.04.148c0 .008.056.023.095.031 0 .016-.008.032-.008.055l-.04.172h.063c-.007.062-.015.117-.015.18 0 .085 0 .148-.032.195l-.015.023-.008.024c-.047.164.016.32.07.445l.024.07a.154.154 0 0 0-.047.125c0 .016.008.032.008.04l-.031.03.03.087c.009.054.04.086.079.101l-.024.016c-.007 0-.007.117-.007.117v.039l-.094.023.047.102a.249.249 0 0 0-.024.188l-.07.117c.008 0 .016.07.078.101-.062.203.086.36.172.446.047.039.07.07.086.093h-.07l.054.196v.007a.207.207 0 0 0-.047.04l-.125.062.047.172-.015.039c-.032.086-.008.148.023.187 0 .008.008.008.016.016a.323.323 0 0 0-.11.211l-.015.148.117.016a1.257 1.257 0 0 1-.023.086.48.48 0 0 1-.055.14c0 .008-.008.008-.008.016l.203.117a.893.893 0 0 0-.055.149c-.007.023-.015.047-.023.062h-.187l.007.203c.016.032.016.063.024.102 0 .039.008.078.015.125v.195c0 .024 0 .07.008.117l-.023.008.015.11a.578.578 0 0 1 0 .164v.101l-.14.078.164.18v.008c-.016.047-.04.11-.04.18h-.124l.203.25c.023.023.031.078.047.125.008 0 .008.007.008.007a.44.44 0 0 0-.11.274c0 .023 0 .07-.008.078l.047.062a.224.224 0 0 0-.07.094c-.024.047-.024.102-.024.149h-.195l.164.156-.156.062.125.102v.406c0 .078.039.14.102.164l.007.008a.276.276 0 0 0 .242.031v.172l.196-.054a.798.798 0 0 1 .375-.032l.156.04.024-.173c.078-.609.062-1.195.046-1.765-.015-.563-.03-1.086.04-1.61.046-.101 0-.195-.032-.242"/><path fill="#1c5cb3" d="m14.305 26.86.03-.024v-.086l-.03-2.742v-.016c-.047-.414-.055-.867-.07-1.351-.008-.54-.024-1.102-.102-1.602-.008-.71-.149-1.477-.29-2.21l-.085-.5-.008-.048-.04-.039c-.108-.11-.14-.25-.187-.406-.039-.133-.078-.273-.156-.406-.18-.336-.476-.664-.734-.946l-.016-.023c-.062-.078-.14-.125-.203-.172a1.018 1.018 0 0 1-.117-.078l-.055-.055-.039.008-.047-.039c-.234-.18-.445-.25-.695-.336h-.008c-.07-.101-.21-.117-.305-.125v-.062l-.132-.024-.61-.094-.086-.007-.054.07c-.024.031-.032.039-.157-.016-.062-.015-.125-.039-.195-.047l-.078-.007-.031.039a.273.273 0 0 0-.07-.047l-.25-.07-.024.117a.496.496 0 0 0-.29.062h-.773l.04.149H8.43c-.164-.04-.29.062-.352.117-.015.008-.031.023-.039.031a.466.466 0 0 0-.258.117c-.047.024-.054.04-.093.04l-.063.007-.04.047c-.054.07-.233.148-.327.187l-.203.094.047.04c-.04.023-.07.038-.102.07h-.203v.156h-.024l-.109-.047c-.008-.008-.078.094-.078.094a4.927 4.927 0 0 1-.445.508 4.353 4.353 0 0 0-.547.656l-.047.062.031.07c-.039.024-.133.087-.148.204-.078.078-.094.187-.11.258 0 .023-.008.054-.008.07a.51.51 0 0 0-.117.273c-.008.055-.015.086-.039.117l-.093.125.039.032c-.024.07-.024.156-.024.195 0 .023-.008.055-.008.063l-.07.046.023.102c.024.187 0 .367-.023.555a2.009 2.009 0 0 0-.031.578.407.407 0 0 0-.04.336c0 .023.009.062 0 .086l-.093.078.062.117c.055.086.016.226-.023.36-.04.132-.086.288-.04.421-.007.016-.023.024-.03.04a.259.259 0 0 0-.032.116c0 .102-.007.141-.007.149l-.079.148-.015.055.133.102c-.008.085 0 .164.008.242.015.093.023.133-.008.172l-.086.156.086.094v.023c0 .063-.008.188.07.281.008.008.008.032.008.04l-.149.038.102.211c0 .016-.008.032-.008.055a.345.345 0 0 0 .016.29c-.047.116-.016.233 0 .312l.023.07c-.148.148-.078.344-.039.453-.062.102-.047.211-.039.29l-.187.062.195.203a.25.25 0 0 0 .015.148.244.244 0 0 0 .086.07l-.062.016c0 .008.008.016.016.024h-.008l.07.171v.024a.386.386 0 0 0 .055.281.164.164 0 0 0-.032.086l-.07.078.07.11c.063.085.04.187-.007.359-.04.148-.078.336.007.5l-.109.101.133.102c0 .008-.008.016-.016.016-.031.062-.093.187-.008.312l-.007-.015c.023.062.007.164 0 .265-.024.156-.047.344.039.531l-.032.188.008-.024a.23.23 0 0 0 .024.18l-.063.024.04.132c.046.133.054.297.054.47 0 .335 0 .71.297.991l.062.07.086-.03c.22-.063.235-.29.243-.407v-.07l.007-.031-.008-.032c-.093-.297-.054-.703-.023-1.047.016-.101.024-.187.024-.273l.007-.039-.023-.04c-.055-.116-.047-.241-.024-.382a.94.94 0 0 0-.015-.414c.047-.64.015-1.406-.008-2.07-.008-.29-.023-.555-.023-.805v-.008l-.008-.008a8.225 8.225 0 0 1-.016-.984 8.133 8.133 0 0 0-.008-.875c.07-.32.063-.61.063-.93a3.937 3.937 0 0 1 0-.43v-.046l-.016-.016c.07-.086.086-.172.055-.258.031-.117.031-.226.039-.328 0-.078 0-.156.023-.226l.008-.04-.015-.03a.5.5 0 0 1 .023-.235.61.61 0 0 0 .008-.336c.117-.234.14-.531.164-.82l.016-.102c.007-.055-.016-.117-.063-.172v-.008c0-.125.063-.226.148-.359.086-.14.188-.297.211-.515l.008-.047c.008-.016.024-.024.031-.032.055-.047.141-.125.141-.234 0-.023-.008-.04-.016-.055.11-.101.172-.21.235-.304.086-.149.148-.25.32-.305l.078-.023.032-.079c.015-.093.101-.156.234-.234.101-.063.203-.133.289-.234.11.007.172-.024.21-.063a.798.798 0 0 0 .321-.18c.14-.109.188-.132.281-.093l.102.047.055-.063h.015c.047-.016.125-.039.164-.11.047 0 .079-.023.118-.03.07-.024.093-.032.125-.016.023.015.07.039.132.015l.008.016.117-.016.141-.015c.445-.055.82-.11 1.164.078l.125.062.078-.109c.008.016.031.04.047.055.086.093.242.265.461.234.047.04.102.07.156.102.016.008.04.023.055.039v.008l.039.039c.07.093.21.132.328.14.258.266.524.64.524.805v.148h.117v.008c.039.203.101.453.258.617-.047.102-.008.227.007.274a.242.242 0 0 1 .016.062l-.04.117.102.094.024.024a.505.505 0 0 0 .078.265c0 .016.016.032.023.055l-.023.055c-.133.265.047.406.133.476.015.016.023.024.039.032-.07.046-.07.109-.086.195l.016.117.046.078c0 .008 0 .008.008.016.008.015.016.054.04.093l-.055.047-.04.133.079.11.054.03c0 .063.024.118.047.157 0 .008.008.016.008.024l-.015.062c-.055.25-.11.578.039.836 0 .008-.008.008-.016.016-.063.101-.047.21-.04.289.009.023.017.07.017.086l-.04.148c-.007.008.047.023.086.031 0 .016-.007.032-.007.055l-.04.172h.063c-.008.062-.016.117-.016.18 0 .085 0 .148-.03.195l-.016.023-.008.024c-.047.164.015.32.062.445a.278.278 0 0 1 .031.07.133.133 0 0 0-.046.125c0 .016 0 .032.007.04l-.03.03.023.087a.144.144 0 0 0 .086.101l-.024.016c-.008 0-.008.117-.008.117v.039l-.094.023.047.102c-.023.047-.046.117-.023.188l-.063.117s.008.07.063.101c-.055.203.094.36.187.446.04.039.063.07.079.093h-.079l.063.196v.007c-.016.008-.031.024-.047.04l-.117.062.039.172-.016.039c-.023.086-.008.148.024.187 0 .008.008.008.015.016a.362.362 0 0 0-.109.211l-.016.148.125.016a.204.204 0 0 0-.023.086c-.023.062-.031.102-.063.14h.008l-.015.016.203.117a.894.894 0 0 0-.055.149c0 .023-.016.047-.023.062h-.188l.008.203c.016.032.016.063.023.102 0 .04.008.078.016.125v.195c0 .024 0 .07.016.118l-.032.007.016.11a.387.387 0 0 1 0 .164v.101l-.14.078.171.18c0 .008-.008.008-.008.008-.015.047-.039.11-.039.18h-.125l.203.25c.024.023.04.078.047.125l.008.007c-.086.086-.094.204-.101.274a.449.449 0 0 0-.016.078l.055.062a.258.258 0 0 0-.078.094.245.245 0 0 0-.016.149h-.203l.164.156-.156.062.132.102v.406c0 .078.032.14.094.164 0 .008.008.008.008.008a.29.29 0 0 0 .25.031v.172l.188-.054a.798.798 0 0 1 .375-.032l.156.04.023-.173c.078-.609.063-1.195.047-1.765-.016-.563-.023-1.086.047-1.61a.269.269 0 0 0-.031-.242"/><path fill="#f35c17" d="m37.492 27.07.031-.023v-.086l-.03-2.742v-.016a14.441 14.441 0 0 1-.071-1.351c-.008-.547-.024-1.11-.102-1.602-.007-.719-.148-1.477-.289-2.219l-.086-.5-.007-.047-.032-.03c-.117-.11-.156-.25-.195-.407a1.343 1.343 0 0 0-.148-.406c-.188-.336-.485-.664-.743-.953l-.007-.008a.617.617 0 0 0-.211-.18c-.04-.023-.079-.047-.118-.086l-.054-.047-.04.008-.038-.04c-.235-.187-.454-.257-.704-.343-.078-.101-.218-.117-.312-.117v-.07l-.133-.016-.61-.094-.085-.015-.055.07c-.023.031-.031.04-.164-.008-.055-.015-.117-.039-.187-.047l-.07-.008-.04.032c-.015-.008-.039-.024-.07-.04l-.25-.077-.016.117a.693.693 0 0 0-.297.062h-.398l-.375.008.047.14c-.008 0-.008.009-.008.009-.172-.04-.297.054-.367.117-.008.008-.024.023-.031.023a.495.495 0 0 0-.258.125c-.04.024-.055.04-.094.04h-.062l-.04.054c-.054.07-.234.148-.328.187l-.203.094.047.04a.297.297 0 0 0-.102.07h-.195v.156c-.008 0-.023-.008-.031-.008l-.11-.047c-.007-.008-.078.094-.078.094a3.739 3.739 0 0 1-.445.515c-.187.204-.39.422-.547.657l-.047.062.032.07c-.04.024-.133.079-.149.196-.078.086-.094.187-.11.265 0 .024 0 .055-.007.063a.476.476 0 0 0-.11.273.32.32 0 0 1-.046.125l-.094.118.039.039c-.023.07-.023.148-.023.195 0 .023-.008.047-.008.062l-.063.04.008.101c.031.195.008.367-.023.563-.016.18-.04.367-.024.578-.078.11-.054.242-.047.328a.35.35 0 0 1 .008.086l-.094.078.063.117c.062.086.015.227-.024.367-.039.125-.085.29-.039.43-.007.008-.023.016-.03.031a.233.233 0 0 0-.032.117c0 .102-.008.133-.016.141l-.062.148-.016.063.125.086c-.015.094 0 .18.016.25.008.101.015.14-.016.18l-.078.148.078.094v.031c-.008.07-.015.188.07.273.008.016.008.032.016.047l-.148.04.093.21c0 .008-.007.032-.007.047-.016.063-.047.188.015.29a.488.488 0 0 0 .008.32c0 .015.008.046.008.07-.14.148-.07.344-.031.445-.063.102-.047.227-.04.297l-.187.063.195.195a.228.228 0 0 0 .024.156.184.184 0 0 0 .078.063l-.055.023c0 .008 0 .016.008.024h-.008l.07.171v.016a.43.43 0 0 0 .063.297c-.023.015-.031.047-.04.078l-.07.078.07.11c.056.078.04.187-.007.351-.039.156-.078.336 0 .508l-.101.101.132.102c0 .008 0 .008-.007.016-.04.062-.102.187-.024.312v-.015c.024.054.008.156 0 .265-.015.156-.039.344.04.524l-.024.195.008-.031a.246.246 0 0 0 .015.187l-.062.024.047.125c.039.14.039.304.039.484 0 .328 0 .703.304.984l.063.063.086-.024c.219-.062.234-.289.242-.406v-.07l.008-.031-.008-.04c-.094-.296-.055-.695-.023-1.046.007-.094.023-.18.023-.266l.008-.04-.024-.038c-.062-.125-.047-.25-.031-.383a.965.965 0 0 0-.008-.422c.055-.64.016-1.39-.008-2.062-.007-.29-.015-.555-.023-.805v-.008l-.008-.008a8.218 8.218 0 0 1-.015-.984 6.645 6.645 0 0 0-.008-.883c.07-.312.062-.61.054-.922v-.445l.008-.031-.008-.016c.063-.086.079-.172.047-.258a1.27 1.27 0 0 0 .04-.336c.007-.078.007-.148.023-.218l.008-.04-.008-.03c-.016-.071 0-.15.015-.235.024-.102.047-.227.008-.336.117-.242.14-.539.164-.82l.016-.094a.214.214 0 0 0-.063-.18v-.015c0-.125.063-.22.149-.352.086-.148.187-.305.219-.523v-.04c.007-.015.023-.023.03-.03.056-.055.141-.118.141-.235 0-.023 0-.047-.015-.063.11-.093.18-.203.234-.304.086-.14.149-.25.32-.297l.079-.024.023-.085c.031-.094.11-.149.242-.227.102-.063.203-.133.29-.234.109.007.171-.024.21-.07a.876.876 0 0 0 .328-.173c.133-.117.18-.14.274-.093l.101.047.055-.07h.016a.254.254 0 0 0 .172-.102c.039-.008.078-.024.101-.032.086-.03.102-.03.133-.015.023.015.078.031.14.015l.008.016.11-.016.148-.023c.438-.055.82-.102 1.157.086l.132.062.07-.109c.016.016.024.031.04.055.093.093.25.265.468.226.047.04.11.078.157.102.015.015.047.023.062.039v.008l.031.047c.07.086.22.132.336.132.25.274.516.641.516.813v.148h.117v.016c.047.195.102.445.258.61-.039.1-.008.226.008.28a.084.084 0 0 1 .015.047l-.03.118.093.101.031.008a.42.42 0 0 0 .07.273c.008.016.016.047.024.063l-.023.055c-.133.257.046.414.132.468.016.016.024.024.04.032-.07.054-.07.109-.086.203l.015.117.047.07h.008v.024c.008.023.015.054.031.086l-.047.047-.039.14.078.11.063.03c-.008.055.023.118.039.15 0 .007.008.015.008.023l-.016.07c-.055.25-.117.57.047.836l-.008.008c-.078.101-.062.21-.047.289 0 .023.008.07.008.086l-.047.156c0 .008.055.016.102.031a.084.084 0 0 0-.016.047l-.039.188h.063c-.008.054-.008.117-.008.164-.008.086-.008.148-.04.203l-.015.015v.024c-.055.164.008.328.063.445l.023.07a.207.207 0 0 0-.047.133c0 .016.008.024.008.04l-.031.03.03.094c.009.047.04.078.079.102h-.023c-.008 0-.008.125-.008.125v.039l-.094.023.047.102a.249.249 0 0 0-.024.187l-.062.118s.016.07.07.101c-.062.203.086.36.18.453.039.032.062.055.078.078h-.078l.062.204-.039.039-.125.07.04.164-.016.047c-.024.086 0 .148.023.18.008.015.008.015.016.023a.362.362 0 0 0-.11.211l-.007.14.117.016c-.016.031-.024.07-.031.094-.016.055-.024.102-.055.14h.008c-.008 0-.008.008-.008.016l.203.117c-.031.055-.047.11-.062.149-.008.015-.016.047-.024.062h-.18l.008.196c.008.03.016.062.016.109 0 .031.008.078.015.125v.195c0 .024 0 .063.016.11l-.023.015.007.102c.016.062.008.11 0 .172v.101l-.14.07.172.188-.008.008c-.016.047-.04.101-.04.18h-.116l.203.25c.015.015.031.07.047.117 0 0 0 .008.007.008-.093.086-.101.21-.109.273 0 .031-.008.07-.016.086v-.008l.055.07a.277.277 0 0 0-.078.094.23.23 0 0 0-.016.14h-.203l.164.173-.156.047.133.101v.414c0 .07.039.133.094.164l.008.008c.085.055.171.047.25.031v.172l.195-.054a.653.653 0 0 1 .36-.032l.171.032.016-.164c.078-.61.062-1.204.047-1.774-.016-.555-.024-1.078.046-1.601a.269.269 0 0 0-.03-.243"/><path fill="#f35c17" d="M39.883 39.89H2.219V2.22h37.664ZM42.109 0H0v42.11h42.11V0"/><path fill="#006e30" d="M150.336 29.21c0 4.087-2.992 5.032-4.758 5.032-.914 0-1.812-.039-2.875-.476-1.258-.516-1.367-1.172-1.367-3.774V20.68c0-.203.07-.282.226-.282.594 0 .985 0 1.696.04 1.531.078 2.43.351 3.258.945 2.992 2.078 3.82 5.383 3.82 7.828m-13.727-4.727c0 3.618 0 6.735-.195 8.375-.164 1.149-.352 2.008-1.133 2.172a7.06 7.06 0 0 1-1.422.157c-.476 0-.625.109-.625.312 0 .273.274.39.782.39 1.57 0 4.054-.117 4.945-.117 1.195 0 4.766.235 5.703.235 7.242 0 10.508-4.367 10.508-8.57 0-4.602-3.938-7.391-7.156-8.5 2.164-1.72 4.007-3.641 4.007-6.875 0-2.079-1.25-5.899-8.375-5.899-1.336 0-2.875.117-4.796.117-.782 0-3.266-.117-5.344-.117-.594 0-.867.078-.867.36 0 .273.234.351.671.351.547 0 1.211.04 1.532.117 1.297.274 1.61.899 1.687 2.235.078 1.265.078 2.359.078 8.343zm4.727-15.96c0-.438.07-.587.351-.672.391-.079.75-.079 1.297-.079 3.375 0 4.914 3.461 4.914 6.094 0 1.93-.593 3.352-1.617 4.164-.672.594-1.539.758-2.828.758-.906 0-1.492-.039-1.851-.117-.157-.047-.266-.117-.266-.445V8.523"/><path fill="#006e30" d="M210.453 6.46c-1.922 0-3.406.11-3.836.11-.82 0-2.703-.11-4.726-.11-.594 0-1.016.04-1.016.352 0 .235.148.344.61.344.554 0 1.492 0 2.077.242.946.399 1.29 1.133 1.336 3.516l.391 17.547h-.195c-.672-.617-5.938-6.25-8.602-8.906-5.71-5.672-11.64-12.032-12.117-12.555-.664-.695-1.016-1.203-1.445-1.203-.39 0-.5.539-.5 1.328l-.36 23.14c-.039 3.391-.414 4.837-1.21 4.837-1.493 0-1.923-.961-3.274-4.188-2.5-5.937-8.758-21.883-9.703-24.039-.39-.898-.617-1.242-.969-1.242-.39 0-.625.43-1.101 1.562l-9.797 24.547c-.79 1.945-1.532 3.274-3.328 3.508-.32.047-.344.07-.704.07-.312 0-.46.094-.46.32 0 .313.234.383.742.383 2.023 0 3.664-.109 4.093-.109 1.22 0 2.883.11 4.149.11.43 0 .656-.07.656-.383 0-.227-.117-.32-.578-.32h-.594c-1.21 0-1.562-.5-1.562-1.196 0-.477.203-1.414.586-2.383l2.117-5.594c.07-.242.148-.312.351-.312h8.711c.188 0 .313.07.39.266l3.134 8.289c.187.468-.078.82-.36.906-.39.023-.547.117-.547.344 0 .273.47.273 1.172.312 3.125.07 5.977.07 7.383.07.875 0 4.5-.023 7.031-.023.547 0 .899-.07.899-.39 0-.227-.234-.313-.664-.313-.625 0-1.36-.031-2.024-.266-.78-.273-1.297-1.297-1.375-4.343l-.422-16.415h.118c.703.743 5.03 5.633 9.297 9.852 4.062 4.016 9.054 9.133 11.53 11.484.43.438.891.86 1.321.86.36 0 .508-.344.508-1.203l.43-24.664c.039-2.188.351-3.008 1.453-3.32.476-.126.773-.126 1.164-.126.469 0 .703-.11.703-.344 0-.312-.39-.351-.883-.351m-41 17.422h-7.187c-.164 0-.204-.125-.164-.274l3.601-9.617c.04-.156.11-.36.234-.36.11 0 .157.204.196.36l3.523 9.649c.024.117 0 .242-.203.242"/><g clip-path="url(#a)" transform="scale(2)"><path fill="#006e30" fill-rule="evenodd" d="M109.668 8.871c0-2.969 0-3.516.043-4.14.035-.688.191-1.016.719-1.118.234-.035.351-.054.547-.054.156 0 .277-.04.277-.18 0-.133-.14-.176-.41-.176-.668 0-1.899.059-2.367.059-.47 0-1.7-.059-2.735-.059-.293 0-.43.043-.43.176 0 .14.118.18.333.18.273 0 .605.02.761.054.645.137.801.453.84 1.117.04.625.04 1.172.04 4.141v3.438c0 1.796 0 3.343-.098 4.16-.079.566-.176 1-.567 1.074-.176.039-.41.078-.703.078-.234 0-.313.059-.313.156 0 .137.137.2.391.2.781 0 2.012-.063 2.461-.063.488 0 1.719.063 2.816.063.211 0 .368-.063.368-.2 0-.097-.098-.156-.254-.156-.254 0-.684-.039-.957-.078-.489-.074-.664-.508-.703-1.055-.059-.836-.059-2.383-.059-4.18v-1.777h.098l.215.293c.41.567 4.257 5.078 5.117 5.84.843.742 1.37 1.176 2.425 1.27.41.043.762.043 1.348.043h1.7c.37 0 .468-.063.468-.2 0-.113-.117-.156-.258-.156-.23 0-.62-.058-1.207-.293-1.054-.41-1.933-1.289-2.797-2.11-.757-.722-4.59-4.843-5.293-5.761.664-.703 3.614-3.633 4.22-4.219.839-.82 1.507-1.234 2.112-1.465.372-.136.86-.214 1.133-.214.196 0 .293-.04.293-.18 0-.133-.136-.176-.332-.176-.605 0-1.683.059-2.289.059-.523 0-1.597-.059-2.008-.059-.218 0-.316.043-.316.176 0 .117.078.16.258.2.191.034.27.171.27.39 0 .332-.43.816-.973 1.465-.57.664-3.422 3.574-4.086 4.296h-.098v-.859"/></g><path fill="#006e30" fill-rule="evenodd" d="M72.43 36.313c2.492 0 5.445-.274 7.007-.891.657-.274.813-.469 1.008-1.133.39-1.32.86-4.71.86-5.18 0-.312-.078-.578-.352-.578-.312 0-.39.157-.508.774-.156.703-.656 1.836-1.32 2.57-1.563 1.79-3.656 2.18-7.133 2.18-5.21 0-12.258-4.594-12.258-13.86 0-3.773.743-7.476 3.578-10.086 1.72-1.554 3.938-2.406 7.32-2.406 3.587 0 6.626 1.047 7.907 2.406a5.638 5.638 0 0 1 1.523 3.586c0 .54.07.86.383.86.352 0 .43-.32.47-.899.077-.781.038-2.922.116-4.203.078-1.367.196-1.836.196-2.14 0-.235-.157-.43-.586-.47-1.172-.116-2.414-.468-3.891-.663-1.797-.235-3.234-.383-5.648-.383-5.805 0-9.5 1.555-12.305 4.125-3.734 3.422-4.555 8.016-4.555 10.664 0 3.781 1.016 8.14 4.828 11.484 3.547 3.078 8.024 4.243 13.36 4.243M103.188 24.477c0 3.586 0 6.664-.196 8.296-.148 1.125-.344 1.985-1.125 2.141-.351.078-.82.156-1.398.156-.469 0-.625.118-.625.313 0 .265.273.39.773.39.781 0 1.797-.078 2.688-.078.937-.047 1.797-.047 2.218-.047.586 0 1.75.047 2.922.125 1.133.04 2.258.11 2.727.11 7.164 0 10.39-4.32 10.39-8.485 0-4.554-3.89-7.32-7.078-8.406 2.141-1.719 3.97-3.625 3.97-6.812 0-2.07-1.243-5.844-8.298-5.844-1.32 0-2.844.117-4.742.117-.781 0-3.234-.117-5.297-.117-.586 0-.86.078-.86.352 0 .273.235.351.665.351.547 0 1.203.04 1.515.117 1.282.274 1.594.899 1.672 2.219.078 1.242.078 2.336.078 8.25v6.852m4.68-15.797c0-.43.078-.586.344-.672.39-.07.742-.07 1.289-.07 3.344 0 4.867 3.421 4.867 6.03 0 1.907-.586 3.305-1.601 4.126-.657.586-1.516.742-2.797.742-.899 0-1.485-.04-1.836-.117-.156-.04-.266-.117-.266-.43zm8.914 20.468c0 4.055-2.96 4.985-4.719 4.985-.89 0-1.789-.031-2.835-.461-1.25-.508-1.36-1.172-1.36-3.734v-9.235c0-.195.078-.265.227-.265.586 0 .976 0 1.672.039 1.523.07 2.421.343 3.234.921 2.96 2.07 3.781 5.336 3.781 7.75M88.273 24.477c0 3.78 0 6.859-.195 8.492-.117 1.133-.351 1.789-1.133 1.937-.351.086-.82.164-1.398.164-.469 0-.625.117-.625.313 0 .265.273.39.781.39 1.555 0 4.008-.125 4.906-.125 1.047 0 3.5.125 6.07.125.43 0 .743-.125.743-.39 0-.196-.195-.313-.625-.313-.586 0-1.438-.078-1.985-.164-1.164-.148-1.445-.851-1.554-1.906-.164-1.664-.164-4.742-.164-8.523v-6.852c0-5.914 0-7.008.086-8.25.078-1.367.382-2.023 1.437-2.219.469-.078.781-.117 1.172-.117.383 0 .617-.078.617-.39 0-.235-.312-.313-.812-.313-1.485 0-3.782.117-4.758.117-1.125 0-3.578-.117-5.055-.117-.625 0-.937.078-.937.312 0 .313.234.391.625.391.468 0 .976.04 1.398.156.86.196 1.242.86 1.328 2.18.078 1.242.078 2.336.078 8.25v6.852"/></svg>