<svg xmlns="http://www.w3.org/2000/svg" width="176.532" height="100.475" viewBox="0 0 176.532 100.475"><g transform="translate(-147.24 -147.07)" style="isolation:isolate"><g transform="translate(147.24 147.07)"><path d="M210.63,147.661q1.18,0,2.364,0c.379,1.927.769,3.853,1.14,5.783q.634-2.912,1.28-5.821l1.924,0c.431,1.927.851,3.859,1.291,5.783.382-1.915.755-3.833,1.143-5.748h2.311q-1.176,5.194-2.355,10.382c-.682,0-1.361,0-2.043,0-.44-1.851-.895-3.7-1.32-5.55-.455,1.845-.889,3.7-1.332,5.547-.685,0-1.367,0-2.049-.006C212.207,154.575,211.411,151.118,210.63,147.661Z" transform="translate(-192.154 -147.46)" fill="#009295"/><g transform="translate(29.972 0)"><path d="M252.516,147.4a3.484,3.484,0,0,1,3.635.4,5.664,5.664,0,0,1,1.8,4.36,6.071,6.071,0,0,1-1.667,4.742,3.452,3.452,0,0,1-4.55.015,6.207,6.207,0,0,1-1.638-5.089A5.1,5.1,0,0,1,252.516,147.4Zm1.07,2.2a2.257,2.257,0,0,0-1.172,1.924,4.8,4.8,0,0,0,.44,3.069,1.309,1.309,0,0,0,1.74.571,2.649,2.649,0,0,0,1.046-2.16,4.688,4.688,0,0,0-.481-2.772A1.305,1.305,0,0,0,253.586,149.6Z" transform="translate(-250.071 -147.07)" fill="#009295"/></g><g transform="translate(38.769 0.161)"><path d="M280.25,147.661c1.845.181,3.987-.513,5.582.7a4.087,4.087,0,0,1-.4,5.934c.577,1.221,1.143,2.448,1.714,3.673q-1.268,0-2.53,0c-.5-1.026-.871-2.122-1.449-3.107l-.688-.125c-.009,1.078,0,2.154-.006,3.232q-1.11,0-2.221,0Zm2.224,2.349q0,1.312,0,2.623c.65-.082,1.527.189,1.95-.469.379-.647.324-1.784-.49-2.072A11.679,11.679,0,0,0,282.474,150.01Z" transform="translate(-280.25 -147.624)" fill="#009295"/></g><path d="M306.125,147.747h2.221c0,1.291-.009,2.585.012,3.879.775-1.277,1.5-2.582,2.236-3.877.863,0,1.725-.006,2.588,0-.872,1.454-1.72,2.921-2.617,4.36.872,1.994,1.8,3.964,2.7,5.949q-1.307,0-2.614,0c-.56-1.242-1.131-2.477-1.682-3.725-.883,1.064-.586,2.46-.618,3.728q-1.115,0-2.224,0Q306.12,152.9,306.125,147.747Z" transform="translate(-259.813 -147.549)" fill="#009295"/><path d="M332.38,147.75h2.256c.009,3.431-.009,6.864.009,10.295-.755.015-1.513.015-2.265.017Z" transform="translate(-278.417 -147.552)" fill="#009295"/><path d="M344.25,147.75q1.058,0,2.116,0c.906,1.676,1.81,3.349,2.725,5.019.009-1.673,0-3.349,0-5.022h2.189q0,5.155,0,10.309H349.3c-.941-1.763-1.915-3.506-2.839-5.279.023,1.76.009,3.521.012,5.281q-1.111,0-2.221,0Z" transform="translate(-286.827 -147.552)" fill="#009295"/><path d="M373.6,147.716a3.981,3.981,0,0,1,4.987.627c-.411.688-.822,1.373-1.218,2.067-.568-.426-1.189-.994-1.965-.81a2.432,2.432,0,0,0-1.565,2.308,3.609,3.609,0,0,0,.979,3.221,1.892,1.892,0,0,0,1.816.055c-.012-.507-.017-1.014-.02-1.521h-1.306c0-.7,0-1.408,0-2.11q1.71,0,3.425,0c0,1.661-.006,3.323.006,4.984a4.664,4.664,0,0,1-3.891,1.166,4.326,4.326,0,0,1-3.194-3.769C371.286,151.744,371.656,149.08,373.6,147.716Z" transform="translate(-306.153 -147.089)" fill="#009295"/><path d="M409.49,147.755c1.956-.012,3.911,0,5.867-.006v2.37q-1.823,0-3.643,0c0,.533,0,1.067,0,1.6q1.631,0,3.267,0c.009.752.009,1.507.012,2.262h-3.279q0,.857,0,1.714h3.713v2.37c-1.979,0-3.958,0-5.937,0C409.49,154.622,409.5,151.188,409.49,147.755Z" transform="translate(-333.052 -147.551)" fill="#009295"/><path d="M431,147.74l2.434.006c.5,2.069,1.014,4.136,1.5,6.211.548-2.061,1.011-4.142,1.519-6.211q1.194,0,2.393,0-1.425,5.194-2.856,10.388c-.72,0-1.434-.009-2.151-.02C432.915,154.648,431.941,151.2,431,147.74Z" transform="translate(-348.292 -147.545)" fill="#009295"/><path d="M459.877,147.75h5.864v2.37H462.1c0,.533,0,1.067,0,1.6q1.64,0,3.279,0v2.256q-1.639,0-3.279,0v1.711c1.239,0,2.478,0,3.716,0v2.364q-2.969,0-5.937,0Q459.877,152.9,459.877,147.75Z" transform="translate(-368.751 -147.552)" fill="#009295"/><g transform="translate(97.975 0.161)"><path d="M483.38,147.659c1.88.2,4.145-.568,5.707.822a4.087,4.087,0,0,1-.533,5.794c.565,1.233,1.143,2.46,1.714,3.69q-1.268,0-2.533,0c-.5-1.032-.872-2.128-1.454-3.113-.166-.026-.5-.082-.673-.111-.009,1.076-.006,2.151-.009,3.227q-1.11,0-2.218,0Zm2.227,2.349c-.009.871-.009,1.749,0,2.623a13.99,13.99,0,0,0,1.44-.067,1.5,1.5,0,0,0,.426-2.227C486.968,149.874,486.219,150.078,485.607,150.008Z" transform="translate(-483.38 -147.622)" fill="#009295"/></g><path d="M505.91,147.753c.825,0,1.656,0,2.483,0,.449,1.178.863,2.373,1.379,3.527.481-1.169.909-2.358,1.376-3.533h2.434c-.857,2.113-1.822,4.186-2.638,6.316a34.424,34.424,0,0,0-.09,4q-1.11,0-2.221,0c-.041-1.3.09-2.62-.064-3.914C507.743,151.991,506.781,149.889,505.91,147.753Z" transform="translate(-401.368 -147.552)" fill="#009295"/><g transform="translate(0.146 15.303)"><path d="M147.743,199.59c1.72.09,3.643-.341,5.171.673a5.191,5.191,0,0,1,1.906,4.544,5.052,5.052,0,0,1-2.151,4.582c-1.5.839-3.291.472-4.929.539C147.746,206.48,147.74,203.035,147.743,199.59Zm2.227,2.4c-.006,1.848-.009,3.7,0,5.55a2.257,2.257,0,0,0,2.215-1.014,4.324,4.324,0,0,0-.09-3.684C151.678,202.076,150.742,202.012,149.97,201.995Z" transform="translate(-147.74 -199.573)" fill="#009295"/></g><g transform="translate(7.091 15.279)"><path d="M174.549,199.49c.755,0,1.513,0,2.271.02.968,3.46,1.988,6.908,2.97,10.365h-2.355c-.166-.621-.329-1.239-.5-1.857h-2.574q-.245.927-.487,1.86c-.77,0-1.539,0-2.308-.009C172.573,206.412,173.555,202.95,174.549,199.49Zm1.1,3.553c-.239.93-.481,1.857-.717,2.789.481,0,.965,0,1.449,0C176.14,204.9,175.9,203.97,175.645,203.043Z" transform="translate(-171.57 -199.49)" fill="#009295"/></g><path d="M195.57,199.623q1.237,0,2.48,0c.455,1.2.9,2.4,1.37,3.594.49-1.178.939-2.375,1.373-3.576.822-.02,1.644-.02,2.469-.02-.743,1.763-1.484,3.527-2.241,5.281-.851,1.559-.35,3.381-.481,5.066h-2.259c-.035-1.309.079-2.623-.05-3.926C197.421,203.873,196.439,201.771,195.57,199.623Z" transform="translate(-181.483 -184.303)" fill="#009295"/><path d="M233.623,199.62c.737,0,1.481,0,2.221,0,0,3.448,0,6.893,0,10.341q-1.115,0-2.227,0Q233.624,204.791,233.623,199.62Z" transform="translate(-208.443 -184.303)" fill="#009295"/><path d="M245.493,199.62c.694,0,1.39,0,2.084.009.9,1.673,1.813,3.343,2.722,5.013.006-1.676,0-3.349,0-5.022q1.111,0,2.221,0V209.97l-2-.006c-.944-1.74-1.868-3.489-2.836-5.217-.02,1.74,0,3.483-.012,5.223q-1.093,0-2.186,0Q245.494,204.791,245.493,199.62Z" transform="translate(-216.853 -184.303)" fill="#009295"/><path d="M281.05,199.623c.828,0,1.658,0,2.489.006.446,1.2.877,2.4,1.382,3.579.466-1.192.915-2.393,1.379-3.588q1.22,0,2.443,0c-.86,2.075-1.781,4.127-2.612,6.214a32.487,32.487,0,0,0-.1,4.13h-2.256c-.137-1.609.347-3.343-.4-4.85Q282.194,202.376,281.05,199.623Z" transform="translate(-242.048 -184.303)" fill="#009295"/><g transform="translate(46.297 15.127)"><path d="M308.747,199.222a3.556,3.556,0,0,1,4.465,1.772,7.6,7.6,0,0,1-.026,6.7,3.569,3.569,0,0,1-4.579,1.705c-1.868-.866-2.556-3.1-2.524-5.019C306.028,202.39,306.774,200.052,308.747,199.222Zm.834,2.294a2.532,2.532,0,0,0-1.2,2.265,4.064,4.064,0,0,0,.734,3.058,1.3,1.3,0,0,0,2.043-.289,5.063,5.063,0,0,0,.338-3.638C311.321,202.066,310.522,201.16,309.581,201.516Z" transform="translate(-306.08 -198.967)" fill="#009295"/></g><path d="M335.988,199.62c.752,0,1.507,0,2.259,0,.009,2.119-.015,4.238,0,6.36-.023.673.224,1.554,1,1.679.807.172,1.37-.635,1.364-1.364.093-2.224.009-4.451.038-6.678q1.128,0,2.259,0c-.006,2.026.012,4.051-.006,6.08a5.069,5.069,0,0,1-1.061,3.5,3.665,3.665,0,0,1-3.906.644A3.771,3.771,0,0,1,336,206.3C335.962,204.077,336,201.847,335.988,199.62Z" transform="translate(-280.97 -184.303)" fill="#009295"/><g transform="translate(63.032 15.301)"><path d="M363.5,199.585a23.424,23.424,0,0,1,4.591.189c2.6.9,2.676,4.972.56,6.447.571,1.236,1.148,2.472,1.72,3.708h-2.53c-.478-1.064-.959-2.128-1.434-3.195l-.676-.023c-.012,1.073-.009,2.145-.009,3.218H363.5Q363.5,204.757,363.5,199.585Zm2.227,2.341c-.006.892-.006,1.781,0,2.673a8.987,8.987,0,0,0,1.425-.1,1.477,1.477,0,0,0,.56-2C367.312,201.785,366.394,202.007,365.724,201.925Z" transform="translate(-363.496 -199.566)" fill="#009295"/></g><path d="M147.243,253.623q1.128,0,2.259,0v10.312q-1.132,0-2.262,0C147.246,260.493,147.24,257.056,147.243,253.623Z" transform="translate(-147.24 -222.564)" fill="#009295"/><path d="M159.127,253.61c.708,0,1.419.006,2.131.026.874,1.691,1.807,3.355,2.711,5.031q0-2.527,0-5.051,1.093,0,2.186,0v10.309q-1.006,0-2.005,0-1.4-2.632-2.836-5.241c-.012,1.746,0,3.495-.006,5.244h-2.183Q159.127,258.766,159.127,253.61Z" transform="translate(-155.661 -222.557)" fill="#009295"/><path d="M185.875,253.625q3.2,0,6.409,0,0,1.215,0,2.437c-.694,0-1.387,0-2.078.006,0,2.62-.006,5.243,0,7.864-.755,0-1.507,0-2.262,0,0-2.623.006-5.246,0-7.873-.691,0-1.385,0-2.072,0Q185.87,254.844,185.875,253.625Z" transform="translate(-174.612 -222.566)" fill="#009295"/><path d="M210.5,253.62c1.956,0,3.912,0,5.867,0q0,1.18,0,2.367-1.823,0-3.643,0c0,.542,0,1.09,0,1.635h3.273c0,.752,0,1.5.006,2.259h-3.279q0,.839,0,1.679c1.239,0,2.475,0,3.713,0q0,1.185,0,2.37-2.969,0-5.94,0Q210.5,258.778,210.5,253.62Z" transform="translate(-192.058 -222.564)" fill="#009295"/><g transform="translate(25.288 31.037)"><path d="M234,253.576c1.571.079,3.195-.207,4.731.216,2.5,1,2.524,4.946.452,6.421.563,1.224,1.14,2.445,1.7,3.67q-1.268,0-2.53,0c-.5-1.029-.869-2.119-1.449-3.107-.169-.032-.507-.1-.676-.131-.012,1.078-.009,2.16-.009,3.238-.737,0-1.478,0-2.215,0C233.993,260.452,234,257.012,234,253.576Zm2.224,2.343c0,.892,0,1.781,0,2.673a8.262,8.262,0,0,0,1.516-.131,1.5,1.5,0,0,0,.417-2.093C237.709,255.762,236.861,256,236.223,255.919Z" transform="translate(-233.998 -253.553)" fill="#009295"/></g><path d="M259.868,253.623c1.953,0,3.909,0,5.864,0v2.37h-3.643v1.638q1.639,0,3.279,0v2.256h-3.276c0,.56,0,1.116,0,1.676,1.227,0,2.454,0,3.681,0q0,1.185-.012,2.373-2.942-.013-5.882,0C259.851,260.5,259.871,257.059,259.868,253.623Z" transform="translate(-227.037 -222.564)" fill="#009295"/><path d="M282.762,258.824c-1.95-1.268-1.548-4.8.676-5.547a4.31,4.31,0,0,1,4.209,1.049c-.379.679-.755,1.358-1.128,2.043a3.313,3.313,0,0,0-2.244-.924.671.671,0,0,0-.2,1.2c.918.676,2.148.869,2.932,1.743a3.518,3.518,0,0,1,.361,3.731,3.019,3.019,0,0,1-3.081,1.583,4.9,4.9,0,0,1-3.157-1.5c.393-.665.793-1.326,1.189-1.988a3.523,3.523,0,0,0,2.565,1.143.694.694,0,0,0,.338-1.218C284.467,259.585,283.523,259.366,282.762,258.824Z" transform="translate(-242.105 -222.183)" fill="#009295"/><path d="M304.49,253.623c2.139,0,4.276,0,6.415,0v2.443H308.83q0,3.935,0,7.87h-2.256q0-3.935,0-7.87h-2.075Q304.493,254.843,304.49,253.623Z" transform="translate(-258.656 -222.564)" fill="#009295"/><path d="M346.011,268.25a23.042,23.042,0,0,1,7.328-1.644,3.758,3.758,0,0,1,3.425,2.375,33.131,33.131,0,0,1,1.434,4.681,28.369,28.369,0,0,0-9.688,2.09c-5.7,2.288-10.988,6.191-14.017,11.627-.857,1.714-1.8,3.929-.7,5.739,1.752,1.915,4.57,2.16,7.013,2.3a57.106,57.106,0,0,0,16.926-2.83,129.711,129.711,0,0,0,14.874-6.858q3.747-1.989,7.491-3.979,7.94-4.289,15.763-8.785c.006,2.544-.017,5.089.012,7.634-4.171,2.848-8.511,5.442-12.895,7.943q-3.826,2.16-7.733,4.165a156.726,156.726,0,0,1-15.655,7.01c-5.238,1.915-10.852,3.186-16.454,2.65A18.467,18.467,0,0,1,331.8,297.44a14.361,14.361,0,0,1-3.707-11.37,15.372,15.372,0,0,1,2.6-6.272C334.271,274.321,339.955,270.514,346.011,268.25Z" transform="translate(-275.298 -231.763)" fill="#009295"/></g><g transform="translate(250.814 178.782)"><path d="M505.5,263.495c4.774-2.393,9.409-5.045,14.081-7.625,0,2.192,0,4.387,0,6.581-3.78,2.154-7.54,4.352-11.446,6.275-1.125.571-2.778,1.046-3.713-.1a20.109,20.109,0,0,1-1.83-4.445A6.555,6.555,0,0,0,505.5,263.495Z" transform="translate(-502.59 -255.87)" fill="#de152c"/></g><g transform="translate(200.617 182.644)"><path d="M420.269,269.122c3.148,0,6.3-.009,9.447,0,2.136,4.806,4.3,9.6,6.43,14.407q-3.742,2-7.491,3.979-2.085-5.294-4.188-10.58c-1.717,3.349-3.148,6.829-4.725,10.245-.717,1.344-1.157,3-2.524,3.85A21.441,21.441,0,0,1,407.08,294C411.446,285.693,415.882,277.421,420.269,269.122Z" transform="translate(-384.721 -269.119)" fill="#006a4d"/><path d="M490.15,346.035q3.913-2,7.733-4.165,3.192,6.707,6.406,13.408c-2.874-.012-5.748.026-8.619-.012a2.506,2.506,0,0,1-2.352-1.536C492.278,351.159,491.234,348.588,490.15,346.035Z" transform="translate(-443.579 -320.665)" fill="#006a4d"/><path d="M330.373,400.993q31.256,0,62.515,0c.006,1.895,0,3.789.006,5.687q-31.265,0-62.523,0C330.373,404.779,330.37,402.885,330.373,400.993Z" transform="translate(-330.37 -362.554)" fill="#006a4d"/><g transform="translate(107.468 38.367)"><path d="M702.106,400.877a3.437,3.437,0,0,1,3.4.933,6.3,6.3,0,0,1,1.449,4.687,5.593,5.593,0,0,1-1.88,4.285,3.445,3.445,0,0,1-4.457-.286c-1.5-1.478-1.7-3.775-1.431-5.757A4.509,4.509,0,0,1,702.106,400.877Zm.254,2.527a3.328,3.328,0,0,0-1,2.827,3.185,3.185,0,0,0,.988,2.571,1.334,1.334,0,0,0,1.9-.6,5.221,5.221,0,0,0,.152-3.824A1.426,1.426,0,0,0,702.36,403.4Z" transform="translate(-699.081 -400.752)" fill="#006a4d"/></g><g transform="translate(73.296 38.511)"><path d="M584.816,401.247c.749,0,1.5,0,2.25,0,.994,3.463,2,6.92,2.985,10.385q-1.176,0-2.349,0c-.169-.624-.341-1.245-.51-1.865-.857.006-1.714.009-2.568.015-.16.618-.318,1.233-.475,1.851H581.84Q583.322,406.435,584.816,401.247Zm1.1,3.556q-.367,1.386-.723,2.781c.478,0,.953,0,1.434.009C586.4,406.657,586.165,405.727,585.915,404.8Z" transform="translate(-581.84 -401.246)" fill="#006a4d"/></g><path d="M612,401.375q1.036,0,2.075,0c.912,1.679,1.83,3.358,2.737,5.043q-.009-2.523,0-5.043,1.11,0,2.221,0,0,5.172,0,10.344-1,0-1.994,0c-.953-1.746-1.88-3.5-2.848-5.241-.009,1.746,0,3.492,0,5.238-.732,0-1.457,0-2.186,0Z" transform="translate(-529.913 -362.825)" fill="#006a4d"/><g transform="translate(90.284 38.533)"><path d="M640.125,401.339c1.711.079,3.629-.326,5.15.676a5.121,5.121,0,0,1,1.915,4.334,5.376,5.376,0,0,1-1.88,4.611c-1.513,1.064-3.46.641-5.185.723Q640.12,406.511,640.125,401.339Zm2.224,2.393q-.009,2.776,0,5.555c.787-.032,1.746-.1,2.148-.906a4.294,4.294,0,0,0-.047-3.8C644.036,403.822,643.106,403.79,642.349,403.732Z" transform="translate(-640.123 -401.322)" fill="#006a4d"/></g><path d="M677.37,401.378c1.932-.009,3.862,0,5.794,0v2.475c-1.192,0-2.378,0-3.568,0,0,.571-.006,1.14,0,1.714H682.8q0,1.18,0,2.37c-1.07,0-2.137,0-3.2,0-.006,1.262,0,2.527,0,3.789q-1.11,0-2.218,0C677.364,408.275,677.376,404.826,677.37,401.378Z" transform="translate(-576.23 -362.825)" fill="#006a4d"/><g transform="translate(116.261 38.518)"><path d="M729.248,401.3c1.86.16,4.052-.5,5.634.77a4.089,4.089,0,0,1-.446,5.876c.557,1.239,1.14,2.466,1.705,3.7-.845,0-1.685,0-2.527,0-.5-1.029-.869-2.119-1.452-3.1l-.688-.125c-.006,1.076-.006,2.154-.009,3.229-.74,0-1.481,0-2.215,0Q729.242,406.474,729.248,401.3Zm2.221,2.387q0,1.312,0,2.626a13.092,13.092,0,0,0,1.469-.09,1.5,1.5,0,0,0,.568-1.97C733.113,403.489,732.163,403.76,731.469,403.69Z" transform="translate(-729.247 -401.271)" fill="#006a4d"/></g><path d="M500.052,455.509a4.225,4.225,0,0,1,4.524.912c-.379.679-.755,1.358-1.122,2.043a3.416,3.416,0,0,0-2.207-.921.667.667,0,0,0-.268,1.183c.918.685,2.154.872,2.947,1.746a3.512,3.512,0,0,1,.463,3.524,3,3,0,0,1-3.133,1.807,5.116,5.116,0,0,1-3.206-1.489c.393-.67.8-1.335,1.2-2a3.484,3.484,0,0,0,2.571,1.131c.551-.053.848-.924.318-1.215-1.078-.761-2.6-.976-3.3-2.206A3.4,3.4,0,0,1,500.052,455.509Z" transform="translate(-449.176 -400.952)" fill="#006a4d"/><g transform="translate(56.063 54.198)"><path d="M525.491,455.262a3.461,3.461,0,0,1,3.518.726,6.008,6.008,0,0,1,1.586,4.454A5.82,5.82,0,0,1,528.8,465a3.434,3.434,0,0,1-4.561-.213c-1.434-1.419-1.676-3.608-1.454-5.52A4.705,4.705,0,0,1,525.491,455.262Zm.618,2.387c-.962.542-1.1,1.793-1.11,2.789.015.991.172,2.224,1.14,2.752a1.43,1.43,0,0,0,1.895-1.02,5.322,5.322,0,0,0-.087-3.684A1.38,1.38,0,0,0,526.109,457.649Z" transform="translate(-522.715 -455.065)" fill="#006a4d"/></g><path d="M552.286,458.525c.364-1.705,1.691-3.4,3.559-3.451a3.664,3.664,0,0,1,3.168,1.612q-.721.927-1.434,1.863c-.469-.437-.959-1.078-1.688-.944-1.128.213-1.469,1.539-1.507,2.527-.035,1.067.108,2.451,1.177,3,.842.4,1.545-.35,2.073-.9.469.583.938,1.163,1.411,1.746a4.676,4.676,0,0,1-1.854,1.551,3.43,3.43,0,0,1-3.92-1.09A7.313,7.313,0,0,1,552.286,458.525Z" transform="translate(-487.458 -400.864)" fill="#006a4d"/><path d="M578.48,455.752q1.11-.013,2.227-.012,0,5.159,0,10.315-1.11,0-2.221,0C578.483,462.616,578.492,459.182,578.48,455.752Z" transform="translate(-506.163 -401.345)" fill="#006a4d"/><path d="M590.377,455.748c1.941,0,3.885,0,5.829,0,0,.787,0,1.577,0,2.364-1.213,0-2.422,0-3.635,0-.006.533-.009,1.067-.012,1.6,1.108,0,2.212,0,3.32,0,0,.752,0,1.5,0,2.256q-1.661,0-3.323,0c.006.571.012,1.143.026,1.717q1.845-.013,3.7-.006v2.367h-5.9Q590.372,460.9,590.377,455.748Z" transform="translate(-514.591 -401.351)" fill="#006a4d"/><path d="M612.495,455.746c2.128,0,4.255-.009,6.383.006-.009.81-.009,1.621-.009,2.434H616.8c-.015,2.629.02,5.255-.02,7.884-.737-.012-1.472-.015-2.206-.02,0-2.62.006-5.244,0-7.864h-2.072Q612.49,456.966,612.495,455.746Z" transform="translate(-530.262 -401.349)" fill="#006a4d"/><path d="M639.983,455.753q1.22-.009,2.448-.006c-.863,2.139-1.854,4.229-2.661,6.389-.146,1.3-.02,2.614-.058,3.92h-2.221c-.111-1.653.335-3.434-.475-4.967-.769-1.775-1.51-3.559-2.256-5.343.822,0,1.65,0,2.475,0,.449,1.172.877,2.352,1.352,3.518C639.126,458.122,639.525,456.927,639.983,455.753Z" transform="translate(-546.039 -401.349)" fill="#006a4d"/></g></g></svg>