<?xml version="1.0" encoding="UTF-8"?>
<svg xmlns="http://www.w3.org/2000/svg" xmlns:xlink="http://www.w3.org/1999/xlink" width="940.5pt" height="470.25pt" viewBox="0 0 940.5 470.25" version="1.1">
<defs>
<clipPath id="clip1">
  <path d="M 470 0 L 940.5 0 L 940.5 470.25 L 470 470.25 Z M 470 0 "/>
</clipPath>
<clipPath id="clip2">
  <path d="M 0 0 L 471 0 L 471 470.25 L 0 470.25 Z M 0 0 "/>
</clipPath>
</defs>
<g id="surface1">
<g clip-path="url(#clip1)" clip-rule="nonzero">
<path style=" stroke:none;fill-rule:nonzero;fill:rgb(3.09906%,23.098755%,43.899536%);fill-opacity:1;" d="M 470.25 470.25 L 940.5 470.25 L 940.5 0 L 470.25 0 Z M 470.25 470.25 "/>
</g>
<path style=" stroke:none;fill-rule:nonzero;fill:rgb(100%,100%,100%);fill-opacity:1;" d="M 786.214844 369.5625 L 786.214844 370.8125 C 786.214844 385.230469 786.214844 399.652344 786.214844 414.074219 C 786.214844 414.570313 786.222656 415.066406 786.179688 415.558594 C 786.144531 415.972656 786.078125 416.394531 785.949219 416.789063 C 785.300781 418.722656 783.417969 419.511719 780.359375 419.164063 C 778.398438 418.941406 777.191406 417.789063 776.980469 415.890625 C 776.910156 415.289063 776.890625 414.675781 776.890625 414.066406 C 776.886719 393.921875 776.886719 373.777344 776.886719 353.636719 C 776.886719 352.683594 776.859375 351.726563 777.222656 350.8125 C 777.8125 349.324219 778.988281 348.855469 780.441406 349.527344 C 781.292969 349.921875 781.914063 350.597656 782.554688 351.253906 C 797.199219 366.230469 811.84375 381.214844 826.484375 396.199219 C 826.773438 396.492188 827.03125 396.8125 827.558594 397.015625 L 827.558594 395.824219 C 827.558594 381.441406 827.628906 367.058594 827.519531 352.675781 C 827.476563 347.476563 830.210938 347.160156 833.769531 347.574219 C 835.25 347.746094 836.222656 348.6875 836.605469 350.191406 C 836.773438 350.867188 836.792969 351.546875 836.792969 352.230469 C 836.792969 372.679688 836.789063 393.128906 836.796875 413.578125 C 836.796875 414.421875 836.777344 415.257813 836.5 416.0625 C 835.96875 417.605469 834.714844 418.113281 833.230469 417.417969 C 832.375 417.015625 831.757813 416.339844 831.125 415.683594 C 816.507813 400.570313 801.890625 385.453125 787.28125 370.332031 C 786.996094 370.039063 786.777344 369.679688 786.527344 369.351563 C 786.421875 369.421875 786.316406 369.492188 786.214844 369.5625 "/>
<path style=" stroke:none;fill-rule:nonzero;fill:rgb(100%,100%,100%);fill-opacity:1;" d="M 898.742188 415.070313 C 898.695313 414.28125 898.40625 413.585938 897.925781 412.976563 C 897.570313 412.527344 897.167969 412.117188 896.765625 411.710938 C 887.441406 402.355469 878.125 393 868.773438 383.671875 C 868.265625 383.167969 868.117188 382.863281 868.394531 382.425781 C 874.539063 376.144531 880.671875 369.851563 886.808594 363.5625 C 887.078125 363.285156 887.351563 363.011719 887.601563 362.71875 C 890.011719 360.253906 892.417969 357.78125 894.828125 355.3125 C 895.335938 354.796875 895.847656 354.285156 896.222656 353.652344 C 897.085938 352.179688 896.890625 350.765625 895.609375 349.253906 C 893.835938 347.164063 892.242188 346.488281 890.617188 347.148438 C 889.746094 347.503906 889.089844 348.144531 888.453125 348.804688 C 886.046875 351.296875 883.640625 353.789063 881.230469 356.277344 C 880.953125 356.519531 880.691406 356.785156 880.433594 357.050781 C 877.449219 360.140625 874.46875 363.226563 871.488281 366.3125 C 866.113281 371.875 860.742188 377.433594 855.371094 382.996094 C 855.371094 372.820313 855.371094 362.644531 855.367188 352.46875 C 855.367188 351.933594 855.386719 351.398438 855.335938 350.867188 C 855.175781 349.203125 854.25 348.023438 852.710938 347.648438 C 851.441406 347.339844 850.128906 347.324219 848.859375 347.664063 C 846.988281 348.171875 846.21875 349.523438 846.21875 352.175781 C 846.21875 372.917969 846.21875 393.660156 846.21875 414.40625 C 846.21875 415.054688 846.234375 415.695313 846.390625 416.335938 C 846.808594 418.082031 847.980469 419.039063 849.914063 419.175781 C 852.753906 419.378906 854.398438 418.679688 855.046875 416.945313 C 855.21875 416.488281 855.289063 415.984375 855.34375 415.5 C 855.394531 415.046875 855.367188 414.585938 855.367188 414.128906 C 855.371094 408 855.371094 401.867188 855.371094 395.738281 C 857.089844 393.988281 858.804688 392.234375 860.519531 390.476563 L 861.777344 389.191406 C 871.265625 398.910156 880.753906 408.628906 890.246094 418.34375 C 890.644531 418.75 891.058594 419.152344 891.507813 419.503906 C 892.148438 420.003906 892.882813 420.316406 893.714844 420.335938 C 895.933594 420.351563 898.878906 417.269531 898.742188 415.070313 "/>
<path style=" stroke:none;fill-rule:nonzero;fill:rgb(100%,100%,100%);fill-opacity:1;" d="M 693.492188 399.613281 C 692.878906 406.152344 688.960938 409.734375 682.386719 410.042969 C 677.160156 410.285156 671.929688 410.09375 666.703125 410.167969 C 666.003906 410.179688 665.910156 409.890625 665.914063 409.296875 C 665.9375 405.519531 665.925781 401.742188 665.925781 397.96875 C 665.925781 394.191406 665.941406 390.417969 665.910156 386.640625 C 665.902344 385.925781 666.046875 385.660156 666.835938 385.671875 C 671.375 385.734375 675.914063 385.726563 680.457031 385.765625 C 681.910156 385.78125 683.335938 386.027344 684.734375 386.421875 C 691.257813 388.269531 694.074219 393.382813 693.492188 399.613281 M 665.925781 366.523438 C 665.925781 363.472656 665.925781 360.421875 665.929688 357.367188 C 665.929688 356.941406 665.761719 356.4375 666.542969 356.464844 C 671.460938 356.625 676.394531 356.117188 681.289063 356.890625 C 681.929688 356.992188 682.566406 357.128906 683.179688 357.320313 C 688.15625 358.863281 690.292969 362.507813 689.199219 367.636719 C 688.601563 370.441406 687.3125 372.855469 684.984375 374.625 C 682.96875 376.152344 680.558594 376.488281 678.164063 376.574219 C 674.351563 376.703125 670.53125 376.601563 666.714844 376.636719 C 666.039063 376.644531 665.90625 376.414063 665.914063 375.796875 C 665.941406 372.707031 665.925781 369.613281 665.925781 366.523438 M 692.660156 381.867188 C 691.683594 381.386719 690.679688 380.953125 689.566406 380.4375 C 691.597656 379.5625 693.304688 378.453125 694.683594 376.898438 C 698.398438 372.703125 699.328125 367.675781 698.523438 362.363281 C 697.347656 354.59375 691.023438 348.667969 683.011719 347.835938 C 675.40625 347.042969 667.761719 347.480469 660.132813 347.539063 C 658.390625 347.554688 657.308594 348.695313 656.917969 350.425781 C 656.765625 351.105469 656.773438 351.785156 656.773438 352.472656 C 656.773438 373.03125 656.773438 393.59375 656.773438 414.15625 C 656.773438 414.5 656.765625 414.839844 656.78125 415.183594 C 656.90625 417.8125 658.265625 419.179688 660.910156 419.183594 C 668.160156 419.195313 675.414063 419.195313 682.664063 419.128906 C 686.574219 419.09375 690.304688 418.242188 693.628906 416.058594 C 699.050781 412.492188 701.914063 407.367188 702.632813 401.003906 C 703.574219 392.628906 700.59375 385.773438 692.660156 381.867188 "/>
<path style=" stroke:none;fill-rule:nonzero;fill:rgb(100%,100%,100%);fill-opacity:1;" d="M 746.929688 388.949219 C 740.953125 388.933594 734.980469 388.941406 728.84375 388.941406 C 731.972656 381.769531 735.046875 374.71875 738.199219 367.484375 C 741.308594 374.554688 744.296875 381.371094 747.300781 388.179688 C 747.492188 388.621094 747.691406 388.949219 746.929688 388.949219 M 768.222656 413.207031 C 759.234375 392.738281 750.242188 372.273438 741.242188 351.808594 C 740.890625 351.007813 740.511719 350.214844 739.859375 349.59375 C 738.84375 348.640625 737.730469 348.636719 736.71875 349.605469 C 736.042969 350.253906 735.671875 351.089844 735.304688 351.929688 C 728.285156 368.070313 721.265625 384.214844 714.25 400.355469 C 712.308594 404.820313 710.347656 409.273438 708.464844 413.761719 C 707.46875 416.132813 708.167969 417.8125 710.460938 418.941406 C 710.9375 419.175781 711.433594 419.378906 711.9375 419.542969 C 713.820313 420.152344 715.332031 419.574219 716.3125 417.863281 C 716.578125 417.40625 716.789063 416.914063 717.003906 416.425781 C 719.535156 410.6875 722.070313 404.949219 724.578125 399.199219 C 724.871094 398.523438 725.210938 398.238281 726.003906 398.242188 C 734.25 398.28125 742.492188 398.28125 750.738281 398.242188 C 751.578125 398.238281 751.929688 398.542969 752.230469 399.265625 C 753.585938 402.488281 754.988281 405.695313 756.382813 408.902344 C 757.65625 411.832031 758.898438 414.773438 760.238281 417.671875 C 761.027344 419.375 762.394531 420.082031 764 419.847656 C 766.328125 419.515625 768.417969 418.011719 768.75 416.421875 C 768.804688 416.160156 768.808594 415.890625 768.832031 415.625 C 768.867188 414.757813 768.558594 413.976563 768.222656 413.207031 "/>
<path style=" stroke:none;fill-rule:nonzero;fill:rgb(100%,100%,100%);fill-opacity:1;" d="M 559.453125 353.789063 C 559.453125 352.957031 559.328125 352.136719 559.078125 351.347656 C 558.011719 347.941406 554.890625 345.65625 551.320313 345.65625 L 519.933594 345.65625 C 515.71875 345.65625 512.238281 348.816406 511.839844 353.007813 C 511.816406 353.269531 511.804688 353.53125 511.804688 353.789063 L 511.804688 413.121094 C 511.804688 413.429688 511.820313 413.75 511.859375 414.074219 C 512.335938 418.167969 515.808594 421.253906 519.933594 421.253906 L 551.320313 421.253906 C 555.804688 421.253906 559.453125 417.605469 559.453125 413.121094 C 559.453125 408.636719 555.804688 404.988281 551.320313 404.988281 L 528.109375 404.988281 C 528.140625 400.179688 528.140625 395.664063 528.105469 391.242188 L 551.320313 391.242188 C 555.804688 391.242188 559.453125 387.597656 559.453125 383.109375 C 559.453125 378.628906 555.804688 374.976563 551.320313 374.976563 L 528.101563 374.976563 C 528.152344 370.644531 528.152344 366.261719 528.105469 361.921875 L 551.320313 361.921875 C 555.804688 361.921875 559.453125 358.273438 559.453125 353.789063 "/>
<path style=" stroke:none;fill-rule:nonzero;fill:rgb(100%,100%,100%);fill-opacity:1;" d="M 638.710938 383.742188 C 638.578125 379.945313 635.863281 377.476563 631.800781 377.453125 C 622.832031 377.40625 613.71875 377.433594 605.675781 377.453125 C 605.433594 377.453125 605.1875 377.464844 604.9375 377.480469 L 602.363281 377.386719 L 602.292969 377.386719 C 597.808594 377.386719 594.160156 381.03125 594.160156 385.515625 C 594.160156 388.507813 595.789063 391.242188 598.417969 392.667969 C 598.675781 392.820313 598.945313 392.957031 599.21875 393.066406 C 599.546875 393.199219 599.890625 393.308594 600.269531 393.394531 C 601.046875 393.59375 601.863281 393.679688 602.660156 393.640625 L 602.757813 393.640625 C 609.484375 393.636719 615.570313 393.636719 621.320313 393.644531 C 620.679688 395.8125 619.570313 397.734375 618.011719 399.378906 C 612.839844 404.824219 606.179688 406.859375 598.210938 405.429688 C 589.800781 403.917969 583.980469 398.894531 580.910156 390.492188 C 577.167969 380.253906 582.128906 368.03125 591.96875 363.257813 C 599.492188 359.601563 606.992188 359.953125 614.898438 364.320313 C 617.351563 365.679688 619.480469 367.640625 621.410156 369.554688 C 621.765625 369.90625 622.140625 370.226563 622.523438 370.507813 C 624.019531 371.847656 625.941406 372.585938 627.949219 372.585938 C 632.4375 372.585938 636.085938 368.933594 636.085938 364.449219 C 636.085938 362.4375 635.34375 360.511719 634 359.015625 C 633.71875 358.640625 633.394531 358.261719 633.03125 357.882813 C 624.628906 349.140625 614.304688 344.695313 602.355469 344.664063 C 602.3125 344.660156 602.273438 344.660156 602.230469 344.660156 C 589.734375 344.660156 579.539063 349.519531 571.921875 359.097656 C 566.023438 366.515625 563.070313 375.828125 563.605469 385.316406 C 564.144531 394.773438 568.105469 403.722656 574.757813 410.519531 C 580.195313 416.074219 587.109375 419.808594 594.753906 421.328125 C 597.246094 421.820313 599.757813 422.066406 602.253906 422.066406 C 607.421875 422.066406 612.53125 421.015625 617.324219 418.933594 C 632.714844 412.265625 639.152344 396.453125 638.710938 383.742188 "/>
<path style=" stroke:none;fill-rule:nonzero;fill:rgb(0%,77.2995%,70.599365%);fill-opacity:1;" d="M 794.820313 86.140625 C 771.449219 86.140625 749.882813 93.863281 732.53125 106.890625 C 731.851563 107.328125 731.210938 107.820313 730.617188 108.363281 C 727.738281 110.996094 725.929688 114.78125 725.929688 118.992188 C 725.929688 126.941406 732.375 133.382813 740.324219 133.382813 C 742.890625 133.382813 745.300781 132.710938 747.386719 131.53125 C 748.585938 130.855469 749.675781 130.015625 750.628906 129.035156 C 755.25 125.675781 760.230469 122.851563 765.535156 120.609375 C 774.796875 116.691406 784.648438 114.707031 794.820313 114.707031 C 804.992188 114.707031 814.847656 116.691406 824.105469 120.609375 C 833.066406 124.398438 841.117188 129.828125 848.039063 136.75 C 854.960938 143.671875 860.390625 151.722656 864.179688 160.679688 C 868.097656 169.941406 870.082031 179.796875 870.082031 189.96875 C 870.082031 200.140625 868.097656 209.992188 864.179688 219.253906 C 860.390625 228.214844 854.960938 236.265625 848.039063 243.1875 C 841.117188 250.105469 833.066406 255.539063 824.105469 259.328125 C 814.847656 263.242188 804.992188 265.230469 794.820313 265.230469 C 784.648438 265.230469 774.796875 263.242188 765.535156 259.328125 C 756.574219 255.539063 748.523438 250.105469 741.601563 243.1875 C 734.679688 236.265625 729.25 228.214844 725.460938 219.253906 C 724.191406 216.253906 723.128906 213.191406 722.265625 210.074219 L 783.394531 210.074219 C 791.949219 210.074219 798.886719 203.136719 798.886719 194.582031 C 798.886719 186.027344 791.949219 179.089844 783.394531 179.089844 L 718.992188 179.089844 C 717.421875 163.992188 712.613281 149.851563 705.273438 137.382813 C 687.230469 106.71875 653.882813 86.140625 615.730469 86.140625 C 558.386719 86.140625 511.902344 132.625 511.902344 189.96875 C 511.902344 247.308594 558.386719 293.796875 615.730469 293.796875 C 638.960938 293.796875 660.40625 286.167969 677.703125 273.277344 C 678.960938 272.574219 680.097656 271.683594 681.085938 270.648438 C 683.546875 268.066406 685.058594 264.574219 685.058594 260.722656 C 685.058594 252.777344 678.613281 246.332031 670.664063 246.332031 C 667.824219 246.332031 665.179688 247.15625 662.949219 248.578125 C 662.167969 249.074219 661.4375 249.644531 660.765625 250.28125 C 655.910156 253.917969 650.644531 256.945313 645.015625 259.328125 C 635.757813 263.242188 625.902344 265.230469 615.730469 265.230469 C 605.558594 265.230469 595.703125 263.242188 586.441406 259.328125 C 577.484375 255.539063 569.433594 250.105469 562.511719 243.1875 C 555.589844 236.265625 550.160156 228.214844 546.371094 219.253906 C 542.453125 209.992188 540.46875 200.140625 540.46875 189.96875 C 540.46875 179.796875 542.453125 169.941406 546.371094 160.679688 C 550.160156 151.722656 555.589844 143.671875 562.511719 136.75 C 569.433594 129.828125 577.484375 124.398438 586.441406 120.609375 C 595.703125 116.691406 605.558594 114.707031 615.730469 114.707031 C 625.902344 114.707031 635.757813 116.691406 645.015625 120.609375 C 653.976563 124.398438 662.027344 129.828125 668.949219 136.75 C 675.871094 143.671875 681.300781 151.722656 685.089844 160.679688 C 687.59375 166.597656 689.300781 172.761719 690.214844 179.089844 L 626.71875 179.089844 C 618.160156 179.089844 611.226563 186.027344 611.226563 194.582031 C 611.226563 203.136719 618.160156 210.074219 626.71875 210.074219 L 692.941406 210.074219 C 695.226563 221.714844 699.453125 232.660156 705.273438 242.554688 C 723.320313 273.21875 756.667969 293.796875 794.820313 293.796875 C 852.164063 293.796875 898.648438 247.308594 898.648438 189.96875 C 898.648438 132.625 852.164063 86.140625 794.820313 86.140625 "/>
<g clip-path="url(#clip2)" clip-rule="nonzero">
<path style=" stroke:none;fill-rule:nonzero;fill:rgb(100%,100%,100%);fill-opacity:1;" d="M 0 470.25 L 470.25 470.25 L 470.25 0 L 0 0 Z M 0 470.25 "/>
</g>
<path style=" stroke:none;fill-rule:nonzero;fill:rgb(3.09906%,23.098755%,43.899536%);fill-opacity:1;" d="M 315.964844 369.5625 L 315.964844 370.8125 C 315.964844 385.230469 315.964844 399.652344 315.964844 414.074219 C 315.964844 414.570313 315.972656 415.066406 315.929688 415.558594 C 315.890625 415.972656 315.828125 416.394531 315.699219 416.789063 C 315.046875 418.722656 313.167969 419.511719 310.105469 419.164063 C 308.148438 418.941406 306.941406 417.789063 306.730469 415.890625 C 306.660156 415.289063 306.640625 414.675781 306.640625 414.066406 C 306.636719 393.921875 306.636719 373.777344 306.636719 353.636719 C 306.636719 352.683594 306.613281 351.726563 306.972656 350.8125 C 307.5625 349.324219 308.738281 348.855469 310.191406 349.527344 C 311.042969 349.921875 311.664063 350.597656 312.304688 351.253906 C 326.949219 366.230469 341.59375 381.214844 356.234375 396.199219 C 356.523438 396.492188 356.78125 396.8125 357.308594 397.015625 L 357.308594 395.824219 C 357.308594 381.441406 357.378906 367.058594 357.269531 352.675781 C 357.226563 347.476563 359.960938 347.160156 363.519531 347.574219 C 365 347.746094 365.972656 348.6875 366.351563 350.191406 C 366.523438 350.867188 366.542969 351.546875 366.542969 352.230469 C 366.542969 372.679688 366.539063 393.128906 366.546875 413.578125 C 366.546875 414.421875 366.527344 415.257813 366.25 416.0625 C 365.71875 417.605469 364.464844 418.113281 362.980469 417.417969 C 362.125 417.015625 361.507813 416.339844 360.875 415.683594 C 346.257813 400.570313 331.640625 385.453125 317.03125 370.332031 C 316.746094 370.039063 316.527344 369.679688 316.277344 369.351563 C 316.171875 369.421875 316.066406 369.492188 315.964844 369.5625 "/>
<path style=" stroke:none;fill-rule:nonzero;fill:rgb(3.09906%,23.098755%,43.899536%);fill-opacity:1;" d="M 428.492188 415.070313 C 428.445313 414.28125 428.15625 413.585938 427.675781 412.976563 C 427.320313 412.527344 426.917969 412.117188 426.515625 411.710938 C 417.191406 402.355469 407.875 393 398.523438 383.671875 C 398.015625 383.167969 397.867188 382.863281 398.144531 382.425781 C 404.289063 376.144531 410.421875 369.851563 416.558594 363.5625 C 416.828125 363.285156 417.101563 363.011719 417.351563 362.71875 C 419.761719 360.253906 422.167969 357.78125 424.578125 355.3125 C 425.082031 354.796875 425.601563 354.285156 425.972656 353.652344 C 426.835938 352.179688 426.640625 350.765625 425.359375 349.253906 C 423.585938 347.164063 421.992188 346.488281 420.367188 347.148438 C 419.496094 347.503906 418.839844 348.144531 418.203125 348.804688 C 415.796875 351.296875 413.390625 353.789063 410.980469 356.277344 C 410.703125 356.519531 410.441406 356.785156 410.183594 357.050781 C 407.203125 360.140625 404.21875 363.226563 401.238281 366.3125 C 395.863281 371.875 390.492188 377.433594 385.121094 382.996094 C 385.121094 372.820313 385.121094 362.644531 385.117188 352.46875 C 385.117188 351.933594 385.136719 351.398438 385.082031 350.867188 C 384.925781 349.203125 383.996094 348.023438 382.460938 347.648438 C 381.191406 347.339844 379.878906 347.324219 378.609375 347.664063 C 376.738281 348.171875 375.96875 349.523438 375.96875 352.175781 C 375.96875 372.917969 375.96875 393.660156 375.96875 414.40625 C 375.96875 415.054688 375.984375 415.695313 376.140625 416.335938 C 376.558594 418.082031 377.730469 419.039063 379.664063 419.175781 C 382.503906 419.378906 384.148438 418.679688 384.796875 416.945313 C 384.96875 416.488281 385.035156 415.984375 385.09375 415.5 C 385.144531 415.046875 385.117188 414.585938 385.117188 414.128906 C 385.121094 408 385.121094 401.867188 385.121094 395.738281 C 386.835938 393.988281 388.554688 392.234375 390.269531 390.476563 C 390.6875 390.050781 391.109375 389.621094 391.527344 389.191406 C 401.015625 398.910156 410.503906 408.628906 419.996094 418.34375 C 420.394531 418.75 420.808594 419.152344 421.257813 419.503906 C 421.898438 420.003906 422.632813 420.316406 423.464844 420.335938 C 425.683594 420.351563 428.628906 417.269531 428.492188 415.070313 "/>
<path style=" stroke:none;fill-rule:nonzero;fill:rgb(3.09906%,23.098755%,43.899536%);fill-opacity:1;" d="M 223.242188 399.613281 C 222.628906 406.152344 218.710938 409.734375 212.136719 410.042969 C 206.910156 410.285156 201.683594 410.09375 196.453125 410.167969 C 195.753906 410.179688 195.660156 409.890625 195.664063 409.296875 C 195.6875 405.519531 195.675781 401.742188 195.675781 397.96875 C 195.675781 394.191406 195.695313 390.417969 195.660156 386.640625 C 195.65625 385.925781 195.800781 385.660156 196.585938 385.671875 C 201.125 385.734375 205.664063 385.726563 210.207031 385.765625 C 211.660156 385.78125 213.085938 386.027344 214.484375 386.421875 C 221.007813 388.269531 223.824219 393.382813 223.242188 399.613281 M 195.675781 366.523438 C 195.675781 363.472656 195.675781 360.421875 195.679688 357.367188 C 195.679688 356.941406 195.511719 356.4375 196.292969 356.464844 C 201.210938 356.625 206.144531 356.117188 211.039063 356.890625 C 211.679688 356.992188 212.316406 357.128906 212.929688 357.320313 C 217.90625 358.863281 220.042969 362.507813 218.949219 367.636719 C 218.355469 370.441406 217.066406 372.855469 214.734375 374.625 C 212.71875 376.152344 210.308594 376.488281 207.914063 376.574219 C 204.101563 376.703125 200.28125 376.601563 196.464844 376.636719 C 195.789063 376.644531 195.65625 376.414063 195.664063 375.796875 C 195.691406 372.707031 195.675781 369.613281 195.675781 366.523438 M 222.410156 381.867188 C 221.433594 381.386719 220.433594 380.953125 219.316406 380.4375 C 221.347656 379.5625 223.054688 378.453125 224.433594 376.898438 C 228.148438 372.703125 229.078125 367.675781 228.273438 362.363281 C 227.097656 354.59375 220.773438 348.667969 212.761719 347.835938 C 205.15625 347.042969 197.511719 347.480469 189.882813 347.539063 C 188.144531 347.554688 187.058594 348.695313 186.667969 350.425781 C 186.515625 351.105469 186.523438 351.785156 186.523438 352.472656 C 186.523438 373.03125 186.523438 393.59375 186.523438 414.15625 C 186.523438 414.5 186.519531 414.839844 186.535156 415.183594 C 186.65625 417.8125 188.015625 419.179688 190.660156 419.183594 C 197.910156 419.195313 205.164063 419.195313 212.414063 419.128906 C 216.328125 419.09375 220.054688 418.242188 223.378906 416.058594 C 228.804688 412.492188 231.664063 407.367188 232.382813 401.003906 C 233.324219 392.628906 230.34375 385.773438 222.410156 381.867188 "/>
<path style=" stroke:none;fill-rule:nonzero;fill:rgb(3.09906%,23.098755%,43.899536%);fill-opacity:1;" d="M 276.679688 388.949219 C 270.703125 388.933594 264.730469 388.941406 258.59375 388.941406 C 261.722656 381.769531 264.796875 374.71875 267.949219 367.484375 C 271.058594 374.554688 274.050781 381.371094 277.050781 388.179688 C 277.242188 388.621094 277.441406 388.949219 276.679688 388.949219 M 297.972656 413.207031 C 288.984375 392.738281 279.992188 372.273438 270.992188 351.808594 C 270.640625 351.007813 270.265625 350.214844 269.609375 349.59375 C 268.59375 348.640625 267.480469 348.636719 266.46875 349.605469 C 265.792969 350.253906 265.421875 351.089844 265.054688 351.929688 C 258.035156 368.070313 251.015625 384.214844 244 400.355469 C 242.058594 404.820313 240.097656 409.273438 238.214844 413.761719 C 237.21875 416.132813 237.917969 417.8125 240.210938 418.941406 C 240.6875 419.175781 241.183594 419.378906 241.6875 419.542969 C 243.570313 420.152344 245.082031 419.574219 246.0625 417.863281 C 246.328125 417.40625 246.539063 416.914063 246.753906 416.425781 C 249.285156 410.6875 251.820313 404.949219 254.328125 399.199219 C 254.621094 398.523438 254.960938 398.238281 255.753906 398.242188 C 264 398.28125 272.242188 398.28125 280.488281 398.242188 C 281.328125 398.238281 281.679688 398.542969 281.980469 399.265625 C 283.335938 402.488281 284.738281 405.695313 286.136719 408.902344 C 287.40625 411.832031 288.648438 414.773438 289.988281 417.671875 C 290.777344 419.375 292.144531 420.082031 293.75 419.847656 C 296.078125 419.515625 298.167969 418.011719 298.5 416.421875 C 298.554688 416.160156 298.558594 415.890625 298.585938 415.625 C 298.617188 414.757813 298.308594 413.976563 297.972656 413.207031 "/>
<path style=" stroke:none;fill-rule:nonzero;fill:rgb(3.09906%,23.098755%,43.899536%);fill-opacity:1;" d="M 89.203125 353.789063 C 89.203125 352.957031 89.078125 352.136719 88.832031 351.347656 C 87.761719 347.941406 84.640625 345.65625 81.070313 345.65625 L 49.683594 345.65625 C 45.46875 345.65625 41.988281 348.816406 41.589844 353.007813 C 41.566406 353.269531 41.550781 353.53125 41.550781 353.789063 L 41.550781 413.121094 C 41.550781 413.429688 41.570313 413.75 41.609375 414.074219 C 42.085938 418.167969 45.558594 421.253906 49.683594 421.253906 L 81.070313 421.253906 C 85.554688 421.253906 89.203125 417.605469 89.203125 413.121094 C 89.203125 408.636719 85.554688 404.988281 81.070313 404.988281 L 57.859375 404.988281 C 57.890625 400.179688 57.890625 395.664063 57.855469 391.242188 L 81.070313 391.242188 C 85.554688 391.242188 89.203125 387.597656 89.203125 383.109375 C 89.203125 378.628906 85.554688 374.976563 81.070313 374.976563 L 57.851563 374.976563 C 57.902344 370.644531 57.902344 366.261719 57.855469 361.921875 L 81.070313 361.921875 C 85.554688 361.921875 89.203125 358.273438 89.203125 353.789063 "/>
<path style=" stroke:none;fill-rule:nonzero;fill:rgb(3.09906%,23.098755%,43.899536%);fill-opacity:1;" d="M 168.460938 383.742188 C 168.328125 379.945313 165.617188 377.476563 161.550781 377.453125 C 152.585938 377.40625 143.46875 377.433594 135.425781 377.453125 C 135.183594 377.453125 134.9375 377.464844 134.6875 377.480469 L 132.113281 377.386719 L 132.042969 377.386719 C 127.558594 377.386719 123.910156 381.03125 123.910156 385.515625 C 123.910156 388.507813 125.539063 391.242188 128.167969 392.667969 C 128.425781 392.820313 128.695313 392.957031 128.96875 393.066406 C 129.296875 393.199219 129.640625 393.308594 130.019531 393.394531 C 130.796875 393.59375 131.613281 393.679688 132.410156 393.640625 L 132.507813 393.640625 C 139.234375 393.636719 145.320313 393.636719 151.070313 393.644531 C 150.429688 395.8125 149.320313 397.734375 147.761719 399.378906 C 142.589844 404.824219 135.929688 406.859375 127.960938 405.429688 C 119.550781 403.917969 113.730469 398.894531 110.660156 390.492188 C 106.917969 380.253906 111.878906 368.03125 121.71875 363.257813 C 129.242188 359.601563 136.742188 359.953125 144.644531 364.320313 C 147.101563 365.679688 149.226563 367.640625 151.160156 369.554688 C 151.515625 369.90625 151.886719 370.226563 152.277344 370.507813 C 153.769531 371.847656 155.691406 372.585938 157.703125 372.585938 C 162.1875 372.585938 165.835938 368.933594 165.835938 364.449219 C 165.835938 362.4375 165.09375 360.511719 163.75 359.015625 C 163.46875 358.640625 163.144531 358.261719 162.78125 357.882813 C 154.378906 349.140625 144.054688 344.695313 132.105469 344.664063 C 132.0625 344.660156 132.019531 344.660156 131.980469 344.660156 C 119.484375 344.660156 109.289063 349.519531 101.671875 359.097656 C 95.773438 366.515625 92.820313 375.828125 93.359375 385.316406 C 93.894531 394.773438 97.855469 403.722656 104.507813 410.519531 C 109.949219 416.074219 116.863281 419.808594 124.503906 421.328125 C 126.996094 421.820313 129.507813 422.066406 132.003906 422.066406 C 137.171875 422.066406 142.28125 421.015625 147.074219 418.933594 C 162.464844 412.265625 168.902344 396.453125 168.460938 383.742188 "/>
<path style=" stroke:none;fill-rule:nonzero;fill:rgb(0%,77.2995%,70.599365%);fill-opacity:1;" d="M 324.570313 86.140625 C 301.199219 86.140625 279.632813 93.863281 262.28125 106.890625 C 261.601563 107.328125 260.960938 107.820313 260.367188 108.363281 C 257.488281 110.996094 255.683594 114.78125 255.683594 118.992188 C 255.683594 126.941406 262.125 133.382813 270.074219 133.382813 C 272.640625 133.382813 275.050781 132.710938 277.136719 131.53125 C 278.335938 130.855469 279.425781 130.015625 280.378906 129.035156 C 285 125.675781 289.980469 122.851563 295.285156 120.609375 C 304.546875 116.691406 314.398438 114.707031 324.570313 114.707031 C 334.742188 114.707031 344.597656 116.691406 353.859375 120.609375 C 362.816406 124.398438 370.867188 129.828125 377.789063 136.75 C 384.710938 143.671875 390.140625 151.722656 393.929688 160.679688 C 397.847656 169.941406 399.832031 179.796875 399.832031 189.96875 C 399.832031 200.140625 397.847656 209.992188 393.929688 219.253906 C 390.140625 228.214844 384.710938 236.265625 377.789063 243.1875 C 370.867188 250.105469 362.816406 255.539063 353.859375 259.328125 C 344.597656 263.242188 334.742188 265.230469 324.570313 265.230469 C 314.398438 265.230469 304.546875 263.242188 295.285156 259.328125 C 286.324219 255.539063 278.273438 250.105469 271.351563 243.1875 C 264.433594 236.265625 259 228.214844 255.210938 219.253906 C 253.941406 216.253906 252.878906 213.191406 252.019531 210.074219 L 313.144531 210.074219 C 321.699219 210.074219 328.636719 203.136719 328.636719 194.582031 C 328.636719 186.027344 321.699219 179.089844 313.144531 179.089844 L 248.742188 179.089844 C 247.171875 163.992188 242.363281 149.851563 235.027344 137.382813 C 216.980469 106.71875 183.632813 86.140625 145.480469 86.140625 C 88.136719 86.140625 41.652344 132.625 41.652344 189.96875 C 41.652344 247.308594 88.136719 293.796875 145.480469 293.796875 C 168.710938 293.796875 190.15625 286.167969 207.453125 273.277344 C 208.710938 272.574219 209.847656 271.683594 210.835938 270.648438 C 213.296875 268.066406 214.808594 264.574219 214.808594 260.722656 C 214.808594 252.777344 208.363281 246.332031 200.414063 246.332031 C 197.574219 246.332031 194.929688 247.15625 192.699219 248.578125 C 191.917969 249.074219 191.1875 249.644531 190.519531 250.28125 C 185.660156 253.917969 180.394531 256.945313 174.765625 259.328125 C 165.507813 263.242188 155.652344 265.230469 145.480469 265.230469 C 135.308594 265.230469 125.453125 263.242188 116.195313 259.328125 C 107.234375 255.539063 99.183594 250.105469 92.261719 243.1875 C 85.339844 236.265625 79.910156 228.214844 76.121094 219.253906 C 72.203125 209.992188 70.21875 200.140625 70.21875 189.96875 C 70.21875 179.796875 72.203125 169.941406 76.121094 160.679688 C 79.910156 151.722656 85.339844 143.671875 92.261719 136.75 C 99.183594 129.828125 107.234375 124.398438 116.195313 120.609375 C 125.453125 116.691406 135.308594 114.707031 145.480469 114.707031 C 155.652344 114.707031 165.507813 116.691406 174.765625 120.609375 C 183.726563 124.398438 191.777344 129.828125 198.699219 136.75 C 205.621094 143.671875 211.050781 151.722656 214.839844 160.679688 C 217.34375 166.597656 219.054688 172.761719 219.964844 179.089844 L 156.46875 179.089844 C 147.910156 179.089844 140.976563 186.027344 140.976563 194.582031 C 140.976563 203.136719 147.910156 210.074219 156.46875 210.074219 L 222.691406 210.074219 C 224.976563 221.714844 229.203125 232.660156 235.027344 242.554688 C 253.070313 273.21875 286.417969 293.796875 324.570313 293.796875 C 381.914063 293.796875 428.398438 247.308594 428.398438 189.96875 C 428.398438 132.625 381.914063 86.140625 324.570313 86.140625 "/>
</g>
</svg>
