<svg width="158" height="46" viewBox="0 0 158 46" fill="none" xmlns="http://www.w3.org/2000/svg">
<path fill-rule="evenodd" clip-rule="evenodd" d="M157.781 0.455078L134.213 13.3704H143.651C138.777 23.8129 139.789 36.0497 146.301 45.5451C143.49 28.6974 150.373 12.3852 157.781 0.455078Z" fill="#E9322A"/>
<path fill-rule="evenodd" clip-rule="evenodd" d="M66.9694 13.405H70.3092L73.7671 23.1095C75.8102 28.8857 78.4425 36.5868 78.4425 36.5868C78.4425 36.5868 81.1534 29.1213 83.3931 23.1095L87.0081 13.405H90.3471L92.5868 39.8869H90.1512L89.247 29.3965C88.6974 23.1095 88.1867 16.5878 88.1867 16.5878C88.1867 16.5878 85.8287 23.1492 83.5113 29.3965L79.8566 39.2192H76.9887L73.5308 29.3965L69.1306 16.8622C69.1306 16.8622 68.7769 22.7954 68.305 29.3965L67.5587 39.8869H65.123L66.9694 13.405Z" fill="white"/>
<path fill-rule="evenodd" clip-rule="evenodd" d="M95.8867 39.8869H98.3232V13.405H95.8867V39.8869Z" fill="white"/>
<path fill-rule="evenodd" clip-rule="evenodd" d="M115.326 17.0593C114.108 16.2345 111.829 15.5659 109.865 15.5659C106.328 15.5659 104.089 17.3734 104.089 20.085C104.089 23.0711 106.839 24.2496 109.825 25.5464C113.204 27.0002 116.858 28.5713 116.858 33.0508C116.858 37.8443 113.165 40.1626 108.608 40.1626C106.132 40.1626 103.539 39.5725 101.653 38.4336V35.7228C103.185 36.9013 105.857 37.8047 108.489 37.8047C112.143 37.8047 114.383 36.1939 114.383 33.0896C114.383 30.5358 112.261 29.3184 109.786 28.2176C106.093 26.5679 101.574 25.1927 101.574 20.2421C101.574 15.5659 105.503 13.1699 109.825 13.1699C111.672 13.1699 113.794 13.5228 115.326 14.3485V17.0593Z" fill="white"/>
<path fill-rule="evenodd" clip-rule="evenodd" d="M133.44 39.8874L126.8 29.1218H126.053H122.045V39.8874H119.609V13.4055H125.581C131.907 13.4055 134.815 16.4701 134.815 21.4603C134.697 24.9175 132.889 27.7068 129.314 28.6895L136.347 39.8874H133.44ZM126.328 26.9605C130.375 26.9605 132.378 24.3671 132.378 21.3422C132.378 17.5701 130.335 15.5668 125.857 15.5668H122.045V26.9605H126.328Z" fill="white"/>
<path fill-rule="evenodd" clip-rule="evenodd" d="M0.5 13.3706H16.7526V18.179H6.32913V24.3478H15.6038V28.7728H6.32913V39.8781H0.5V13.3706Z" fill="white"/>
<path fill-rule="evenodd" clip-rule="evenodd" d="M24.1393 13.3706H30.6486L40.3498 39.8781H34.0107L32.3082 34.6019H21.9698L20.1822 39.8781H14.1836L24.1393 13.3706ZM30.7767 29.9216L28.5643 23.1139C28.0535 21.5395 27.5436 20.008 27.2452 18.7749H27.1601C26.8204 19.9659 26.3096 21.5825 25.798 23.1139L23.5013 29.9216H30.7767Z" fill="white"/>
<path fill-rule="evenodd" clip-rule="evenodd" d="M42.2598 13.3706H52.3436C58.0868 13.3706 61.1918 16.0938 61.1918 20.1361C61.1918 23.4115 59.1934 25.4115 57.0231 26.0066V26.0925C59.8744 26.7306 62.0009 28.7298 62.0009 32.177C62.0009 37.0268 58.3421 39.8781 52.5981 39.8781H42.2598V13.3706ZM51.5774 24.1776C54.2156 24.1776 55.3214 22.9866 55.3214 20.9436C55.3214 19.1146 54.1734 17.9228 51.6204 17.9228H48.0889V24.1776H51.5774ZM51.7039 35.3251C54.2999 35.3251 55.704 34.1341 55.704 31.7936C55.704 29.4108 54.385 28.1769 51.7477 28.1769H48.0889V35.3251H51.7039Z" fill="white"/>
</svg>
