<svg xmlns="http://www.w3.org/2000/svg" width="98.415" height="70.796"><g data-name="Group 15547" fill-rule="evenodd"><path data-name="Path 58615" d="M96.415 64.301c-.158-.96.662-1.189.955-.288.41 2.879-2.313 3.377-3.085 1.946-.159-.367-.389-.119-.8.216a2.446 2.446 0 0 1-3.878-1.081c-.218-.847-.55-.672-.711-.312-1.378 2.431-6.594 2.939-8.147 1.575-1.206-1.182-.626-3.2.657-4.453-.648 2.455-.249 3.752 1.791 3.738a34.492 34.492 0 0 0 3.82-.621q2.128-.68 1.836-3.387l-.588-6.27c.318-.384.732-.656 1.05-1.041.373 2.816.612 6.23 1.118 9.4.954 2.532 2.592 2.258 4.225-.157.44.349-.04 1.782 1.045 1.945.251.1.943-.4.715-1.212Z" fill="#fff" stroke="#fff" stroke-linecap="round" stroke-linejoin="round" stroke-width="1.984"/><path data-name="Path 58616" d="M51.162 63.541c.1 2.2-1.084 3.283-2.849 2.05-.974.646-1.435 1.1-2.44-.184-1.29 1.172-2.5 1.394-3.55-.687-1.213 2.54-3.354 3.091-4.889 2.5a22.968 22.968 0 0 0 3-1.764 1.564 1.564 0 0 0 .01-2.068c-1.153-2.867-3.659-5.78-5.148-8.129q.148-.784.3-1.568a19.261 19.261 0 0 1 3.136 2.729c-.909 0-1.054.215-.618.639 1.484 2.08 2.978 4.1 3.518 6.736.693-1.655.715-4.631 0-9.058l1.124-.871a55.935 55.935 0 0 1 .178 9.058c.687 2.1 1.845 2.615 3.633.684.234 2.023 1.754 1.521 2.4.129.37 1.652.977 1.648 1.881-.332.11-.641.294-.439.317.14Z" fill="#fff" stroke="#fff" stroke-linecap="round" stroke-linejoin="round" stroke-width="1.984"/><path data-name="Path 58617" d="M31.603 58.327c-.305.1-.542.064-.848.164l-.051 5.845c-.135 1.565-.627 1.941-1.171 2.148.053-3.528.129-7.26-.051-10.79a.665.665 0 0 1 .153-.849c.633-.378 1.135-.771 1.069-.25a18.8 18.8 0 0 0 .9 3.732Z" fill="#fff" stroke="#fff" stroke-linecap="round" stroke-linejoin="round" stroke-width="1.984"/><path data-name="Path 58618" d="M26.584 60.227c-1.038 1.045.964 1.58.761.213-.244.585-.894.53-.761-.213Z" fill="#fff" stroke="#fff" stroke-linecap="round" stroke-linejoin="round" stroke-width="1.984"/><path data-name="Path 58619" d="M4.944 61.289c.249-.125-.026-1.583 0-2.5q-.012-.569.255-.55c.945.259 1.113-.439.865-.8a.86.86 0 0 1-.509-1.049q-.071-.371.815-.35l.051-1.1c-.69-.111-.969.088-.967.5 0 .545-.113.758-.269.749a.205.205 0 0 1-.18-.2c0-.316-.01-.633-.01-.949l-.967.05c-.2.1-.266.928.306 1.249 1.168.958.3 1.222.385 1.859a4.9 4.9 0 0 0 .226 3.086Z" fill="#fff" stroke="#fff" stroke-linecap="round" stroke-linejoin="round" stroke-width="1.984"/><path data-name="Path 58620" d="M17.162 58.641v-.4a1.844 1.844 0 0 0-1.324-.047c-.017.167.008.292-.009.458a4.8 4.8 0 0 1 1.333-.012Z" fill="#fff" stroke="#fff" stroke-linecap="round" stroke-linejoin="round" stroke-width="1.984"/><path data-name="Path 58621" d="M18.181 55.69v-.734c-1.356-.069-.87.807-1.375.738-.445-.364-.175-.827-1.375-.688 0 .367.062.732.062 1.1.591 0 .953.1 1.007.589.13.755.651.633.713 0 .054-.6.253-.939.967-1Z" fill="#fff" stroke="#fff" stroke-linecap="round" stroke-linejoin="round" stroke-width="1.984"/><path data-name="Path 58622" d="M26.988 57.992a3.416 3.416 0 0 0-.356-2.548c-.375-.358-.674-.142-.458.4s.366 1.074.569 1.611c.04.534.15.713.245.537Z" fill="#fff" stroke="#fff" stroke-linecap="round" stroke-linejoin="round" stroke-width="1.984"/><path data-name="Path 58623" d="M46.815 67.201c.478.305-.061 1.228-.838.931a.957.957 0 0 1-1.12 0 1.838 1.838 0 0 1-2.189.849c1.88-.387 1.563-1.137 2.24-1.3.493.332.771.083 1.018-.25.319.412.631.38.889-.232Z" fill="#fff" stroke="#fff" stroke-linecap="round" stroke-linejoin="round" stroke-width="1.984"/><path data-name="Path 58624" d="m73.876 66.983-.815.9-1.018-.949-.815.949 1.069.949.865-.7.967.749.865-1-1.12-.9Z" fill="#fff" stroke="#fff" stroke-linecap="round" stroke-linejoin="round" stroke-width="1.984"/><path data-name="Path 58625" d="M53.762 57.46c.472-.169.151-.62-.351-.417-.322.167-.627.351-.949.517-.372.282-.233.451.309.35a2.037 2.037 0 0 1 .992-.45Z" fill="#fff" stroke="#fff" stroke-linecap="round" stroke-linejoin="round" stroke-width="1.984"/><path data-name="Path 58626" d="M86.247 59.192c1.063-.349.127-1.061-.458-.7-.7.583-1.391 1.187-2.087 1.77-.535.623-.6 1.143.356 1.328.747-.093 1.336-.095.815.55a4.4 4.4 0 0 1-1.578.45c-.633.16-.613.758.255.649a2.855 2.855 0 0 0 2.495-1.3c.419-.639.194-1.542-.443-1.456-.9.026-.925-.185-.677-.442l1.324-.849Z" fill="#fff" stroke="#fff" stroke-linecap="round" stroke-linejoin="round" stroke-width="1.984"/><path data-name="Path 58627" d="M91.186 57.043c.618-.225 1.652.119 1.578-.749-.526-.129-1.052.079-1.578-.05a1.359 1.359 0 0 1 1.273-.8h1.222c-.134 1.012-.458 1.61-.929 1.836-.416.2-1.614.411-1.566-.237Z" fill="#fff" stroke="#fff" stroke-linecap="round" stroke-linejoin="round" stroke-width="1.984"/><path data-name="Path 58628" d="m96.35 55.894.078.949-4.563 2.9-.121-.8 4.605-3.047Z" fill="#fff" stroke="#fff" stroke-linecap="round" stroke-linejoin="round" stroke-width="1.984"/><path data-name="Path 58629" d="m95.971 67.283 1.171.949-.916.9-1.069-1 .814-.849Z" fill="#fff" stroke="#fff" stroke-linecap="round" stroke-linejoin="round" stroke-width="1.984"/><path data-name="Path 58630" d="m24.494 58.092-.815-3.7c-.082-.751-.31-.544-.56-.2a2.815 2.815 0 0 0-.509.749c-.083 2.808.237 4.118.2 9.174.053.133-.718.122-1.222.317 1.148-2.38-.193-4.6-3.309-3.2a18.053 18.053 0 0 0-3.06 3.285c-1.537-1.184-2.814-1.174-4.31.4-1.074 1.069-2.337 2.057-3.474 3.106-1.618 1.178-2.385.127-1.731-2.6a18.884 18.884 0 0 0 5.57-2.236c1.367-.713 1.576-3.193.03-3.059l-2.087-.15c-.608-.029-1.123-.267-.467-1.058 1.146-1.347 2.451-2.322 3.165-.741.073.228.166.408.407.25.7-2.043.068-2.764-1.527-2.348a5.75 5.75 0 0 0-3.144 3.905c-.076.924.082 1.481 1.159 1.34 1.65-.123 2.661-.286 2.247.867-2.1.786-6.019 2.492-7.9 1.431-1.574-.953-1.616-2.777-.611-5.2-3.055 3.855-1.222 6.569 2.444 7.143-.789 3.236.527 4.983 2.444 3.747a14.76 14.76 0 0 0 3.462-3.2c1.6-1.622 3.218-.956 3.381.15a1.146 1.146 0 0 0-.174 1c.389.348.315-.522.662-.855a13.6 13.6 0 0 0 7.484-.849c.3-.078.675-.318.857.25.55 1.4 1.808 1.529 2.66.146.789-1.172.414-2.681-.83-2.462-.846.057-1.074.149-1.057-.682l-.1-5.045q.774.559.713.3Zm-.139 6.606a.823.823 0 0 1 .715.413c.112.323-.127.6-.589.351-.338-.352-.288-.579-.126-.764Zm-8.363-.162q-.537.6.356.7a9.691 9.691 0 0 0 4.124-.649c.916-.428.88-1.156.093-2.019a1.82 1.82 0 0 0-2.588.021 10.965 10.965 0 0 0-1.985 1.948Z" fill="#fff" stroke="#fff" stroke-linecap="round" stroke-linejoin="round" stroke-width="1.984"/><path data-name="Path 58631" d="M14.872 60.989c1.078-1.437-.442-1.325-.815-.849-.85.944-.368 2.011.815.849Zm-.653-.158c.236.113.513-.2.363-.4-.239-.131-.54.222-.363.4Z" fill="#fff" stroke="#fff" stroke-linecap="round" stroke-linejoin="round" stroke-width="1.984"/><path data-name="Path 58632" d="M32.916 61.393c.249-.125 0-1.583.023-2.5-.008-.379.053-.563.231-.55.98.259 1.139-.439.866-.8a.86.86 0 0 1-.509-1.049q-.071-.371.815-.35a2.241 2.241 0 0 0 .051-1.1c-.69-.111-.969.088-.967.5 0 .545-.113.758-.269.749a.205.205 0 0 1-.18-.2c0-.316-.01-.633-.01-.949-.322.017-.714.033-1.036.05-.2.1-.289 1.086.374 1.249 1.168.958.232 1.222.316 1.859a4.82 4.82 0 0 0 .295 3.086Z" fill="#fff" stroke="#fff" stroke-linecap="round" stroke-linejoin="round" stroke-width="1.984"/><path data-name="Path 58633" d="M21.099 56.506a2.244 2.244 0 0 0-.234-1.674c-.246-.235-.443-.094-.3.263s.24.706.374 1.059c.026.351.1.468.161.353Z" fill="#fff" stroke="#fff" stroke-linecap="round" stroke-linejoin="round" stroke-width="1.984"/><path data-name="Path 58634" d="M36 64.436a1.839 1.839 0 0 0 .407-1.1 9.878 9.878 0 0 1 1.527.05 4.665 4.665 0 0 1 .753-2.388c-2.659-1.767-4.509-1.671-4.317 1.639-1.027.739-2.014 1.5-1.731 3.047.771.153 1.969-.023 2.953.1.194.153.255.366-.611 1-2.83 1.424-5.107 1.874-6.72 1.149-1.341-.856-1.064-2.315-.051-4.046-2.055 1.061-3.088 4.646.153 5.595a8.575 8.575 0 0 0 8.3-3.1c.59-.888.228-1.378-.815-1.648-1.388-.16-2.462.158-1.578-.749.957-.634 1.586-.588 1.731.45Zm.715-2.084q1-.162.178-.775c-.828-.406-1.4-.405-1.649.087-.072.685.6.77 1.471.687Z" fill="#fff" stroke="#fff" stroke-linecap="round" stroke-linejoin="round" stroke-width="1.984"/><path data-name="Path 58635" d="M78.492 63.868h-1.4c-1.212-.007-1.42-.914-1.235-2.379.577-1.517 1.567-1.563 2.557-.577a3.26 3.26 0 0 1 1.029 2.667 3.884 3.884 0 0 1-.074 1.874c-.408 1.524-3.613 1.615-4.187.216q-.076-.452-.735-.216a16.223 16.223 0 0 1-7.55.965 8.289 8.289 0 0 1-.849 1.455c-.1-.424.407-1.194.451-1.686-.333-.333-.428-.8-.851-.692a2.474 2.474 0 0 1-4.2-.114c-.168-.281-.357-.229-.471.1-2.422 3.892-7.195 4.864-9.151 2.566.17.2-1.512.241-3.085.288 1.311-.538 2.982-1.128 2.967-1.341a5.485 5.485 0 0 1 1.66-4.209c.142.436-.7 1.668-.736 3.293-.072.415.2.361.513.241 1.1-.791 1.623-1.55 1.32-2.264-.524-1.71-1.964-3.363-3.472-5.13a12.423 12.423 0 0 1-3.5-3.565l.691-1.561a23.4 23.4 0 0 1 2.359 2.53 2.235 2.235 0 0 0 .658.538h-.6c-.032.125.084.406.67.754a15.726 15.726 0 0 1 3.354 4c.344.51.41.284.445-.047a15.53 15.53 0 0 0-.52-6.159 5.712 5.712 0 0 1 1.1-1.561l1.042 4.252c-.472-.046-.865.013-.713.807.551 5.411-.666 7.515-2.523 8.656.642 1.061 5.6-.125 7.405-3.273l-.329-9.258 1.1-1.077.494 9.043c.725 3.723 3.3 1.8 4.279.323a6.724 6.724 0 0 0 .922 1.4c1.551-2.506 2.755-3.96 5.053-3.818 1.24.13 1.844.945 1.375 2.9-.369 1.165.747.543 1.368.022.365 1.1 1 2.055 3.548 1.319.671-.821.28-1.144-.178-1.286Zm-10.164.688q-.813.724.31.634a23.569 23.569 0 0 0 3.505-.546 1.127 1.127 0 0 0 .089-2.12c-1.544-.633-2.721.715-3.9 2.033Zm8.806-1.952c.266 0 .45 0 .51-.425 0-.205-.176-.4-.561-.39a.43.43 0 0 0-.38.454c.008.127-.016.371.431.361Z" fill="#fff" stroke="#fff" stroke-linecap="round" stroke-linejoin="round" stroke-width="1.984"/><path data-name="Path 58636" d="m92.86 59.816 1.106.965-.867.948-1.118-.967.88-.946Z" fill="#fff" stroke="#fff" stroke-linecap="round" stroke-linejoin="round" stroke-width="1.984"/><path data-name="Path 58637" d="m76.857 56.691 1.106.965-.867.947-1.118-.967.88-.946Z" fill="#fff" stroke="#fff" stroke-linecap="round" stroke-linejoin="round" stroke-width="1.984"/><path data-name="Path 58638" d="M66.293 55.763v-.753c-1.391-.071-.892.828-1.41.757-.456-.373-.18-.849-1.41-.706 0 .376.064.751.064 1.127.606 0 .978.1 1.033.6.133.774.668.649.731 0 .055-.62.259-.963.992-1.029Z" fill="#fff" stroke="#fff" stroke-linecap="round" stroke-linejoin="round" stroke-width="1.984"/><path data-name="Path 58639" d="M45.306 59.601c.2-.1 0-1.2.018-1.9-.007-.289.042-.428.184-.418.779.2.906-.334.688-.608-.286-.169-.522-.37-.4-.8q-.057-.283.648-.266a1.635 1.635 0 0 0 .041-.837c-.549-.085-.771.067-.769.38 0 .415-.09.577-.214.57a.159.159 0 0 1-.143-.152c0-.241-.008-.481-.008-.723-.256.013-.568.025-.824.038a.625.625 0 0 0 .3.951c.929.729.185.93.252 1.415a3.524 3.524 0 0 0 .234 2.349Z" fill="#fff" stroke="#fff" stroke-linecap="round" stroke-linejoin="round" stroke-width="1.984"/><path data-name="Path 58640" d="M45.569 60.399c-1.078 1.437.442 1.325.815.849.85-.944.368-2.011-.815-.849Zm.653.158c-.236-.113-.513.2-.363.4.24.131.54-.223.363-.4Z" fill="#fff" stroke="#fff" stroke-linecap="round" stroke-linejoin="round" stroke-width="1.984"/><path data-name="Path 58641" d="M74.099 59.636c1.078-1.437-.442-1.325-.815-.849-.85.944-.368 2.011.815.849Zm-.653-.158c.236.113.513-.2.363-.4-.24-.131-.54.222-.363.4Z" fill="#fff" stroke="#fff" stroke-linecap="round" stroke-linejoin="round" stroke-width="1.984"/><path data-name="Path 58642" d="M87.09 57.127a1.551 1.551 0 0 0-.028-1.674c-.315-.235-.629-.094-.489.263s.218.706.348 1.059c-.027.351.056.468.169.353Z" fill="#fff" stroke="#fff" stroke-linecap="round" stroke-linejoin="round" stroke-width="1.984"/><path data-name="Path 58643" d="M96.103 60.152a1.552 1.552 0 0 0-.027-1.674c-.316-.235-.629-.094-.489.263s.218.706.348 1.059c-.027.351.056.468.169.353Z" fill="#fff" stroke="#fff" stroke-linecap="round" stroke-linejoin="round" stroke-width="1.984"/><path data-name="Path 58644" d="M66.6 61.687a1.551 1.551 0 0 0-.027-1.674c-.315-.235-.628-.094-.489.263s.218.706.347 1.059c-.027.351.056.468.169.353Z" fill="#fff" stroke="#fff" stroke-linecap="round" stroke-linejoin="round" stroke-width="1.984"/><path data-name="Path 58645" d="M59.215 58.327c-.274.1-.486.064-.76.164l-.046 5.845c-.121 1.565-.562 1.941-1.05 2.148.047-3.528.115-7.26-.046-10.79a.719.719 0 0 1 .137-.849c.567-.378 1.017-.771.958-.25a20.621 20.621 0 0 0 .805 3.732Z" fill="#fff" stroke="#fff" stroke-linecap="round" stroke-linejoin="round" stroke-width="1.984"/><path data-name="Path 58646" d="M63.406 59.037c-.542.5-.386 1.1.426.836a48.4 48.4 0 0 1 10.566-3.586c.7-.3.4-1-.307-.872a54.975 54.975 0 0 0-10.686 3.622Z" fill="#fff" stroke="#fff" stroke-linecap="round" stroke-linejoin="round" stroke-width="1.984"/><path data-name="Path 58647" d="M83.197 56.092c1.116.042.76-.88.131-.692-.393.125-.774.866-1.129.467q-.442-.877-1.08-.4a.454.454 0 0 0 .082.612 4.942 4.942 0 0 0 .474.467c.158.316-.338.649-.556 1.143a2.32 2.32 0 0 1-1.489.9c-.091.089-.333.143.18.37.563-.053.943.139 1.211-.193a3.671 3.671 0 0 0 .965-1.481q.205-.411.344-.048c.159.366.317.624.475.129a2.744 2.744 0 0 1 .392-1.271Z" fill="#fff" stroke="#fff" stroke-linecap="round" stroke-linejoin="round" stroke-width="1.984"/><path data-name="Path 58648" d="M53.39 55.511c.261-.249-.074-.5-.325-.248-.246.224-.439.413-.685.637-.259.3-.181.578.2.584.231.031.279.147 0 .283l-.415.106c-.2.049-.25.2.036.212.818.256 1.635-.862.992-1.115q-.4-.009-.144-.3a.568.568 0 0 0 .343-.159Z" fill="#fff" stroke="#fff" stroke-linecap="round" stroke-linejoin="round" stroke-width="1.984"/><path data-name="Path 58649" d="M41.018 55.396c.1.065.109.339.109.643q-1.044.6-2.089 1.269a1.185 1.185 0 0 1-.291-.483 23.1 23.1 0 0 1 2.271-1.43Z" fill="#fff" stroke="#fff" stroke-linecap="round" stroke-linejoin="round" stroke-width="1.984"/><path data-name="Path 58650" d="M37.067 29.711c.082-2.479 1.654-1.81 1.647-3.064a2.659 2.659 0 0 1 1.8-2.288c.806-.283 1.3-1 1.227-2.5l.047-9.95c.152-1.5-.567-1.531-1.414-1.238.144-1.165.88-1.748 1.79-1.584.375-2.824 1.5-2.1 2.252-2.852l-.178 21.248 1.489-.028.2-20.969c.111-1.191-.88-1.1-1.485-.8a1.8 1.8 0 0 1 1.9-1.7c.1-2.446 1.561-2.411 2.121-2.869l-.179 32.255c.107 1.143 2.033 1.32 2.1 0L50.554.99c1.021.562 2.208.664 2.3 3.068.99-.3 1.567.474 1.859 1.731-.923-.645-1.607-.427-1.464.655-.049 7.816-.1 15.439-.148 23.255 1.6.631 2.064 3.172-.082 3.64 1.71 1.077 1.013 3.375-.546 3.167-.243 1.923-2.381 1.839-3.278 3.633-.579-1.627-2.924-1.96-3.111-3.522-1.95-.265-1.939-2.18-.555-3.3-2.274-1-1.373-2.91.158-3.619-2.844.014-5.732-.007-8.624.014Zm17.705-23.48c.71.629 1.917.3 2.123 2.912 1.222-.094 1.582.546 1.882 1.749a.951.951 0 0 0-1.477.154l-.117 11.285c.074 1.9.637 1.789 1.827 2.58a3.085 3.085 0 0 1 1.128 2.619c.838.091 1.4.743 1.555 2.185H54.5l.272-23.483Zm2.329 20.008-.023 1.358 1.279-.023a1.576 1.576 0 0 0-1.255-1.335Zm-15.5-.124v1.367l-1.15-.033a1.362 1.362 0 0 1 1.15-1.334Z" fill="#fff" stroke="#fff" stroke-linecap="round" stroke-linejoin="round" stroke-width="1.984"/><path data-name="Path 58651" d="M42.678 29.823c-3.567 3-3.8 6.769-3.257 9.877 3.571-2.473 4.831-5.708 3.778-9.877a9.273 9.273 0 0 1-3.222 11.473c1.824 3.887 5.052 5.734 9.445 5.889a10.308 10.308 0 0 0 8.889-5.669 9.622 9.622 0 0 1-3-11.693c-.87 4.593.235 8.094 3.722 10.1a10.894 10.894 0 0 0-3.052-10.1c4.665 2.369 5.1 8.4 4.83 10.923 4.581 1 8.241-.165 10.556-4.513 2.781-7.853-3.131-12.629-9.5-12 6.469-1.7 14.922 3.746 11.779 13.209-2.531 5.424-7.98 7.4-13.408 5.137-2.191 6.058-7.657 8.035-12.3 7.778-5.163-.766-8.36-3.574-9.927-8.072-4.618 2.381-12.639-.167-13.853-7.265-.814-8.64 6.325-12.263 12.3-10.934-6.972-.673-12.006 5.161-9.26 11.888a8.57 8.57 0 0 0 10.445 4.4c-.86-4.5 1.883-9.274 5.034-10.556Z" fill="#fff" stroke="#fff" stroke-linecap="round" stroke-linejoin="round" stroke-width="1.984"/><path data-name="Path 58652" d="M96.415 64.301c-.158-.96.662-1.189.955-.288.41 2.879-2.313 3.377-3.085 1.946-.159-.367-.389-.119-.8.216a2.446 2.446 0 0 1-3.878-1.081c-.218-.847-.55-.672-.711-.312-1.378 2.431-6.594 2.939-8.147 1.575-1.206-1.182-.626-3.2.657-4.453-.648 2.455-.249 3.752 1.791 3.738a34.492 34.492 0 0 0 3.82-.621q2.128-.68 1.836-3.387l-.588-6.27c.318-.384.732-.656 1.05-1.041.373 2.816.612 6.23 1.118 9.4.954 2.532 2.592 2.258 4.225-.157.44.349-.04 1.782 1.045 1.945.251.1.943-.4.715-1.212Z" fill="#003c15"/><path data-name="Path 58653" d="M51.162 63.541c.1 2.2-1.084 3.283-2.849 2.05-.974.646-1.435 1.1-2.44-.184-1.29 1.172-2.5 1.394-3.55-.687-1.213 2.54-3.354 3.091-4.889 2.5a22.968 22.968 0 0 0 3-1.764 1.564 1.564 0 0 0 .01-2.068c-1.153-2.867-3.659-5.78-5.148-8.129q.148-.784.3-1.568a19.261 19.261 0 0 1 3.136 2.729c-.909 0-1.054.215-.618.639 1.484 2.08 2.978 4.1 3.518 6.736.693-1.655.715-4.631 0-9.058l1.124-.871a55.935 55.935 0 0 1 .178 9.058c.687 2.1 1.845 2.615 3.633.684.234 2.023 1.754 1.521 2.4.129.37 1.652.977 1.648 1.881-.332.11-.641.294-.439.317.14Z" fill="#003c15"/><path data-name="Path 58654" d="M31.603 58.327c-.305.1-.542.064-.848.164l-.051 5.845c-.135 1.565-.627 1.941-1.171 2.148.053-3.528.129-7.26-.051-10.79a.665.665 0 0 1 .153-.849c.633-.378 1.135-.771 1.069-.25a18.8 18.8 0 0 0 .9 3.732Z" fill="#003c15"/><path data-name="Path 58655" d="M26.584 60.227c-1.038 1.045.964 1.58.761.213-.244.585-.894.53-.761-.213Z" fill="#003c15"/><path data-name="Path 58656" d="M4.944 61.289c.249-.125-.026-1.583 0-2.5q-.012-.569.255-.55c.945.259 1.113-.439.865-.8a.86.86 0 0 1-.509-1.049q-.071-.371.815-.35l.051-1.1c-.69-.111-.969.088-.967.5 0 .545-.113.758-.269.749a.205.205 0 0 1-.18-.2c0-.316-.01-.633-.01-.949l-.967.05c-.2.1-.266.928.306 1.249 1.168.958.3 1.222.385 1.859a4.9 4.9 0 0 0 .226 3.086Z" fill="#003c15"/><path data-name="Path 58657" d="M17.162 58.641v-.4a1.844 1.844 0 0 0-1.324-.047c-.017.167.008.292-.009.458a4.8 4.8 0 0 1 1.333-.012Z" fill="#003c15"/><path data-name="Path 58658" d="M18.181 55.69v-.734c-1.356-.069-.87.807-1.375.738-.445-.364-.175-.827-1.375-.688 0 .367.062.732.062 1.1.591 0 .953.1 1.007.589.13.755.651.633.713 0 .054-.6.253-.939.967-1Z" fill="#003c15"/><path data-name="Path 58659" d="M26.988 57.992a3.416 3.416 0 0 0-.356-2.548c-.375-.358-.674-.142-.458.4s.366 1.074.569 1.611c.04.534.15.713.245.537Z" fill="#003c15"/><path data-name="Path 58660" d="M46.815 67.201c.478.305-.061 1.228-.838.931a.957.957 0 0 1-1.12 0 1.838 1.838 0 0 1-2.189.849c1.88-.387 1.563-1.137 2.24-1.3.493.332.771.083 1.018-.25.319.412.631.38.889-.232Z" fill="#003c15"/><path data-name="Path 58661" d="m73.876 66.983-.815.9-1.018-.949-.815.949 1.069.949.865-.7.967.749.865-1-1.12-.9Z" fill="#003c15"/><path data-name="Path 58662" d="M53.762 57.46c.472-.169.151-.62-.351-.417-.322.167-.627.351-.949.517-.372.282-.233.451.309.35a2.037 2.037 0 0 1 .992-.45Z" fill="#003c15"/><path data-name="Path 58663" d="M86.247 59.192c1.063-.349.127-1.061-.458-.7-.7.583-1.391 1.187-2.087 1.77-.535.623-.6 1.143.356 1.328.747-.093 1.336-.095.815.55a4.4 4.4 0 0 1-1.578.45c-.633.16-.613.758.255.649a2.855 2.855 0 0 0 2.495-1.3c.419-.639.194-1.542-.443-1.456-.9.026-.925-.185-.677-.442l1.324-.849Z" fill="#003c15"/><path data-name="Path 58664" d="M91.186 57.043c.618-.225 1.652.119 1.578-.749-.526-.129-1.052.079-1.578-.05a1.359 1.359 0 0 1 1.273-.8h1.222c-.134 1.012-.458 1.61-.929 1.836-.416.2-1.614.411-1.566-.237Z" fill="#003c15"/><path data-name="Path 58665" d="m96.35 55.894.078.949-4.563 2.9-.121-.8 4.605-3.047Z" fill="#003c15"/><path data-name="Path 58666" d="m95.971 67.283 1.171.949-.916.9-1.069-1 .814-.849Z" fill="#003c15"/><path data-name="Path 58667" d="m24.494 58.092-.815-3.7c-.082-.751-.31-.544-.56-.2a2.815 2.815 0 0 0-.509.749c-.083 2.808.237 4.118.2 9.174.053.133-.718.122-1.222.317 1.148-2.38-.193-4.6-3.309-3.2a18.053 18.053 0 0 0-3.06 3.285c-1.537-1.184-2.814-1.174-4.31.4-1.074 1.069-2.337 2.057-3.474 3.106-1.618 1.178-2.385.127-1.731-2.6a18.884 18.884 0 0 0 5.57-2.236c1.367-.713 1.576-3.193.03-3.059l-2.087-.15c-.608-.029-1.123-.267-.467-1.058 1.146-1.347 2.451-2.322 3.165-.741.073.228.166.408.407.25.7-2.043.068-2.764-1.527-2.348a5.75 5.75 0 0 0-3.144 3.905c-.076.924.082 1.481 1.159 1.34 1.65-.123 2.661-.286 2.247.867-2.1.786-6.019 2.492-7.9 1.431-1.574-.953-1.616-2.777-.611-5.2-3.055 3.855-1.222 6.569 2.444 7.143-.789 3.236.527 4.983 2.444 3.747a14.76 14.76 0 0 0 3.462-3.2c1.6-1.622 3.218-.956 3.381.15a1.146 1.146 0 0 0-.174 1c.389.348.315-.522.662-.855a13.6 13.6 0 0 0 7.484-.849c.3-.078.675-.318.857.25.55 1.4 1.808 1.529 2.66.146.789-1.172.414-2.681-.83-2.462-.846.057-1.074.149-1.057-.682l-.1-5.045q.774.559.713.3Zm-.139 6.606a.823.823 0 0 1 .715.413c.112.323-.127.6-.589.351-.338-.352-.288-.579-.126-.764Zm-8.363-.162q-.537.6.356.7a9.691 9.691 0 0 0 4.124-.649c.916-.428.88-1.156.093-2.019a1.82 1.82 0 0 0-2.588.021 10.965 10.965 0 0 0-1.985 1.948Z" fill="#003c15"/><path data-name="Path 58668" d="M14.872 60.989c1.078-1.437-.442-1.325-.815-.849-.85.944-.368 2.011.815.849Zm-.653-.158c.236.113.513-.2.363-.4-.239-.131-.54.222-.363.4Z" fill="#003c15"/><path data-name="Path 58669" d="M32.916 61.393c.249-.125 0-1.583.023-2.5-.008-.379.053-.563.231-.55.98.259 1.139-.439.866-.8a.86.86 0 0 1-.509-1.049q-.071-.371.815-.35a2.241 2.241 0 0 0 .051-1.1c-.69-.111-.969.088-.967.5 0 .545-.113.758-.269.749a.205.205 0 0 1-.18-.2c0-.316-.01-.633-.01-.949-.322.017-.714.033-1.036.05-.2.1-.289 1.086.374 1.249 1.168.958.232 1.222.316 1.859a4.82 4.82 0 0 0 .295 3.086Z" fill="#003c15"/><path data-name="Path 58670" d="M21.099 56.506a2.244 2.244 0 0 0-.234-1.674c-.246-.235-.443-.094-.3.263s.24.706.374 1.059c.026.351.1.468.161.353Z" fill="#003c15"/><path data-name="Path 58671" d="M36 64.436a1.839 1.839 0 0 0 .407-1.1 9.878 9.878 0 0 1 1.527.05 4.665 4.665 0 0 1 .753-2.388c-2.659-1.767-4.509-1.671-4.317 1.639-1.027.739-2.014 1.5-1.731 3.047.771.153 1.969-.023 2.953.1.194.153.255.366-.611 1-2.83 1.424-5.107 1.874-6.72 1.149-1.341-.856-1.064-2.315-.051-4.046-2.055 1.061-3.088 4.646.153 5.595a8.575 8.575 0 0 0 8.3-3.1c.59-.888.228-1.378-.815-1.648-1.388-.16-2.462.158-1.578-.749.957-.634 1.586-.588 1.731.45Zm.715-2.084q1-.162.178-.775c-.828-.406-1.4-.405-1.649.087-.072.685.6.77 1.471.687Z" fill="#003c15"/><path data-name="Path 58672" d="M78.492 63.868h-1.4c-1.212-.007-1.42-.914-1.235-2.379.577-1.517 1.567-1.563 2.557-.577a3.26 3.26 0 0 1 1.029 2.667 3.884 3.884 0 0 1-.074 1.874c-.408 1.524-3.613 1.615-4.187.216q-.076-.452-.735-.216a16.223 16.223 0 0 1-7.55.965 8.289 8.289 0 0 1-.849 1.455c-.1-.424.407-1.194.451-1.686-.333-.333-.428-.8-.851-.692a2.474 2.474 0 0 1-4.2-.114c-.168-.281-.357-.229-.471.1-2.422 3.892-7.195 4.864-9.151 2.566.17.2-1.512.241-3.085.288 1.311-.538 2.982-1.128 2.967-1.341a5.485 5.485 0 0 1 1.66-4.209c.142.436-.7 1.668-.736 3.293-.072.415.2.361.513.241 1.1-.791 1.623-1.55 1.32-2.264-.524-1.71-1.964-3.363-3.472-5.13a12.423 12.423 0 0 1-3.5-3.565l.691-1.561a23.4 23.4 0 0 1 2.359 2.53 2.235 2.235 0 0 0 .658.538h-.6c-.032.125.084.406.67.754a15.726 15.726 0 0 1 3.354 4c.344.51.41.284.445-.047a15.53 15.53 0 0 0-.52-6.159 5.712 5.712 0 0 1 1.1-1.561l1.042 4.252c-.472-.046-.865.013-.713.807.551 5.411-.666 7.515-2.523 8.656.642 1.061 5.6-.125 7.405-3.273l-.329-9.258 1.1-1.077.494 9.043c.725 3.723 3.3 1.8 4.279.323a6.724 6.724 0 0 0 .922 1.4c1.551-2.506 2.755-3.96 5.053-3.818 1.24.13 1.844.945 1.375 2.9-.369 1.165.747.543 1.368.022.365 1.1 1 2.055 3.548 1.319.671-.821.28-1.144-.178-1.286Zm-10.164.688q-.813.724.31.634a23.569 23.569 0 0 0 3.505-.546 1.127 1.127 0 0 0 .089-2.12c-1.544-.633-2.721.715-3.9 2.033Zm8.806-1.952c.266 0 .45 0 .51-.425 0-.205-.176-.4-.561-.39a.43.43 0 0 0-.38.454c.008.127-.016.371.431.361Z" fill="#003c15"/><path data-name="Path 58673" d="m92.86 59.816 1.106.965-.867.948-1.118-.967.88-.946Z" fill="#003c15"/><path data-name="Path 58674" d="m76.857 56.691 1.106.965-.867.947-1.118-.967.88-.946Z" fill="#003c15"/><path data-name="Path 58675" d="M66.293 55.763v-.753c-1.391-.071-.892.828-1.41.757-.456-.373-.18-.849-1.41-.706 0 .376.064.751.064 1.127.606 0 .978.1 1.033.6.133.774.668.649.731 0 .055-.62.259-.963.992-1.029Z" fill="#003c15"/><path data-name="Path 58676" d="M45.306 59.601c.2-.1 0-1.2.018-1.9-.007-.289.042-.428.184-.418.779.2.906-.334.688-.608-.286-.169-.522-.37-.4-.8q-.057-.283.648-.266a1.635 1.635 0 0 0 .041-.837c-.549-.085-.771.067-.769.38 0 .415-.09.577-.214.57a.159.159 0 0 1-.143-.152c0-.241-.008-.481-.008-.723-.256.013-.568.025-.824.038a.625.625 0 0 0 .3.951c.929.729.185.93.252 1.415a3.524 3.524 0 0 0 .234 2.349Z" fill="#003c15"/><path data-name="Path 58677" d="M45.569 60.399c-1.078 1.437.442 1.325.815.849.85-.944.368-2.011-.815-.849Zm.653.158c-.236-.113-.513.2-.363.4.24.131.54-.223.363-.4Z" fill="#003c15"/><path data-name="Path 58678" d="M74.099 59.636c1.078-1.437-.442-1.325-.815-.849-.85.944-.368 2.011.815.849Zm-.653-.158c.236.113.513-.2.363-.4-.24-.131-.54.222-.363.4Z" fill="#003c15"/><path data-name="Path 58679" d="M87.09 57.127a1.551 1.551 0 0 0-.028-1.674c-.315-.235-.629-.094-.489.263s.218.706.348 1.059c-.027.351.056.468.169.353Z" fill="#003c15"/><path data-name="Path 58680" d="M96.103 60.152a1.552 1.552 0 0 0-.027-1.674c-.316-.235-.629-.094-.489.263s.218.706.348 1.059c-.027.351.056.468.169.353Z" fill="#003c15"/><path data-name="Path 58681" d="M66.6 61.687a1.551 1.551 0 0 0-.027-1.674c-.315-.235-.628-.094-.489.263s.218.706.347 1.059c-.027.351.056.468.169.353Z" fill="#003c15"/><path data-name="Path 58682" d="M59.215 58.327c-.274.1-.486.064-.76.164l-.046 5.845c-.121 1.565-.562 1.941-1.05 2.148.047-3.528.115-7.26-.046-10.79a.719.719 0 0 1 .137-.849c.567-.378 1.017-.771.958-.25a20.621 20.621 0 0 0 .805 3.732Z" fill="#003c15"/><path data-name="Path 58683" d="M63.406 59.037c-.542.5-.386 1.1.426.836a48.4 48.4 0 0 1 10.566-3.586c.7-.3.4-1-.307-.872a54.975 54.975 0 0 0-10.686 3.622Z" fill="#003c15"/><path data-name="Path 58684" d="M83.197 56.092c1.116.042.76-.88.131-.692-.393.125-.774.866-1.129.467q-.442-.877-1.08-.4a.454.454 0 0 0 .082.612 4.942 4.942 0 0 0 .474.467c.158.316-.338.649-.556 1.143a2.32 2.32 0 0 1-1.489.9c-.091.089-.333.143.18.37.563-.053.943.139 1.211-.193a3.671 3.671 0 0 0 .965-1.481q.205-.411.344-.048c.159.366.317.624.475.129a2.744 2.744 0 0 1 .392-1.271Z" fill="#003c15"/><path data-name="Path 58685" d="M53.39 55.511c.261-.249-.074-.5-.325-.248-.246.224-.439.413-.685.637-.259.3-.181.578.2.584.231.031.279.147 0 .283l-.415.106c-.2.049-.25.2.036.212.818.256 1.635-.862.992-1.115q-.4-.009-.144-.3a.568.568 0 0 0 .343-.159Z" fill="#003c15"/><path data-name="Path 58686" d="M41.018 55.396c.1.065.109.339.109.643q-1.044.6-2.089 1.269a1.185 1.185 0 0 1-.291-.483 23.1 23.1 0 0 1 2.271-1.43Z" fill="#003c15"/><path data-name="Path 58687" d="M37.067 29.711c.082-2.479 1.654-1.81 1.647-3.064a2.659 2.659 0 0 1 1.8-2.288c.806-.283 1.3-1 1.227-2.5l.047-9.95c.152-1.5-.567-1.531-1.414-1.238.144-1.165.88-1.748 1.79-1.584.375-2.824 1.5-2.1 2.252-2.852l-.178 21.248 1.489-.028.2-20.969c.111-1.191-.88-1.1-1.485-.8a1.8 1.8 0 0 1 1.9-1.7c.1-2.446 1.561-2.411 2.121-2.869l-.179 32.255c.107 1.143 2.033 1.32 2.1 0L50.554.99c1.021.562 2.208.664 2.3 3.068.99-.3 1.567.474 1.859 1.731-.923-.645-1.607-.427-1.464.655-.049 7.816-.1 15.439-.148 23.255 1.6.631 2.064 3.172-.082 3.64 1.71 1.077 1.013 3.375-.546 3.167-.243 1.923-2.381 1.839-3.278 3.633-.579-1.627-2.924-1.96-3.111-3.522-1.95-.265-1.939-2.18-.555-3.3-2.274-1-1.373-2.91.158-3.619-2.844.014-5.732-.007-8.624.014Zm17.705-23.48c.71.629 1.917.3 2.123 2.912 1.222-.094 1.582.546 1.882 1.749a.951.951 0 0 0-1.477.154l-.117 11.285c.074 1.9.637 1.789 1.827 2.58a3.085 3.085 0 0 1 1.128 2.619c.838.091 1.4.743 1.555 2.185H54.5l.272-23.483Zm2.329 20.008-.023 1.358 1.279-.023a1.576 1.576 0 0 0-1.255-1.335Zm-15.5-.124v1.367l-1.15-.033a1.362 1.362 0 0 1 1.15-1.334Z" fill="#003010"/><path data-name="Path 58688" d="M42.678 29.823c-3.567 3-3.8 6.769-3.257 9.877 3.571-2.473 4.831-5.708 3.778-9.877a9.273 9.273 0 0 1-3.222 11.473c1.824 3.887 5.052 5.734 9.445 5.889a10.308 10.308 0 0 0 8.889-5.669 9.622 9.622 0 0 1-3-11.693c-.87 4.593.235 8.094 3.722 10.1a10.894 10.894 0 0 0-3.052-10.1c4.665 2.369 5.1 8.4 4.83 10.923 4.581 1 8.241-.165 10.556-4.513 2.781-7.853-3.131-12.629-9.5-12 6.469-1.7 14.922 3.746 11.779 13.209-2.531 5.424-7.98 7.4-13.408 5.137-2.191 6.058-7.657 8.035-12.3 7.778-5.163-.766-8.36-3.574-9.927-8.072-4.618 2.381-12.639-.167-13.853-7.265-.814-8.64 6.325-12.263 12.3-10.934-6.972-.673-12.006 5.161-9.26 11.888a8.57 8.57 0 0 0 10.445 4.4c-.86-4.5 1.883-9.274 5.034-10.556Z" fill="#c47d15"/></g></svg>