<svg width="32" height="32" viewBox="0 0 32 32" fill="none" xmlns="http://www.w3.org/2000/svg">
<g clip-path="url(#clip0_1225_101)">
<path d="M32 0H0V32H32V0Z" fill="#2B3497"/>
<path fill-rule="evenodd" clip-rule="evenodd" d="M1 12V13.9731H4.4669V19.8287H6.44373V13.9731H9.91082V12H1ZM13.5213 16.1257V13.7954H16.5399C18.0262 13.7954 18.2434 16.1257 16.2464 16.1257H13.5213ZM16.1672 17.306C16.1672 17.306 18.2939 17.732 19.3459 16.2925C20.3678 14.8939 19.5678 12 16.8672 12H11.5445V19.8289H13.5213V17.306C13.5213 17.306 15.7634 19.4431 18.8346 19.7192C18.9228 19.7271 19.0099 19.7351 19.096 19.743C19.5823 19.7875 20.0341 19.8289 20.4555 19.8289V17.7561C20.4131 17.7714 18.5841 18.4311 16.1672 17.306ZM29.1438 17.8671V12H31V19.8287H29.1438V18.6861C26.6621 21.0431 23.0603 20.0156 22.2654 17.2959C22.148 16.8935 22.0892 16.4333 22.0892 15.9145V12H24.0394V15.6945C24.0394 16.4694 24.2214 17.0258 24.5839 17.3617C25.2207 17.9518 26.4116 17.8665 26.4116 17.8665C27.1125 17.8225 28.2248 17.0317 28.2248 17.0317C28.2248 17.0317 28.7943 17.575 29.1438 17.8671Z" fill="white"/>
</g>
<defs>
<clipPath id="clip0_1225_101">
<rect width="32" height="32" rx="4" fill="white"/>
</clipPath>
</defs>
</svg>
